Truculenta-72ptExpandedThin.ufo
<glyph name="exclam" format="2">
  <advance width="307"/>
  <unicode hex="0021"/>
  <outline>
    <contour>
      <point x="139" y="216" type="curve"/>
      <point x="167" y="216" type="line"/>
      <point x="168" y="250"/>
      <point x="169" y="367"/>
      <point x="170" y="425" type="curve" smooth="yes"/>
      <point x="171" y="487"/>
      <point x="177" y="655"/>
      <point x="179" y="708" type="curve"/>
      <point x="127" y="705" type="line"/>
      <point x="128" y="659"/>
      <point x="133" y="513"/>
      <point x="135" y="423" type="curve" smooth="yes"/>
      <point x="137" y="346"/>
      <point x="138" y="244"/>
    </contour>
    <contour>
      <point x="177" y="0" type="line"/>
      <point x="172" y="101" type="line"/>
      <point x="135" y="99" type="line"/>
      <point x="132" y="0" type="line"/>
    </contour>
  </outline>
</glyph>
<glyph name="quotedbl" format="2">
  <advance width="458"/>
  <unicode hex="0022"/>
  <outline>
    <contour>
      <point x="282" y="498" type="curve"/>
      <point x="313" y="503" type="line"/>
      <point x="317" y="532"/>
      <point x="322" y="569"/>
      <point x="327" y="604" type="curve" smooth="yes"/>
      <point x="332" y="642"/>
      <point x="338" y="678"/>
      <point x="343" y="699" type="curve"/>
      <point x="288" y="700" type="line"/>
      <point x="288" y="681"/>
      <point x="288" y="635"/>
      <point x="286" y="603" type="curve" smooth="yes"/>
      <point x="285" y="570"/>
      <point x="283" y="520"/>
    </contour>
    <contour>
      <point x="122" y="496" type="curve"/>
      <point x="153" y="504" type="line"/>
      <point x="154" y="531"/>
      <point x="156" y="568"/>
      <point x="159" y="604" type="curve" smooth="yes"/>
      <point x="162" y="646"/>
      <point x="165" y="684"/>
      <point x="168" y="702" type="curve"/>
      <point x="114" y="698" type="line"/>
      <point x="115" y="679"/>
      <point x="118" y="634"/>
      <point x="119" y="602" type="curve" smooth="yes"/>
      <point x="121" y="568"/>
      <point x="121" y="518"/>
    </contour>
  </outline>
</glyph>
<glyph name="numbersign" format="2">
  <advance width="926"/>
  <unicode hex="0023"/>
  <outline>
    <contour>
      <point x="180" y="1" type="line"/>
      <point x="219" y="3" type="line"/>
      <point x="302" y="378" type="line"/>
      <point x="385" y="695" type="line"/>
      <point x="347" y="693" type="line"/>
      <point x="278" y="381" type="line"/>
    </contour>
    <contour>
      <point x="70" y="190" type="line"/>
      <point x="118" y="192"/>
      <point x="353" y="195"/>
      <point x="451" y="194" type="curve" smooth="yes"/>
      <point x="549" y="193"/>
      <point x="756" y="192"/>
      <point x="798" y="192" type="curve"/>
      <point x="796" y="223" type="line"/>
      <point x="756" y="222"/>
      <point x="547" y="220"/>
      <point x="454" y="220" type="curve" smooth="yes"/>
      <point x="362" y="220"/>
      <point x="119" y="222"/>
      <point x="70" y="223" type="curve"/>
    </contour>
    <contour>
      <point x="531" y="0" type="line"/>
      <point x="570" y="1" type="line"/>
      <point x="650" y="367" type="line"/>
      <point x="733" y="682" type="line"/>
      <point x="695" y="683" type="line"/>
      <point x="629" y="381" type="line"/>
    </contour>
    <contour>
      <point x="117" y="477" type="line"/>
      <point x="163" y="479"/>
      <point x="402" y="484"/>
      <point x="502" y="483" type="curve" smooth="yes"/>
      <point x="600" y="482"/>
      <point x="805" y="479"/>
      <point x="845" y="478" type="curve"/>
      <point x="845" y="510" type="line"/>
      <point x="804" y="509"/>
      <point x="596" y="507"/>
      <point x="504" y="507" type="curve" smooth="yes"/>
      <point x="413" y="507"/>
      <point x="166" y="509"/>
      <point x="113" y="510" type="curve"/>
    </contour>
  </outline>
</glyph>
<glyph name="percent" format="2">
  <advance width="880"/>
  <unicode hex="0025"/>
  <outline>
    <contour>
      <point x="155" y="0" type="curve"/>
      <point x="192" y="1" type="line"/>
      <point x="278" y="115"/>
      <point x="364" y="228"/>
      <point x="449" y="342" type="curve" smooth="yes"/>
      <point x="537" y="460"/>
      <point x="627" y="577"/>
      <point x="716" y="695" type="curve"/>
      <point x="677" y="696" type="line"/>
      <point x="589" y="576"/>
      <point x="502" y="457"/>
      <point x="413" y="337" type="curve" smooth="yes"/>
      <point x="329" y="224"/>
      <point x="241" y="112"/>
    </contour>
    <contour>
      <point x="216" y="368" type="curve" smooth="yes"/>
      <point x="312" y="368"/>
      <point x="353" y="440"/>
      <point x="353" y="536" type="curve" smooth="yes"/>
      <point x="353" y="625"/>
      <point x="319" y="700"/>
      <point x="221" y="700" type="curve" smooth="yes"/>
      <point x="119" y="700"/>
      <point x="79" y="626"/>
      <point x="79" y="537" type="curve" smooth="yes"/>
      <point x="79" y="439"/>
      <point x="115" y="368"/>
    </contour>
    <contour>
      <point x="213" y="399" type="curve" smooth="yes"/>
      <point x="136" y="399"/>
      <point x="111" y="457"/>
      <point x="111" y="535" type="curve" smooth="yes"/>
      <point x="111" y="611"/>
      <point x="136" y="670"/>
      <point x="218" y="670" type="curve" smooth="yes"/>
      <point x="298" y="670"/>
      <point x="321" y="614"/>
      <point x="321" y="540" type="curve" smooth="yes"/>
      <point x="321" y="453"/>
      <point x="298" y="399"/>
    </contour>
    <contour>
      <point x="663" y="-1" type="curve" smooth="yes"/>
      <point x="759" y="-1"/>
      <point x="800" y="71"/>
      <point x="800" y="167" type="curve" smooth="yes"/>
      <point x="800" y="256"/>
      <point x="766" y="331"/>
      <point x="668" y="331" type="curve" smooth="yes"/>
      <point x="566" y="331"/>
      <point x="526" y="257"/>
      <point x="526" y="168" type="curve" smooth="yes"/>
      <point x="526" y="70"/>
      <point x="562" y="-1"/>
    </contour>
    <contour>
      <point x="660" y="30" type="curve" smooth="yes"/>
      <point x="583" y="30"/>
      <point x="558" y="88"/>
      <point x="558" y="166" type="curve" smooth="yes"/>
      <point x="558" y="242"/>
      <point x="583" y="301"/>
      <point x="665" y="301" type="curve" smooth="yes"/>
      <point x="745" y="301"/>
      <point x="768" y="245"/>
      <point x="768" y="171" type="curve" smooth="yes"/>
      <point x="768" y="84"/>
      <point x="745" y="30"/>
    </contour>
  </outline>
</glyph>
<glyph name="quotesingle" format="2">
  <advance width="282"/>
  <unicode hex="0027"/>
  <outline>
    <contour>
      <point x="122" y="496" type="curve"/>
      <point x="153" y="504" type="line"/>
      <point x="154" y="531"/>
      <point x="156" y="568"/>
      <point x="159" y="604" type="curve" smooth="yes"/>
      <point x="162" y="646"/>
      <point x="165" y="684"/>
      <point x="168" y="702" type="curve"/>
      <point x="114" y="698" type="line"/>
      <point x="115" y="679"/>
      <point x="118" y="634"/>
      <point x="119" y="602" type="curve" smooth="yes"/>
      <point x="121" y="568"/>
      <point x="121" y="518"/>
    </contour>
  </outline>
</glyph>
<glyph name="parenleft" format="2">
  <advance width="474"/>
  <unicode hex="0028"/>
  <outline>
    <contour>
      <point x="327" y="-139" type="curve"/>
      <point x="335" y="-115" type="line"/>
      <point x="216" y="-55"/>
      <point x="166" y="111"/>
      <point x="166" y="281" type="curve" smooth="yes"/>
      <point x="166" y="452"/>
      <point x="213" y="617"/>
      <point x="335" y="678" type="curve"/>
      <point x="327" y="702" type="line"/>
      <point x="213" y="650"/>
      <point x="136" y="528"/>
      <point x="136" y="281" type="curve" smooth="yes"/>
      <point x="136" y="35"/>
      <point x="211" y="-86"/>
    </contour>
  </outline>
</glyph>
<glyph name="parenright" format="2">
  <advance width="474"/>
  <unicode hex="0029"/>
  <outline>
    <contour>
      <point x="144" y="702" type="curve"/>
      <point x="136" y="678" type="line"/>
      <point x="255" y="618"/>
      <point x="305" y="452"/>
      <point x="305" y="282" type="curve" smooth="yes"/>
      <point x="305" y="111"/>
      <point x="258" y="-54"/>
      <point x="136" y="-115" type="curve"/>
      <point x="144" y="-139" type="line"/>
      <point x="258" y="-87"/>
      <point x="335" y="35"/>
      <point x="335" y="282" type="curve" smooth="yes"/>
      <point x="335" y="528"/>
      <point x="260" y="649"/>
    </contour>
  </outline>
</glyph>
<glyph name="asterisk" format="2">
  <advance width="594"/>
  <unicode hex="002A"/>
  <outline>
    <contour>
      <point x="443" y="436" type="curve"/>
      <point x="470" y="460" type="line"/>
      <point x="432" y="483"/>
      <point x="332" y="544"/>
      <point x="296" y="565" type="curve" smooth="yes"/>
      <point x="256" y="588"/>
      <point x="177" y="648"/>
      <point x="150" y="668" type="curve"/>
      <point x="125" y="638" type="line"/>
      <point x="160" y="621"/>
      <point x="250" y="570"/>
      <point x="292" y="546" type="curve" smooth="yes"/>
      <point x="333" y="522"/>
      <point x="417" y="457"/>
    </contour>
    <contour>
      <point x="144" y="428" type="line"/>
      <point x="178" y="454"/>
      <point x="268" y="523"/>
      <point x="309" y="546" type="curve" smooth="yes"/>
      <point x="352" y="570"/>
      <point x="441" y="625"/>
      <point x="469" y="640" type="curve"/>
      <point x="460" y="673" type="line"/>
      <point x="426" y="649"/>
      <point x="342" y="587"/>
      <point x="305" y="565" type="curve" smooth="yes"/>
      <point x="267" y="542"/>
      <point x="164" y="477"/>
      <point x="132" y="457" type="curve"/>
    </contour>
    <contour>
      <point x="322" y="361" type="line"/>
      <point x="318" y="400"/>
      <point x="311" y="509"/>
      <point x="311" y="562" type="curve" smooth="yes"/>
      <point x="311" y="616"/>
      <point x="317" y="704"/>
      <point x="320" y="736" type="curve"/>
      <point x="283" y="739" type="line"/>
      <point x="285" y="704"/>
      <point x="289" y="611"/>
      <point x="290" y="561" type="curve" smooth="yes"/>
      <point x="291" y="511"/>
      <point x="286" y="401"/>
      <point x="284" y="364" type="curve"/>
    </contour>
  </outline>
</glyph>
<glyph name="plus" format="2">
  <advance width="580"/>
  <unicode hex="002B"/>
  <outline>
    <contour>
      <point x="311" y="90" type="line"/>
      <point x="308" y="121"/>
      <point x="303" y="251"/>
      <point x="303" y="302" type="curve" smooth="yes"/>
      <point x="303" y="352"/>
      <point x="307" y="478"/>
      <point x="309" y="500" type="curve"/>
      <point x="270" y="497" type="line"/>
      <point x="271" y="471"/>
      <point x="273" y="348"/>
      <point x="274" y="301" type="curve" smooth="yes"/>
      <point x="275" y="253"/>
      <point x="272" y="115"/>
      <point x="271" y="87" type="curve"/>
    </contour>
    <contour>
      <point x="82" y="273" type="line"/>
      <point x="110" y="275"/>
      <point x="259" y="278"/>
      <point x="302" y="278" type="curve" smooth="yes"/>
      <point x="345" y="278"/>
      <point x="471" y="276"/>
      <point x="489" y="274" type="curve"/>
      <point x="498" y="309" type="line"/>
      <point x="474" y="308"/>
      <point x="340" y="307"/>
      <point x="301" y="306" type="curve" smooth="yes"/>
      <point x="259" y="305"/>
      <point x="111" y="307"/>
      <point x="86" y="307" type="curve"/>
    </contour>
  </outline>
</glyph>
<glyph name="comma" format="2">
  <advance width="307"/>
  <unicode hex="002C"/>
  <outline>
    <contour>
      <point x="155" y="-100" type="line"/>
      <point x="171" y="-73"/>
      <point x="179" y="-38"/>
      <point x="179" y="5" type="curve" smooth="yes"/>
      <point x="179" y="98" type="line"/>
      <point x="127" y="93" type="line"/>
      <point x="129" y="1" type="line"/>
      <point x="151" y="-1" type="line"/>
      <point x="152" y="-33"/>
      <point x="144" y="-61"/>
      <point x="131" y="-91" type="curve"/>
    </contour>
  </outline>
</glyph>
<glyph name="slash" format="2">
  <advance width="382"/>
  <unicode hex="002F"/>
  <outline>
    <contour>
      <point x="39" y="0" type="curve"/>
      <point x="75" y="1" type="line"/>
      <point x="118" y="116"/>
      <point x="168" y="241"/>
      <point x="212" y="361" type="curve" smooth="yes"/>
      <point x="258" y="486"/>
      <point x="304" y="603"/>
      <point x="342" y="694" type="curve"/>
      <point x="306" y="695" type="line"/>
      <point x="277" y="612"/>
      <point x="233" y="491"/>
      <point x="186" y="365" type="curve" smooth="yes"/>
      <point x="139" y="238"/>
      <point x="85" y="105"/>
    </contour>
  </outline>
</glyph>
<glyph name="zero" format="2">
  <advance width="636"/>
  <unicode hex="0030"/>
  <outline>
    <contour>
      <point x="312" y="-10" type="curve" smooth="yes"/>
      <point x="506" y="-10"/>
      <point x="535" y="185"/>
      <point x="535" y="342" type="curve" smooth="yes"/>
      <point x="535" y="509"/>
      <point x="512" y="706"/>
      <point x="324" y="706" type="curve" smooth="yes"/>
      <point x="137" y="706"/>
      <point x="101" y="503"/>
      <point x="101" y="343" type="curve" smooth="yes"/>
      <point x="101" y="176"/>
      <point x="126" y="-10"/>
    </contour>
    <contour>
      <point x="315" y="20" type="curve" smooth="yes"/>
      <point x="166" y="20"/>
      <point x="139" y="148"/>
      <point x="139" y="338" type="curve" smooth="yes"/>
      <point x="139" y="505"/>
      <point x="167" y="674"/>
      <point x="322" y="674" type="curve" smooth="yes"/>
      <point x="475" y="674"/>
      <point x="499" y="513"/>
      <point x="499" y="353" type="curve" smooth="yes"/>
      <point x="499" y="185"/>
      <point x="470" y="20"/>
    </contour>
  </outline>
</glyph>
<glyph name="one" format="2">
  <advance width="374"/>
  <unicode hex="0031"/>
  <outline>
    <contour>
      <point x="212" y="0" type="curve"/>
      <point x="254" y="0" type="line"/>
      <point x="252" y="48"/>
      <point x="250" y="202"/>
      <point x="250" y="341" type="curve" smooth="yes"/>
      <point x="250" y="481"/>
      <point x="254" y="644"/>
      <point x="255" y="694" type="curve"/>
      <point x="240" y="694" type="line"/>
      <point x="216" y="638" type="line"/>
      <point x="217" y="562"/>
      <point x="216" y="418"/>
      <point x="216" y="342" type="curve" smooth="yes"/>
      <point x="216" y="245"/>
      <point x="214" y="55"/>
    </contour>
    <contour>
      <point x="56" y="617" type="line"/>
      <point x="94" y="618"/>
      <point x="215" y="629"/>
      <point x="242" y="640" type="curve"/>
      <point x="240" y="694" type="line"/>
      <point x="215" y="667"/>
      <point x="101" y="652"/>
      <point x="55" y="646" type="curve"/>
    </contour>
  </outline>
</glyph>
<glyph name="two" format="2">
  <advance width="591"/>
  <unicode hex="0032"/>
  <outline>
    <contour>
      <point x="121" y="20" type="line"/>
      <point x="257" y="126"/>
      <point x="497" y="321"/>
      <point x="497" y="515" type="curve" smooth="yes"/>
      <point x="497" y="643"/>
      <point x="411" y="700"/>
      <point x="303" y="700" type="curve" smooth="yes"/>
      <point x="193" y="700"/>
      <point x="105" y="633"/>
      <point x="105" y="493" type="curve" smooth="yes"/>
      <point x="105" y="475"/>
      <point x="106" y="457"/>
      <point x="109" y="437" type="curve"/>
      <point x="146" y="438" type="line"/>
      <point x="142" y="460"/>
      <point x="140" y="480"/>
      <point x="140" y="499" type="curve" smooth="yes"/>
      <point x="140" y="618"/>
      <point x="213" y="669"/>
      <point x="299" y="669" type="curve" smooth="yes"/>
      <point x="393" y="669"/>
      <point x="459" y="629"/>
      <point x="459" y="507" type="curve" smooth="yes"/>
      <point x="459" y="333"/>
      <point x="241" y="154"/>
      <point x="88" y="27" type="curve"/>
    </contour>
    <contour>
      <point x="88" y="-3" type="line"/>
      <point x="109" y="-2"/>
      <point x="250" y="0"/>
      <point x="294" y="0" type="curve" smooth="yes"/>
      <point x="348" y="0"/>
      <point x="448" y="0"/>
      <point x="502" y="0" type="curve"/>
      <point x="501" y="32" type="line"/>
      <point x="468" y="30"/>
      <point x="347" y="28"/>
      <point x="305" y="28" type="curve" smooth="yes"/>
      <point x="247" y="28"/>
      <point x="146" y="27"/>
      <point x="88" y="27" type="curve"/>
    </contour>
  </outline>
</glyph>
<glyph name="three" format="2">
  <advance width="550"/>
  <unicode hex="0033"/>
  <outline>
    <contour>
      <point x="268" y="-10" type="curve" smooth="yes"/>
      <point x="406" y="-10"/>
      <point x="468" y="68"/>
      <point x="468" y="157" type="curve" smooth="yes"/>
      <point x="468" y="233"/>
      <point x="426" y="280"/>
      <point x="346" y="297" type="curve"/>
      <point x="420" y="334"/>
      <point x="462" y="412"/>
      <point x="462" y="512" type="curve" smooth="yes"/>
      <point x="462" y="593"/>
      <point x="429" y="697"/>
      <point x="270" y="697" type="curve" smooth="yes"/>
      <point x="104" y="697"/>
      <point x="78" y="577"/>
      <point x="76" y="504" type="curve"/>
      <point x="109" y="506" type="line"/>
      <point x="112" y="572"/>
      <point x="129" y="669"/>
      <point x="265" y="669" type="curve" smooth="yes"/>
      <point x="403" y="669"/>
      <point x="427" y="588"/>
      <point x="427" y="502" type="curve" smooth="yes"/>
      <point x="427" y="385"/>
      <point x="362" y="307"/>
      <point x="266" y="307" type="curve" smooth="yes"/>
      <point x="256" y="307"/>
      <point x="165" y="307"/>
      <point x="157" y="308" type="curve"/>
      <point x="158" y="278" type="line"/>
      <point x="169" y="279"/>
      <point x="232" y="279"/>
      <point x="240" y="279" type="curve" smooth="yes"/>
      <point x="386" y="279"/>
      <point x="434" y="244"/>
      <point x="434" y="149" type="curve" smooth="yes"/>
      <point x="434" y="82"/>
      <point x="393" y="18"/>
      <point x="269" y="18" type="curve" smooth="yes"/>
      <point x="135" y="18"/>
      <point x="107" y="95"/>
      <point x="106" y="137" type="curve"/>
      <point x="75" y="138" type="line"/>
      <point x="76" y="81"/>
      <point x="113" y="-10"/>
    </contour>
  </outline>
</glyph>
<glyph name="four" format="2">
  <advance width="600"/>
  <unicode hex="0034"/>
  <outline>
    <contour>
      <point x="85" y="177" type="line"/>
      <point x="113" y="220"/>
      <point x="167" y="306"/>
      <point x="223" y="393" type="curve" smooth="yes"/>
      <point x="290" y="497"/>
      <point x="359" y="603"/>
      <point x="389" y="647" type="curve"/>
      <point x="396" y="664"/>
      <point x="403" y="683"/>
      <point x="414" y="697" type="curve"/>
      <point x="374" y="698" type="line"/>
      <point x="329" y="625"/>
      <point x="261" y="516"/>
      <point x="198" y="416" type="curve" smooth="yes"/>
      <point x="136" y="319"/>
      <point x="79" y="231"/>
      <point x="54" y="193" type="curve"/>
    </contour>
    <contour>
      <point x="60" y="162" type="line"/>
      <point x="87" y="163"/>
      <point x="252" y="165"/>
      <point x="299" y="166" type="curve" smooth="yes"/>
      <point x="373" y="167"/>
      <point x="512" y="166"/>
      <point x="542" y="166" type="curve"/>
      <point x="542" y="200" type="line"/>
      <point x="512" y="198"/>
      <point x="375" y="195"/>
      <point x="299" y="193" type="curve" smooth="yes"/>
      <point x="251" y="192"/>
      <point x="85" y="192"/>
      <point x="54" y="193" type="curve"/>
    </contour>
    <contour>
      <point x="374" y="-1" type="curve"/>
      <point x="413" y="0" type="line"/>
      <point x="412" y="53"/>
      <point x="410" y="236"/>
      <point x="410" y="378" type="curve" smooth="yes"/>
      <point x="410" y="512"/>
      <point x="412" y="651"/>
      <point x="414" y="697" type="curve"/>
      <point x="378" y="692" type="line"/>
      <point x="378" y="645"/>
      <point x="378" y="477"/>
      <point x="378" y="380" type="curve" smooth="yes"/>
      <point x="378" y="284"/>
      <point x="375" y="65"/>
    </contour>
  </outline>
</glyph>
<glyph name="five" format="2">
  <advance width="580"/>
  <unicode hex="0035"/>
  <outline>
    <contour>
      <point x="281" y="-10" type="curve" smooth="yes"/>
      <point x="439" y="-10"/>
      <point x="506" y="90"/>
      <point x="506" y="225" type="curve" smooth="yes"/>
      <point x="506" y="338"/>
      <point x="445" y="429"/>
      <point x="302" y="429" type="curve" smooth="yes"/>
      <point x="228" y="429"/>
      <point x="137" y="391"/>
      <point x="113" y="320" type="curve"/>
      <point x="139" y="318" type="line"/>
      <point x="162" y="373"/>
      <point x="243" y="398"/>
      <point x="299" y="398" type="curve" smooth="yes"/>
      <point x="421" y="398"/>
      <point x="470" y="318"/>
      <point x="470" y="235" type="curve" smooth="yes"/>
      <point x="470" y="106"/>
      <point x="419" y="20"/>
      <point x="285" y="20" type="curve" smooth="yes"/>
      <point x="158" y="20"/>
      <point x="124" y="66"/>
      <point x="120" y="135" type="curve"/>
      <point x="85" y="133" type="line"/>
      <point x="91" y="54"/>
      <point x="138" y="-10"/>
    </contour>
    <contour>
      <point x="139" y="318" type="line"/>
      <point x="140" y="360"/>
      <point x="142" y="446"/>
      <point x="144" y="503" type="curve" smooth="yes"/>
      <point x="146" y="565"/>
      <point x="149" y="659"/>
      <point x="151" y="695" type="curve"/>
      <point x="112" y="698" type="line"/>
      <point x="113" y="661"/>
      <point x="114" y="569"/>
      <point x="112" y="505" type="curve" smooth="yes"/>
      <point x="110" y="438"/>
      <point x="105" y="349"/>
      <point x="103" y="317" type="curve"/>
    </contour>
    <contour>
      <point x="130" y="664" type="line"/>
      <point x="149" y="665"/>
      <point x="260" y="666"/>
      <point x="297" y="666" type="curve" smooth="yes"/>
      <point x="330" y="666"/>
      <point x="457" y="664"/>
      <point x="479" y="663" type="curve"/>
      <point x="481" y="695" type="line"/>
      <point x="457" y="695"/>
      <point x="331" y="695"/>
      <point x="295" y="696" type="curve" smooth="yes"/>
      <point x="261" y="697"/>
      <point x="148" y="698"/>
      <point x="119" y="698" type="curve"/>
    </contour>
  </outline>
</glyph>
<glyph name="six" format="2">
  <advance width="611"/>
  <unicode hex="0036"/>
  <outline>
    <contour>
      <point x="306" y="-10" type="curve" smooth="yes"/>
      <point x="449" y="-10"/>
      <point x="511" y="102"/>
      <point x="511" y="192" type="curve" smooth="yes"/>
      <point x="511" y="297"/>
      <point x="451" y="375"/>
      <point x="315" y="375" type="curve" smooth="yes"/>
      <point x="203" y="375"/>
      <point x="142" y="320"/>
      <point x="119" y="254" type="curve"/>
      <point x="134" y="203" type="line"/>
      <point x="134" y="271"/>
      <point x="189" y="344"/>
      <point x="313" y="344" type="curve" smooth="yes"/>
      <point x="432" y="344"/>
      <point x="475" y="281"/>
      <point x="475" y="188" type="curve" smooth="yes"/>
      <point x="475" y="119"/>
      <point x="430" y="20"/>
      <point x="308" y="20" type="curve" smooth="yes"/>
      <point x="143" y="20"/>
      <point x="131" y="156"/>
      <point x="131" y="370" type="curve" smooth="yes"/>
      <point x="131" y="552"/>
      <point x="187" y="684"/>
      <point x="319" y="684" type="curve" smooth="yes"/>
      <point x="436" y="684"/>
      <point x="468" y="618"/>
      <point x="468" y="528" type="curve" smooth="yes"/>
      <point x="468" y="512"/>
      <point x="467" y="495"/>
      <point x="465" y="477" type="curve"/>
      <point x="500" y="478" type="line"/>
      <point x="502" y="495"/>
      <point x="503" y="511"/>
      <point x="503" y="527" type="curve" smooth="yes"/>
      <point x="503" y="630"/>
      <point x="461" y="713"/>
      <point x="320" y="713" type="curve" smooth="yes"/>
      <point x="172" y="713"/>
      <point x="94" y="596"/>
      <point x="94" y="321" type="curve" smooth="yes"/>
      <point x="94" y="102"/>
      <point x="144" y="-10"/>
    </contour>
  </outline>
</glyph>
<glyph name="seven" format="2">
  <advance width="479"/>
  <unicode hex="0037"/>
  <outline>
    <contour>
      <point x="170" y="-1" type="curve"/>
      <point x="210" y="0" type="line"/>
      <point x="201" y="122"/>
      <point x="226" y="243"/>
      <point x="272" y="357" type="curve" smooth="yes"/>
      <point x="315" y="463"/>
      <point x="375" y="565"/>
      <point x="441" y="657" type="curve"/>
      <point x="441" y="698" type="line"/>
      <point x="366" y="613"/>
      <point x="293" y="497"/>
      <point x="241" y="371" type="curve" smooth="yes"/>
      <point x="193" y="251"/>
      <point x="163" y="122"/>
    </contour>
    <contour>
      <point x="34" y="663" type="line"/>
      <point x="55" y="663"/>
      <point x="181" y="664"/>
      <point x="213" y="664" type="curve" smooth="yes"/>
      <point x="248" y="664"/>
      <point x="410" y="665"/>
      <point x="438" y="666" type="curve"/>
      <point x="441" y="698" type="line"/>
      <point x="413" y="698"/>
      <point x="260" y="697"/>
      <point x="226" y="697" type="curve" smooth="yes"/>
      <point x="192" y="697"/>
      <point x="58" y="698"/>
      <point x="33" y="699" type="curve"/>
    </contour>
  </outline>
</glyph>
<glyph name="nine" format="2">
  <advance width="611"/>
  <unicode hex="0039"/>
  <outline>
    <contour>
      <point x="282" y="-10" type="curve" smooth="yes"/>
      <point x="430" y="-10"/>
      <point x="511" y="89"/>
      <point x="511" y="382" type="curve" smooth="yes"/>
      <point x="511" y="601"/>
      <point x="461" y="713"/>
      <point x="299" y="713" type="curve" smooth="yes"/>
      <point x="156" y="713"/>
      <point x="94" y="601"/>
      <point x="94" y="481" type="curve" smooth="yes"/>
      <point x="94" y="346"/>
      <point x="154" y="268"/>
      <point x="290" y="268" type="curve" smooth="yes"/>
      <point x="402" y="268"/>
      <point x="473" y="333"/>
      <point x="486" y="419" type="curve"/>
      <point x="471" y="470" type="line"/>
      <point x="471" y="385"/>
      <point x="416" y="299"/>
      <point x="292" y="299" type="curve" smooth="yes"/>
      <point x="173" y="299"/>
      <point x="130" y="362"/>
      <point x="130" y="485" type="curve" smooth="yes"/>
      <point x="130" y="584"/>
      <point x="175" y="683"/>
      <point x="297" y="683" type="curve" smooth="yes"/>
      <point x="462" y="683"/>
      <point x="474" y="547"/>
      <point x="474" y="333" type="curve" smooth="yes"/>
      <point x="474" y="133"/>
      <point x="418" y="19"/>
      <point x="286" y="19" type="curve" smooth="yes"/>
      <point x="168" y="19"/>
      <point x="139" y="77"/>
      <point x="139" y="142" type="curve" smooth="yes"/>
      <point x="139" y="150"/>
      <point x="139" y="158"/>
      <point x="140" y="166" type="curve"/>
      <point x="105" y="165" type="line"/>
      <point x="104" y="156"/>
      <point x="103" y="147"/>
      <point x="103" y="139" type="curve" smooth="yes"/>
      <point x="103" y="62"/>
      <point x="146" y="-10"/>
    </contour>
  </outline>
</glyph>
<glyph name="colon" format="2">
  <advance width="297"/>
  <unicode hex="003A"/>
  <outline>
    <contour>
      <point x="169" y="1" type="line"/>
      <point x="169" y="104" type="line"/>
      <point x="127" y="100" type="line"/>
      <point x="130" y="1" type="line"/>
    </contour>
    <contour>
      <point x="169" y="441" type="line"/>
      <point x="169" y="543" type="line"/>
      <point x="127" y="539" type="line"/>
      <point x="130" y="442" type="line"/>
    </contour>
  </outline>
</glyph>
<glyph name="less" format="2">
  <advance width="580"/>
  <unicode hex="003C"/>
  <outline>
    <contour>
      <point x="536" y="454" type="line"/>
      <point x="460" y="433"/>
      <point x="389" y="414"/>
      <point x="316" y="395" type="curve" smooth="yes"/>
      <point x="231" y="373"/>
      <point x="142" y="351"/>
      <point x="37" y="324" type="curve"/>
      <point x="37" y="288" type="line"/>
      <point x="116" y="307"/>
      <point x="225" y="333"/>
      <point x="328" y="357" type="curve" smooth="yes"/>
      <point x="408" y="375"/>
      <point x="485" y="393"/>
      <point x="539" y="405" type="curve"/>
    </contour>
    <contour>
      <point x="536" y="158" type="curve"/>
      <point x="539" y="207" type="line"/>
      <point x="485" y="219"/>
      <point x="409" y="237"/>
      <point x="328" y="256" type="curve" smooth="yes"/>
      <point x="227" y="279"/>
      <point x="118" y="305"/>
      <point x="37" y="324" type="curve"/>
      <point x="37" y="288" type="line"/>
      <point x="152" y="261"/>
      <point x="242" y="239"/>
      <point x="319" y="219" type="curve" smooth="yes"/>
      <point x="404" y="197"/>
      <point x="472" y="177"/>
    </contour>
  </outline>
</glyph>
<glyph name="equal" format="2">
  <advance width="580"/>
  <unicode hex="003D"/>
  <outline>
    <contour>
      <point x="109" y="203" type="line"/>
      <point x="129" y="204"/>
      <point x="255" y="205"/>
      <point x="286" y="205" type="curve" smooth="yes"/>
      <point x="317" y="205"/>
      <point x="448" y="204"/>
      <point x="471" y="203" type="curve"/>
      <point x="469" y="236" type="line"/>
      <point x="450" y="235"/>
      <point x="323" y="233"/>
      <point x="291" y="234" type="curve" smooth="yes"/>
      <point x="257" y="235"/>
      <point x="130" y="236"/>
      <point x="111" y="237" type="curve"/>
    </contour>
    <contour>
      <point x="109" y="333" type="line"/>
      <point x="129" y="334"/>
      <point x="255" y="335"/>
      <point x="286" y="335" type="curve" smooth="yes"/>
      <point x="317" y="335"/>
      <point x="448" y="334"/>
      <point x="471" y="333" type="curve"/>
      <point x="469" y="366" type="line"/>
      <point x="450" y="365"/>
      <point x="323" y="363"/>
      <point x="291" y="364" type="curve" smooth="yes"/>
      <point x="257" y="365"/>
      <point x="130" y="366"/>
      <point x="111" y="367" type="curve"/>
    </contour>
  </outline>
</glyph>
<glyph name="greater" format="2">
  <advance width="580"/>
  <unicode hex="003E"/>
  <outline>
    <contour>
      <point x="40" y="158" type="line"/>
      <point x="116" y="179"/>
      <point x="187" y="198"/>
      <point x="260" y="217" type="curve" smooth="yes"/>
      <point x="345" y="239"/>
      <point x="434" y="261"/>
      <point x="539" y="288" type="curve"/>
      <point x="539" y="324" type="line"/>
      <point x="460" y="305"/>
      <point x="351" y="279"/>
      <point x="248" y="255" type="curve" smooth="yes"/>
      <point x="168" y="237"/>
      <point x="91" y="219"/>
      <point x="37" y="207" type="curve"/>
    </contour>
    <contour>
      <point x="40" y="454" type="curve"/>
      <point x="37" y="405" type="line"/>
      <point x="91" y="393"/>
      <point x="167" y="375"/>
      <point x="248" y="356" type="curve" smooth="yes"/>
      <point x="349" y="333"/>
      <point x="458" y="307"/>
      <point x="539" y="288" type="curve"/>
      <point x="539" y="324" type="line"/>
      <point x="424" y="351"/>
      <point x="334" y="373"/>
      <point x="257" y="393" type="curve" smooth="yes"/>
      <point x="172" y="415"/>
      <point x="104" y="435"/>
    </contour>
  </outline>
</glyph>
<glyph name="question" format="2">
  <advance width="666"/>
  <unicode hex="003F"/>
  <outline>
    <contour>
      <point x="345" y="216" type="line"/>
      <point x="343" y="231"/>
      <point x="341" y="245"/>
      <point x="341" y="259" type="curve" smooth="yes"/>
      <point x="341" y="307"/>
      <point x="377" y="336"/>
      <point x="418" y="368" type="curve" smooth="yes"/>
      <point x="467" y="409"/>
      <point x="523" y="455"/>
      <point x="523" y="551" type="curve" smooth="yes"/>
      <point x="523" y="627"/>
      <point x="483" y="715"/>
      <point x="337" y="715" type="curve" smooth="yes"/>
      <point x="203" y="715"/>
      <point x="143" y="632"/>
      <point x="143" y="533" type="curve" smooth="yes"/>
      <point x="143" y="510"/>
      <point x="146" y="487"/>
      <point x="152" y="463" type="curve"/>
      <point x="185" y="462" type="line"/>
      <point x="179" y="485"/>
      <point x="176" y="507"/>
      <point x="176" y="530" type="curve" smooth="yes"/>
      <point x="176" y="612"/>
      <point x="221" y="684"/>
      <point x="335" y="684" type="curve" smooth="yes"/>
      <point x="460" y="684"/>
      <point x="487" y="616"/>
      <point x="487" y="548" type="curve" smooth="yes"/>
      <point x="487" y="468"/>
      <point x="444" y="427"/>
      <point x="400" y="392" type="curve" smooth="yes"/>
      <point x="354" y="355"/>
      <point x="307" y="325"/>
      <point x="307" y="264" type="curve" smooth="yes"/>
      <point x="307" y="250"/>
      <point x="308" y="234"/>
      <point x="310" y="217" type="curve"/>
    </contour>
    <contour>
      <point x="355" y="-2" type="line"/>
      <point x="348" y="94" type="line"/>
      <point x="311" y="92" type="line"/>
      <point x="310" y="-1" type="line"/>
    </contour>
  </outline>
</glyph>
<glyph name="at" format="2">
  <advance width="1058"/>
  <unicode hex="0040"/>
  <outline>
    <contour>
      <point x="517" y="-183" type="curve" smooth="yes"/>
      <point x="615" y="-183"/>
      <point x="719" y="-162"/>
      <point x="821" y="-120" type="curve"/>
      <point x="808" y="-94" type="line"/>
      <point x="716" y="-132"/>
      <point x="613" y="-152"/>
      <point x="515" y="-152" type="curve" smooth="yes"/>
      <point x="278" y="-152"/>
      <point x="120" y="-20"/>
      <point x="120" y="247" type="curve" smooth="yes"/>
      <point x="120" y="459"/>
      <point x="248" y="696"/>
      <point x="548" y="696" type="curve" smooth="yes"/>
      <point x="848" y="696"/>
      <point x="937" y="512"/>
      <point x="937" y="344" type="curve" smooth="yes"/>
      <point x="937" y="182"/>
      <point x="854" y="21"/>
      <point x="728" y="21" type="curve" smooth="yes"/>
      <point x="678" y="21"/>
      <point x="663" y="53"/>
      <point x="663" y="107" type="curve" smooth="yes"/>
      <point x="663" y="175"/>
      <point x="701" y="412"/>
      <point x="721" y="555" type="curve"/>
      <point x="683" y="548" type="line"/>
      <point x="673" y="473" type="line"/>
      <point x="650" y="527"/>
      <point x="605" y="560"/>
      <point x="536" y="560" type="curve" smooth="yes"/>
      <point x="417" y="560"/>
      <point x="294" y="460"/>
      <point x="294" y="186" type="curve" smooth="yes"/>
      <point x="294" y="72"/>
      <point x="337" y="-9"/>
      <point x="449" y="-9" type="curve" smooth="yes"/>
      <point x="543" y="-9"/>
      <point x="599" y="50"/>
      <point x="630" y="107" type="curve"/>
      <point x="631" y="36"/>
      <point x="658" y="-10"/>
      <point x="723" y="-10" type="curve" smooth="yes"/>
      <point x="881" y="-10"/>
      <point x="969" y="169"/>
      <point x="969" y="349" type="curve" smooth="yes"/>
      <point x="969" y="532"/>
      <point x="861" y="727"/>
      <point x="550" y="727" type="curve" smooth="yes"/>
      <point x="227" y="727"/>
      <point x="88" y="479"/>
      <point x="88" y="245" type="curve" smooth="yes"/>
      <point x="88" y="-37"/>
      <point x="267" y="-183"/>
    </contour>
    <contour>
      <point x="452" y="22" type="curve" smooth="yes"/>
      <point x="356" y="22"/>
      <point x="327" y="101"/>
      <point x="327" y="187" type="curve" smooth="yes"/>
      <point x="327" y="429"/>
      <point x="433" y="529"/>
      <point x="534" y="529" type="curve" smooth="yes"/>
      <point x="625" y="529"/>
      <point x="667" y="457"/>
      <point x="657" y="346" type="curve" smooth="yes"/>
      <point x="644" y="242" type="line" smooth="yes"/>
      <point x="628" y="112"/>
      <point x="553" y="22"/>
    </contour>
  </outline>
</glyph>
<glyph name="A" format="2">
  <advance width="554"/>
  <unicode hex="0041"/>
  <anchor x="269" y="0" name="bottom"/>
  <anchor x="526" y="8" name="ogonek"/>
  <anchor x="273" y="693" name="top"/>
  <outline>
    <contour>
      <point x="485" y="-3" type="curve"/>
      <point x="521" y="0" type="line"/>
      <point x="491" y="94"/>
      <point x="452" y="221"/>
      <point x="412" y="348" type="curve" smooth="yes"/>
      <point x="371" y="479"/>
      <point x="331" y="610"/>
      <point x="302" y="706" type="curve"/>
      <point x="245" y="704" type="line"/>
      <point x="274" y="682" type="line"/>
      <point x="301" y="598"/>
      <point x="343" y="466"/>
      <point x="382" y="339" type="curve" smooth="yes"/>
      <point x="427" y="191"/>
      <point x="470" y="49"/>
    </contour>
    <contour>
      <point x="106" y="180" type="line"/>
      <point x="442" y="184" type="line"/>
      <point x="442" y="213" type="line"/>
      <point x="106" y="217" type="line"/>
    </contour>
    <contour>
      <point x="70" y="6" type="line"/>
      <point x="89" y="73"/>
      <point x="131" y="212"/>
      <point x="171" y="348" type="curve" smooth="yes"/>
      <point x="215" y="498"/>
      <point x="261" y="645"/>
      <point x="275" y="688" type="curve"/>
      <point x="302" y="706" type="line"/>
      <point x="245" y="704" type="line"/>
      <point x="224" y="632"/>
      <point x="182" y="490"/>
      <point x="138" y="347" type="curve" smooth="yes"/>
      <point x="98" y="218"/>
      <point x="59" y="88"/>
      <point x="33" y="7" type="curve"/>
    </contour>
  </outline>
</glyph>
<glyph name="B" format="2">
  <advance width="562"/>
  <unicode hex="0042"/>
  <outline>
    <contour>
      <point x="134" y="222" type="line"/>
      <point x="358" y="222"/>
      <point x="486" y="276"/>
      <point x="486" y="472" type="curve" smooth="yes"/>
      <point x="486" y="658"/>
      <point x="401" y="720"/>
      <point x="215" y="720" type="curve" smooth="yes"/>
      <point x="180" y="720"/>
      <point x="142" y="718"/>
      <point x="100" y="714" type="curve"/>
      <point x="114" y="676" type="line"/>
      <point x="160" y="682"/>
      <point x="200" y="685"/>
      <point x="236" y="685" type="curve" smooth="yes"/>
      <point x="385" y="685"/>
      <point x="450" y="627"/>
      <point x="450" y="469" type="curve" smooth="yes"/>
      <point x="450" y="303"/>
      <point x="345" y="249"/>
      <point x="130" y="249" type="curve"/>
    </contour>
    <contour>
      <point x="230" y="-10" type="curve" smooth="yes"/>
      <point x="383" y="-10"/>
      <point x="496" y="18"/>
      <point x="496" y="124" type="curve" smooth="yes"/>
      <point x="496" y="217"/>
      <point x="373" y="252"/>
      <point x="130" y="249" type="curve"/>
      <point x="134" y="217" type="line"/>
      <point x="158" y="218"/>
      <point x="181" y="219"/>
      <point x="204" y="219" type="curve" smooth="yes"/>
      <point x="344" y="219"/>
      <point x="460" y="197"/>
      <point x="460" y="126" type="curve" smooth="yes"/>
      <point x="460" y="48"/>
      <point x="375" y="23"/>
      <point x="256" y="23" type="curve" smooth="yes"/>
      <point x="215" y="23"/>
      <point x="169" y="26"/>
      <point x="122" y="31" type="curve"/>
      <point x="103" y="-5" type="line"/>
      <point x="147" y="-8"/>
      <point x="190" y="-10"/>
    </contour>
    <contour>
      <point x="103" y="-5" type="curve"/>
      <point x="145" y="1" type="line"/>
      <point x="145" y="1"/>
      <point x="141" y="234"/>
      <point x="141" y="350" type="curve"/>
      <point x="141" y="466"/>
      <point x="144" y="704"/>
      <point x="144" y="704" type="curve"/>
      <point x="100" y="714" type="line"/>
      <point x="100" y="714"/>
      <point x="107" y="523"/>
      <point x="107" y="352" type="curve"/>
      <point x="107" y="180"/>
      <point x="103" y="-5"/>
    </contour>
  </outline>
</glyph>
<glyph name="C" format="2">
  <advance width="518"/>
  <unicode hex="0043"/>
  <anchor x="267" y="0" name="bottom"/>
  <anchor x="272" y="693" name="top"/>
  <outline>
    <contour>
      <point x="272" y="-10" type="curve" smooth="yes"/>
      <point x="413" y="-10"/>
      <point x="469" y="66"/>
      <point x="469" y="161" type="curve" smooth="yes"/>
      <point x="469" y="173"/>
      <point x="468" y="186"/>
      <point x="466" y="199" type="curve"/>
      <point x="432" y="199" type="line"/>
      <point x="434" y="186"/>
      <point x="435" y="174"/>
      <point x="435" y="161" type="curve" smooth="yes"/>
      <point x="435" y="83"/>
      <point x="395" y="23"/>
      <point x="271" y="23" type="curve" smooth="yes"/>
      <point x="191" y="23"/>
      <point x="145" y="65"/>
      <point x="119" y="130" type="curve" smooth="yes"/>
      <point x="97" y="186"/>
      <point x="90" y="260"/>
      <point x="90" y="337" type="curve" smooth="yes"/>
      <point x="90" y="406"/>
      <point x="97" y="474"/>
      <point x="115" y="532" type="curve" smooth="yes"/>
      <point x="141" y="613"/>
      <point x="191" y="670"/>
      <point x="279" y="670" type="curve" smooth="yes"/>
      <point x="399" y="670"/>
      <point x="443" y="589"/>
      <point x="443" y="463" type="curve" smooth="yes"/>
      <point x="443" y="428"/>
      <point x="440" y="390"/>
      <point x="434" y="350" type="curve"/>
      <point x="469" y="350" type="line"/>
      <point x="476" y="392"/>
      <point x="480" y="432"/>
      <point x="480" y="468" type="curve" smooth="yes"/>
      <point x="480" y="607"/>
      <point x="425" y="701"/>
      <point x="284" y="701" type="curve" smooth="yes"/>
      <point x="177" y="701"/>
      <point x="115" y="641"/>
      <point x="83" y="554" type="curve" smooth="yes"/>
      <point x="61" y="496"/>
      <point x="53" y="425"/>
      <point x="53" y="352" type="curve" smooth="yes"/>
      <point x="53" y="267"/>
      <point x="60" y="185"/>
      <point x="85" y="120" type="curve" smooth="yes"/>
      <point x="115" y="42"/>
      <point x="171" y="-10"/>
    </contour>
  </outline>
</glyph>
<glyph name="D" format="2">
  <advance width="561"/>
  <unicode hex="0044"/>
  <anchor x="164" y="348" name="center"/>
  <anchor x="284" y="693" name="top"/>
  <outline>
    <contour>
      <point x="199" y="-11" type="curve" smooth="yes"/>
      <point x="435" y="-11"/>
      <point x="511" y="95"/>
      <point x="511" y="361" type="curve" smooth="yes"/>
      <point x="511" y="622"/>
      <point x="440" y="709"/>
      <point x="196" y="709" type="curve" smooth="yes"/>
      <point x="162" y="709"/>
      <point x="125" y="707"/>
      <point x="84" y="704" type="curve"/>
      <point x="98" y="668" type="line"/>
      <point x="143" y="672"/>
      <point x="183" y="674"/>
      <point x="218" y="674" type="curve" smooth="yes"/>
      <point x="419" y="674"/>
      <point x="475" y="598"/>
      <point x="475" y="364" type="curve" smooth="yes"/>
      <point x="475" y="138"/>
      <point x="431" y="21"/>
      <point x="219" y="21" type="curve" smooth="yes"/>
      <point x="186" y="21"/>
      <point x="150" y="24"/>
      <point x="109" y="29" type="curve"/>
      <point x="87" y="-5" type="line"/>
      <point x="128" y="-9"/>
      <point x="165" y="-11"/>
    </contour>
    <contour>
      <point x="87" y="-5" type="curve"/>
      <point x="129" y="-4" type="line"/>
      <point x="128" y="17"/>
      <point x="125" y="226"/>
      <point x="125" y="348" type="curve" smooth="yes"/>
      <point x="125" y="421"/>
      <point x="127" y="652"/>
      <point x="128" y="702" type="curve"/>
      <point x="84" y="704" type="line"/>
      <point x="87" y="626"/>
      <point x="91" y="477"/>
      <point x="91" y="352" type="curve"/>
      <point x="91" y="227"/>
      <point x="89" y="75"/>
    </contour>
  </outline>
</glyph>
<glyph name="E" format="2">
  <advance width="510"/>
  <unicode hex="0045"/>
  <anchor x="258" y="0" name="bottom"/>
  <anchor x="375" y="5" name="ogonek"/>
  <anchor x="263" y="693" name="top"/>
  <outline>
    <contour>
      <point x="92" y="-5" type="curve"/>
      <point x="134" y="1" type="line"/>
      <point x="134" y="1"/>
      <point x="130" y="234"/>
      <point x="130" y="350" type="curve"/>
      <point x="130" y="466"/>
      <point x="133" y="687"/>
      <point x="133" y="687" type="curve"/>
      <point x="89" y="699" type="line"/>
      <point x="89" y="699"/>
      <point x="96" y="523"/>
      <point x="96" y="352" type="curve"/>
      <point x="96" y="181"/>
      <point x="92" y="-5"/>
    </contour>
    <contour>
      <point x="92" y="-5" type="line"/>
      <point x="431" y="0" type="line"/>
      <point x="431" y="26" type="line"/>
      <point x="127" y="31" type="line"/>
    </contour>
    <contour>
      <point x="111" y="216" type="line"/>
      <point x="424" y="220" type="line"/>
      <point x="426" y="249" type="line"/>
      <point x="111" y="252" type="line"/>
    </contour>
    <contour>
      <point x="117" y="661" type="line"/>
      <point x="421" y="662" type="line"/>
      <point x="421" y="693" type="line"/>
      <point x="89" y="699" type="line"/>
    </contour>
  </outline>
</glyph>
<glyph name="F" format="2">
  <advance width="460"/>
  <unicode hex="0046"/>
  <outline>
    <contour>
      <point x="88" y="-5" type="curve"/>
      <point x="129" y="1" type="line"/>
      <point x="129" y="1"/>
      <point x="125" y="234"/>
      <point x="125" y="350" type="curve"/>
      <point x="125" y="466"/>
      <point x="128" y="693"/>
      <point x="128" y="693" type="curve"/>
      <point x="85" y="705" type="line"/>
      <point x="85" y="705"/>
      <point x="92" y="523"/>
      <point x="92" y="352" type="curve"/>
      <point x="92" y="181"/>
      <point x="88" y="-5"/>
    </contour>
    <contour>
      <point x="107" y="255" type="line"/>
      <point x="403" y="259" type="line"/>
      <point x="402" y="289" type="line"/>
      <point x="107" y="292" type="line"/>
    </contour>
    <contour>
      <point x="113" y="668" type="line"/>
      <point x="400" y="669" type="line"/>
      <point x="402" y="699" type="line"/>
      <point x="85" y="705" type="line"/>
    </contour>
  </outline>
</glyph>
<glyph name="G" format="2">
  <advance width="527"/>
  <unicode hex="0047"/>
  <anchor x="277" y="0" name="bottom"/>
  <anchor x="275" y="693" name="top"/>
  <outline>
    <contour>
      <point x="53" y="361" type="curve" smooth="yes"/>
      <point x="53" y="273"/>
      <point x="60" y="189"/>
      <point x="85" y="123" type="curve" smooth="yes"/>
      <point x="115" y="43"/>
      <point x="169" y="-10"/>
      <point x="268" y="-10" type="curve" smooth="yes"/>
      <point x="351" y="-10"/>
      <point x="408" y="15"/>
      <point x="441" y="71" type="curve"/>
      <point x="447" y="0" type="line"/>
      <point x="468" y="0" type="line"/>
      <point x="464" y="258" type="line"/>
      <point x="286" y="258" type="line"/>
      <point x="286" y="229" type="line"/>
      <point x="431" y="233" type="line"/>
      <point x="433" y="215"/>
      <point x="434" y="198"/>
      <point x="434" y="182" type="curve" smooth="yes"/>
      <point x="434" y="85"/>
      <point x="400" y="23"/>
      <point x="271" y="23" type="curve" smooth="yes"/>
      <point x="187" y="23"/>
      <point x="141" y="70"/>
      <point x="116" y="140" type="curve" smooth="yes"/>
      <point x="95" y="198"/>
      <point x="90" y="273"/>
      <point x="90" y="350" type="curve" smooth="yes"/>
      <point x="90" y="415"/>
      <point x="97" y="485"/>
      <point x="117" y="545" type="curve" smooth="yes"/>
      <point x="143" y="623"/>
      <point x="193" y="682"/>
      <point x="279" y="682" type="curve" smooth="yes"/>
      <point x="404" y="682"/>
      <point x="441" y="600"/>
      <point x="441" y="483" type="curve" smooth="yes"/>
      <point x="441" y="454"/>
      <point x="439" y="422"/>
      <point x="435" y="389" type="curve"/>
      <point x="470" y="389" type="line"/>
      <point x="475" y="423"/>
      <point x="478" y="456"/>
      <point x="478" y="487" type="curve" smooth="yes"/>
      <point x="478" y="615"/>
      <point x="429" y="713"/>
      <point x="284" y="713" type="curve" smooth="yes"/>
      <point x="179" y="713"/>
      <point x="118" y="651"/>
      <point x="85" y="565" type="curve" smooth="yes"/>
      <point x="62" y="505"/>
      <point x="53" y="433"/>
    </contour>
  </outline>
</glyph>
<glyph name="H" format="2">
  <advance width="613"/>
  <unicode hex="0048"/>
  <anchor x="307" y="0" name="bottom"/>
  <anchor x="306" y="459" name="center"/>
  <anchor x="306" y="693" name="top"/>
  <outline>
    <contour>
      <point x="482" y="-2" type="curve"/>
      <point x="524" y="-2" type="line"/>
      <point x="524" y="-2"/>
      <point x="519" y="210"/>
      <point x="519" y="381" type="curve"/>
      <point x="519" y="552"/>
      <point x="524" y="707"/>
      <point x="524" y="707" type="curve"/>
      <point x="481" y="705" type="line"/>
      <point x="481" y="705"/>
      <point x="484" y="496"/>
      <point x="484" y="379" type="curve"/>
      <point x="484" y="262"/>
      <point x="482" y="-2"/>
    </contour>
    <contour>
      <point x="114" y="249" type="line"/>
      <point x="114" y="217" type="line"/>
      <point x="494" y="217" type="line"/>
      <point x="493" y="254" type="line"/>
    </contour>
    <contour>
      <point x="93" y="0" type="curve"/>
      <point x="137" y="1" type="line"/>
      <point x="137" y="1"/>
      <point x="132" y="234"/>
      <point x="132" y="350" type="curve"/>
      <point x="132" y="466"/>
      <point x="136" y="697"/>
      <point x="136" y="697" type="curve"/>
      <point x="89" y="695" type="line"/>
      <point x="89" y="695"/>
      <point x="98" y="523"/>
      <point x="98" y="352" type="curve"/>
      <point x="98" y="181"/>
      <point x="93" y="0"/>
    </contour>
  </outline>
</glyph>
<glyph name="I" format="2">
  <advance width="255"/>
  <unicode hex="0049"/>
  <anchor x="124" y="0" name="bottom"/>
  <anchor x="150" y="3" name="ogonek"/>
  <anchor x="128" y="693" name="top"/>
  <outline>
    <contour>
      <point x="106" y="700" type="line"/>
      <point x="109" y="644"/>
      <point x="110" y="474"/>
      <point x="109" y="379" type="curve"/>
      <point x="109" y="263"/>
      <point x="107" y="-2"/>
      <point x="107" y="-2" type="curve"/>
      <point x="148" y="-2" type="line"/>
      <point x="148" y="-2"/>
      <point x="144" y="210"/>
      <point x="144" y="381" type="curve"/>
      <point x="144" y="552"/>
      <point x="148" y="702"/>
      <point x="148" y="702" type="curve"/>
    </contour>
  </outline>
</glyph>
<glyph name="J" format="2">
  <advance width="505"/>
  <unicode hex="004A"/>
  <anchor x="395" y="693" name="top"/>
  <outline>
    <contour>
      <point x="234" y="-10" type="curve"/>
      <point x="403" y="-10"/>
      <point x="414" y="147"/>
      <point x="414" y="258" type="curve" smooth="yes"/>
      <point x="414" y="328"/>
      <point x="414" y="384"/>
      <point x="414" y="452" type="curve"/>
      <point x="414" y="542"/>
      <point x="414" y="607"/>
      <point x="416" y="700" type="curve"/>
      <point x="373" y="698" type="line"/>
      <point x="377" y="611"/>
      <point x="379" y="514"/>
      <point x="379" y="446" type="curve"/>
      <point x="379" y="421"/>
      <point x="379" y="270"/>
      <point x="379" y="243" type="curve" smooth="yes"/>
      <point x="379" y="142"/>
      <point x="361" y="21"/>
      <point x="239" y="21" type="curve"/>
      <point x="127" y="21"/>
      <point x="98" y="103"/>
      <point x="98" y="206" type="curve" smooth="yes"/>
      <point x="98" y="235"/>
      <point x="100" y="266"/>
      <point x="104" y="298" type="curve"/>
      <point x="68" y="299" type="line"/>
      <point x="65" y="267"/>
      <point x="63" y="235"/>
      <point x="63" y="205" type="curve" smooth="yes"/>
      <point x="63" y="86"/>
      <point x="95" y="-10"/>
    </contour>
  </outline>
</glyph>
<glyph name="K" format="2">
  <advance width="527"/>
  <unicode hex="004B"/>
  <anchor x="278" y="0" name="bottom"/>
  <outline>
    <contour>
      <point x="436" y="1" type="curve"/>
      <point x="490" y="5" type="line"/>
      <point x="373" y="100"/>
      <point x="219" y="227"/>
      <point x="136" y="296" type="curve"/>
      <point x="226" y="400"/>
      <point x="405" y="605"/>
      <point x="492" y="704" type="curve"/>
      <point x="443" y="702" type="line"/>
      <point x="366" y="609"/>
      <point x="217" y="434"/>
      <point x="92" y="289" type="curve"/>
      <point x="202" y="198"/>
      <point x="333" y="89"/>
    </contour>
    <contour>
      <point x="73" y="0" type="curve"/>
      <point x="116" y="1" type="line"/>
      <point x="116" y="1"/>
      <point x="112" y="234"/>
      <point x="112" y="350" type="curve"/>
      <point x="112" y="466"/>
      <point x="115" y="697"/>
      <point x="115" y="697" type="curve"/>
      <point x="70" y="699" type="line"/>
      <point x="70" y="699"/>
      <point x="77" y="523"/>
      <point x="77" y="352" type="curve"/>
      <point x="77" y="181"/>
      <point x="73" y="0"/>
    </contour>
  </outline>
</glyph>
<glyph name="L" format="2">
  <advance width="450"/>
  <unicode hex="004C"/>
  <anchor x="272" y="0" name="bottom"/>
  <anchor x="187" y="367" name="center"/>
  <anchor x="151" y="693" name="top"/>
  <anchor x="296" y="487" name="topright"/>
  <outline>
    <contour>
      <point x="92" y="-5" type="curve"/>
      <point x="134" y="1" type="line"/>
      <point x="134" y="1"/>
      <point x="130" y="234"/>
      <point x="130" y="350" type="curve"/>
      <point x="130" y="466"/>
      <point x="133" y="704"/>
      <point x="133" y="704" type="curve"/>
      <point x="89" y="700" type="line"/>
      <point x="89" y="700"/>
      <point x="96" y="523"/>
      <point x="96" y="352" type="curve"/>
      <point x="96" y="181"/>
      <point x="92" y="-5"/>
    </contour>
    <contour>
      <point x="92" y="-5" type="line"/>
      <point x="431" y="0" type="line"/>
      <point x="431" y="28" type="line"/>
      <point x="127" y="31" type="line"/>
    </contour>
  </outline>
</glyph>
<glyph name="M" format="2">
  <advance width="819"/>
  <unicode hex="004D"/>
  <outline>
    <contour>
      <point x="103" y="-1" type="curve"/>
      <point x="144" y="-1" type="line"/>
      <point x="143" y="52"/>
      <point x="142" y="201"/>
      <point x="141" y="345" type="curve" smooth="yes"/>
      <point x="140" y="472"/>
      <point x="139" y="596"/>
      <point x="139" y="646" type="curve"/>
      <point x="161" y="596"/>
      <point x="212" y="470"/>
      <point x="262" y="343" type="curve" smooth="yes"/>
      <point x="314" y="211"/>
      <point x="366" y="78"/>
      <point x="386" y="26" type="curve"/>
      <point x="426" y="23" type="line"/>
      <point x="442" y="67"/>
      <point x="499" y="212"/>
      <point x="555" y="353" type="curve" smooth="yes"/>
      <point x="606" y="482"/>
      <point x="657" y="607"/>
      <point x="675" y="648" type="curve"/>
      <point x="676" y="588"/>
      <point x="676" y="466"/>
      <point x="676" y="338" type="curve" smooth="yes"/>
      <point x="676" y="214"/>
      <point x="675" y="84"/>
      <point x="675" y="0" type="curve"/>
      <point x="716" y="-1" type="line"/>
      <point x="715" y="78"/>
      <point x="714" y="209"/>
      <point x="714" y="341" type="curve" smooth="yes"/>
      <point x="713" y="474"/>
      <point x="714" y="609"/>
      <point x="715" y="697" type="curve"/>
      <point x="654" y="697" type="line"/>
      <point x="606" y="571"/>
      <point x="561" y="457"/>
      <point x="518" y="348" type="curve" smooth="yes"/>
      <point x="480" y="254"/>
      <point x="444" y="164"/>
      <point x="407" y="74" type="curve"/>
      <point x="390" y="114"/>
      <point x="344" y="227"/>
      <point x="295" y="348" type="curve" smooth="yes"/>
      <point x="234" y="499"/>
      <point x="170" y="662"/>
      <point x="154" y="704" type="curve"/>
      <point x="104" y="702" type="line"/>
      <point x="106" y="638"/>
      <point x="106" y="489"/>
      <point x="106" y="341" type="curve" smooth="yes"/>
      <point x="105" y="203"/>
      <point x="104" y="65"/>
    </contour>
  </outline>
</glyph>
<glyph name="N" format="2">
  <advance width="615"/>
  <unicode hex="004E"/>
  <anchor x="311" y="0" name="bottom"/>
  <anchor x="314" y="693" name="top"/>
  <outline>
    <contour>
      <point x="92" y="704" type="line"/>
      <point x="95" y="636"/>
      <point x="96" y="494"/>
      <point x="97" y="351" type="curve" smooth="yes"/>
      <point x="97" y="213"/>
      <point x="96" y="75"/>
      <point x="95" y="1" type="curve"/>
      <point x="135" y="0" type="line"/>
      <point x="134" y="53"/>
      <point x="132" y="210"/>
      <point x="131" y="360" type="curve" smooth="yes"/>
      <point x="130" y="475"/>
      <point x="131" y="585"/>
      <point x="131" y="641" type="curve"/>
      <point x="163" y="586"/>
      <point x="225" y="470"/>
      <point x="293" y="345" type="curve" smooth="yes"/>
      <point x="360" y="222"/>
      <point x="425" y="91"/>
      <point x="474" y="-1" type="curve"/>
      <point x="521" y="3" type="line"/>
      <point x="519" y="87"/>
      <point x="519" y="243"/>
      <point x="519" y="391" type="curve" smooth="yes"/>
      <point x="519" y="526"/>
      <point x="521" y="655"/>
      <point x="523" y="715" type="curve"/>
      <point x="480" y="715" type="line"/>
      <point x="481" y="669"/>
      <point x="483" y="533"/>
      <point x="484" y="392" type="curve" smooth="yes"/>
      <point x="485" y="265"/>
      <point x="484" y="134"/>
      <point x="484" y="59" type="curve"/>
      <point x="459" y="105"/>
      <point x="391" y="235"/>
      <point x="318" y="369" type="curve" smooth="yes"/>
      <point x="243" y="507"/>
      <point x="172" y="648"/>
      <point x="143" y="704" type="curve"/>
    </contour>
  </outline>
</glyph>
<glyph name="P" format="2">
  <advance width="519"/>
  <unicode hex="0050"/>
  <outline>
    <contour>
      <point x="123" y="220" type="line"/>
      <point x="348" y="220"/>
      <point x="471" y="294"/>
      <point x="471" y="472" type="curve" smooth="yes"/>
      <point x="471" y="660"/>
      <point x="393" y="713"/>
      <point x="203" y="713" type="curve" smooth="yes"/>
      <point x="169" y="713"/>
      <point x="131" y="711"/>
      <point x="89" y="708" type="curve"/>
      <point x="103" y="670" type="line"/>
      <point x="148" y="676"/>
      <point x="188" y="679"/>
      <point x="223" y="679" type="curve" smooth="yes"/>
      <point x="371" y="679"/>
      <point x="435" y="621"/>
      <point x="435" y="469" type="curve" smooth="yes"/>
      <point x="435" y="323"/>
      <point x="335" y="246"/>
      <point x="119" y="254" type="curve"/>
    </contour>
    <contour>
      <point x="92" y="-2" type="curve"/>
      <point x="134" y="1" type="line"/>
      <point x="132" y="101"/>
      <point x="130" y="265"/>
      <point x="130" y="350" type="curve"/>
      <point x="130" y="385"/>
      <point x="132" y="662"/>
      <point x="133" y="698" type="curve"/>
      <point x="89" y="708" type="line"/>
      <point x="92" y="628"/>
      <point x="96" y="477"/>
      <point x="96" y="352" type="curve"/>
      <point x="96" y="227"/>
      <point x="94" y="77"/>
    </contour>
  </outline>
</glyph>
<glyph name="Q" format="2">
  <advance width="555"/>
  <unicode hex="0051"/>
  <outline>
    <contour>
      <point x="273" y="-2" type="curve" smooth="yes"/>
      <point x="363" y="-2"/>
      <point x="419" y="40"/>
      <point x="453" y="103" type="curve" smooth="yes"/>
      <point x="491" y="173"/>
      <point x="502" y="267"/>
      <point x="502" y="359" type="curve" smooth="yes"/>
      <point x="502" y="420"/>
      <point x="497" y="484"/>
      <point x="482" y="540" type="curve" smooth="yes"/>
      <point x="455" y="635"/>
      <point x="399" y="707"/>
      <point x="287" y="707" type="curve" smooth="yes"/>
      <point x="175" y="707"/>
      <point x="113" y="640"/>
      <point x="81" y="549" type="curve" smooth="yes"/>
      <point x="61" y="492"/>
      <point x="53" y="425"/>
      <point x="53" y="360" type="curve" smooth="yes"/>
      <point x="53" y="272"/>
      <point x="60" y="185"/>
      <point x="88" y="119" type="curve" smooth="yes"/>
      <point x="118" y="46"/>
      <point x="174" y="-2"/>
    </contour>
    <contour>
      <point x="274" y="31" type="curve" smooth="yes"/>
      <point x="189" y="31"/>
      <point x="142" y="71"/>
      <point x="117" y="134" type="curve" smooth="yes"/>
      <point x="95" y="192"/>
      <point x="90" y="267"/>
      <point x="90" y="348" type="curve" smooth="yes"/>
      <point x="90" y="414"/>
      <point x="96" y="480"/>
      <point x="115" y="536" type="curve" smooth="yes"/>
      <point x="141" y="617"/>
      <point x="191" y="676"/>
      <point x="283" y="676" type="curve" smooth="yes"/>
      <point x="381" y="676"/>
      <point x="427" y="617"/>
      <point x="448" y="530" type="curve" smooth="yes"/>
      <point x="459" y="481"/>
      <point x="463" y="424"/>
      <point x="463" y="363" type="curve" smooth="yes"/>
      <point x="463" y="276"/>
      <point x="456" y="187"/>
      <point x="425" y="124" type="curve" smooth="yes"/>
      <point x="398" y="68"/>
      <point x="351" y="31"/>
    </contour>
    <contour>
      <point x="498" y="-77" type="line"/>
      <point x="523" y="-50" type="line"/>
      <point x="280" y="130" type="line"/>
      <point x="265" y="113" type="line"/>
    </contour>
  </outline>
</glyph>
<glyph name="R" format="2">
  <advance width="559"/>
  <unicode hex="0052"/>
  <anchor x="295" y="0" name="bottom"/>
  <anchor x="279" y="693" name="top"/>
  <outline>
    <contour>
      <point x="132" y="230" type="line"/>
      <point x="357" y="230"/>
      <point x="480" y="304"/>
      <point x="480" y="472" type="curve" smooth="yes"/>
      <point x="480" y="660"/>
      <point x="402" y="713"/>
      <point x="212" y="713" type="curve" smooth="yes"/>
      <point x="178" y="713"/>
      <point x="140" y="711"/>
      <point x="98" y="708" type="curve"/>
      <point x="112" y="670" type="line"/>
      <point x="157" y="676"/>
      <point x="197" y="679"/>
      <point x="232" y="679" type="curve" smooth="yes"/>
      <point x="380" y="679"/>
      <point x="444" y="621"/>
      <point x="444" y="469" type="curve" smooth="yes"/>
      <point x="444" y="333"/>
      <point x="344" y="256"/>
      <point x="128" y="264" type="curve"/>
    </contour>
    <contour>
      <point x="101" y="-2" type="curve"/>
      <point x="143" y="1" type="line"/>
      <point x="141" y="101"/>
      <point x="139" y="265"/>
      <point x="139" y="350" type="curve"/>
      <point x="139" y="385"/>
      <point x="141" y="662"/>
      <point x="142" y="698" type="curve"/>
      <point x="98" y="708" type="line"/>
      <point x="101" y="628"/>
      <point x="105" y="477"/>
      <point x="105" y="352" type="curve"/>
      <point x="105" y="227"/>
      <point x="103" y="77"/>
    </contour>
    <contour>
      <point x="479" y="-6" type="curve"/>
      <point x="526" y="-3" type="line"/>
      <point x="454" y="93"/>
      <point x="390" y="194"/>
      <point x="337" y="283" type="curve"/>
      <point x="309" y="258" type="line"/>
      <point x="370" y="169"/>
      <point x="427" y="78"/>
    </contour>
  </outline>
</glyph>
<glyph name="S" format="2">
  <advance width="548"/>
  <unicode hex="0053"/>
  <anchor x="281" y="0" name="bottom"/>
  <anchor x="279" y="693" name="top"/>
  <outline>
    <contour>
      <point x="271" y="-10" type="curve" smooth="yes"/>
      <point x="416" y="-10"/>
      <point x="474" y="74"/>
      <point x="474" y="150" type="curve" smooth="yes"/>
      <point x="474" y="255"/>
      <point x="351" y="295"/>
      <point x="254" y="344" type="curve" smooth="yes"/>
      <point x="169" y="387"/>
      <point x="116" y="417"/>
      <point x="116" y="511" type="curve" smooth="yes"/>
      <point x="116" y="601"/>
      <point x="158" y="673"/>
      <point x="280" y="673" type="curve" smooth="yes"/>
      <point x="406" y="673"/>
      <point x="440" y="596"/>
      <point x="440" y="499" type="curve" smooth="yes"/>
      <point x="440" y="476"/>
      <point x="438" y="452"/>
      <point x="435" y="428" type="curve"/>
      <point x="470" y="428" type="line"/>
      <point x="473" y="451"/>
      <point x="474" y="474"/>
      <point x="474" y="496" type="curve" smooth="yes"/>
      <point x="474" y="615"/>
      <point x="427" y="704"/>
      <point x="275" y="704" type="curve" smooth="yes"/>
      <point x="139" y="704"/>
      <point x="81" y="609"/>
      <point x="81" y="517" type="curve" smooth="yes"/>
      <point x="81" y="399"/>
      <point x="147" y="358"/>
      <point x="239" y="315" type="curve" smooth="yes"/>
      <point x="333" y="271"/>
      <point x="438" y="234"/>
      <point x="438" y="145" type="curve" smooth="yes"/>
      <point x="438" y="87"/>
      <point x="397" y="22"/>
      <point x="270" y="22" type="curve" smooth="yes"/>
      <point x="164" y="22"/>
      <point x="117" y="76"/>
      <point x="117" y="145" type="curve" smooth="yes"/>
      <point x="117" y="158"/>
      <point x="118" y="170"/>
      <point x="121" y="183" type="curve"/>
      <point x="86" y="183" type="line"/>
      <point x="84" y="171"/>
      <point x="83" y="158"/>
      <point x="83" y="147" type="curve" smooth="yes"/>
      <point x="83" y="57"/>
      <point x="138" y="-10"/>
    </contour>
  </outline>
</glyph>
<glyph name="V" format="2">
  <advance width="558"/>
  <unicode hex="0056"/>
  <outline>
    <contour>
      <point x="36" y="709" type="line"/>
      <point x="71" y="598"/>
      <point x="111" y="475"/>
      <point x="149" y="353" type="curve" smooth="yes"/>
      <point x="188" y="230"/>
      <point x="227" y="107"/>
      <point x="261" y="-5" type="curve"/>
      <point x="301" y="-6" type="line"/>
      <point x="327" y="81"/>
      <point x="369" y="218"/>
      <point x="410" y="350" type="curve" smooth="yes"/>
      <point x="457" y="501"/>
      <point x="503" y="646"/>
      <point x="522" y="702" type="curve"/>
      <point x="481" y="700" type="line"/>
      <point x="464" y="642"/>
      <point x="424" y="506"/>
      <point x="379" y="358" type="curve" smooth="yes"/>
      <point x="346" y="250"/>
      <point x="311" y="136"/>
      <point x="281" y="44" type="curve"/>
      <point x="252" y="133"/>
      <point x="218" y="242"/>
      <point x="185" y="347" type="curve" smooth="yes"/>
      <point x="139" y="497"/>
      <point x="97" y="640"/>
      <point x="77" y="709" type="curve"/>
    </contour>
  </outline>
</glyph>
<glyph name="W" format="2">
  <advance width="948"/>
  <unicode hex="0057"/>
  <anchor x="474" y="693" name="top"/>
  <outline>
    <contour>
      <point x="295" y="-6" type="line"/>
      <point x="313" y="61"/>
      <point x="356" y="202"/>
      <point x="398" y="342" type="curve" smooth="yes"/>
      <point x="425" y="431"/>
      <point x="452" y="530"/>
      <point x="473" y="599" type="curve"/>
      <point x="496" y="526"/>
      <point x="524" y="421"/>
      <point x="553" y="327" type="curve" smooth="yes"/>
      <point x="593" y="192"/>
      <point x="632" y="58"/>
      <point x="650" y="-6" type="curve"/>
      <point x="690" y="-5" type="line"/>
      <point x="708" y="53"/>
      <point x="754" y="205"/>
      <point x="800" y="356" type="curve" smooth="yes"/>
      <point x="846" y="507"/>
      <point x="892" y="656"/>
      <point x="908" y="709" type="curve"/>
      <point x="867" y="709" type="line"/>
      <point x="836" y="600"/>
      <point x="800" y="475"/>
      <point x="764" y="351" type="curve" smooth="yes"/>
      <point x="732" y="243"/>
      <point x="700" y="137"/>
      <point x="670" y="44" type="curve"/>
      <point x="651" y="107"/>
      <point x="618" y="216"/>
      <point x="584" y="331" type="curve" smooth="yes"/>
      <point x="550" y="445"/>
      <point x="515" y="565"/>
      <point x="491" y="653" type="curve"/>
      <point x="455" y="653" type="line"/>
      <point x="432" y="568"/>
      <point x="398" y="453"/>
      <point x="366" y="342" type="curve" smooth="yes"/>
      <point x="331" y="223"/>
      <point x="295" y="109"/>
      <point x="276" y="44" type="curve"/>
      <point x="245" y="138"/>
      <point x="213" y="243"/>
      <point x="182" y="348" type="curve" smooth="yes"/>
      <point x="146" y="466"/>
      <point x="112" y="586"/>
      <point x="81" y="694" type="curve"/>
      <point x="40" y="694" type="line"/>
      <point x="56" y="640"/>
      <point x="102" y="491"/>
      <point x="149" y="343" type="curve" smooth="yes"/>
      <point x="194" y="197"/>
      <point x="238" y="52"/>
      <point x="255" y="-5" type="curve"/>
    </contour>
  </outline>
</glyph>
<glyph name="X" format="2">
  <advance width="537"/>
  <unicode hex="0058"/>
  <outline>
    <contour>
      <point x="23" y="-1" type="curve"/>
      <point x="70" y="0" type="line"/>
      <point x="94" y="42"/>
      <point x="198" y="207"/>
      <point x="291" y="356" type="curve" smooth="yes"/>
      <point x="374" y="489"/>
      <point x="473" y="641"/>
      <point x="508" y="693" type="curve"/>
      <point x="462" y="694" type="line"/>
      <point x="437" y="651"/>
      <point x="340" y="495"/>
      <point x="252" y="354" type="curve" smooth="yes"/>
      <point x="166" y="215"/>
      <point x="59" y="55"/>
    </contour>
    <contour>
      <point x="468" y="-7" type="curve"/>
      <point x="514" y="-7" type="line"/>
      <point x="478" y="50"/>
      <point x="370" y="224"/>
      <point x="286" y="364" type="curve" smooth="yes"/>
      <point x="203" y="503"/>
      <point x="118" y="644"/>
      <point x="91" y="690" type="curve"/>
      <point x="46" y="691" type="line"/>
      <point x="80" y="638"/>
      <point x="175" y="486"/>
      <point x="256" y="353" type="curve" smooth="yes"/>
      <point x="345" y="207"/>
      <point x="444" y="38"/>
    </contour>
  </outline>
</glyph>
<glyph name="Y" format="2">
  <advance width="505"/>
  <unicode hex="0059"/>
  <anchor x="250" y="0" name="bottom"/>
  <anchor x="252" y="693" name="top"/>
  <outline>
    <contour>
      <point x="231" y="0" type="curve"/>
      <point x="270" y="1" type="line"/>
      <point x="269" y="43"/>
      <point x="267" y="143"/>
      <point x="264" y="222" type="curve"/>
      <point x="231" y="226" type="line"/>
      <point x="232" y="122"/>
      <point x="232" y="43"/>
    </contour>
    <contour>
      <point x="33" y="704" type="line"/>
      <point x="66" y="617"/>
      <point x="101" y="527"/>
      <point x="135" y="437" type="curve" smooth="yes"/>
      <point x="170" y="346"/>
      <point x="207" y="256"/>
      <point x="238" y="171" type="curve"/>
      <point x="259" y="174" type="line"/>
      <point x="291" y="257"/>
      <point x="328" y="345"/>
      <point x="365" y="436" type="curve" smooth="yes"/>
      <point x="399" y="521"/>
      <point x="436" y="608"/>
      <point x="473" y="697" type="curve"/>
      <point x="430" y="695" type="line"/>
      <point x="395" y="606"/>
      <point x="361" y="518"/>
      <point x="329" y="437" type="curve" smooth="yes"/>
      <point x="299" y="361"/>
      <point x="272" y="292"/>
      <point x="248" y="237" type="curve"/>
      <point x="227" y="292"/>
      <point x="200" y="363"/>
      <point x="171" y="441" type="curve" smooth="yes"/>
      <point x="141" y="523"/>
      <point x="108" y="614"/>
      <point x="76" y="704" type="curve"/>
    </contour>
  </outline>
</glyph>
<glyph name="Z" format="2">
  <advance width="449"/>
  <unicode hex="005A"/>
  <anchor x="232" y="693" name="top"/>
  <outline>
    <contour>
      <point x="44" y="693" type="curve"/>
      <point x="43" y="658" type="line"/>
      <point x="75" y="659"/>
      <point x="162" y="660"/>
      <point x="210" y="660" type="curve" smooth="yes"/>
      <point x="248" y="660"/>
      <point x="326" y="659"/>
      <point x="371" y="658" type="curve"/>
      <point x="328" y="580"/>
      <point x="264" y="462"/>
      <point x="195" y="338" type="curve" smooth="yes"/>
      <point x="138" y="234"/>
      <point x="79" y="126"/>
      <point x="26" y="33" type="curve"/>
      <point x="27" y="1" type="line"/>
      <point x="65" y="2"/>
      <point x="171" y="3"/>
      <point x="224" y="3" type="curve" smooth="yes"/>
      <point x="277" y="3"/>
      <point x="381" y="1"/>
      <point x="417" y="0" type="curve"/>
      <point x="421" y="38" type="line"/>
      <point x="386" y="37"/>
      <point x="294" y="36"/>
      <point x="245" y="35" type="curve" smooth="yes"/>
      <point x="206" y="34"/>
      <point x="117" y="35"/>
      <point x="66" y="35" type="curve"/>
      <point x="112" y="122"/>
      <point x="170" y="227"/>
      <point x="228" y="331" type="curve" smooth="yes"/>
      <point x="297" y="455"/>
      <point x="365" y="577"/>
      <point x="413" y="660" type="curve"/>
      <point x="413" y="695" type="line"/>
      <point x="380" y="694"/>
      <point x="287" y="693"/>
      <point x="233" y="692" type="curve" smooth="yes"/>
      <point x="180" y="691"/>
      <point x="79" y="692"/>
    </contour>
  </outline>
</glyph>
<glyph name="bracketleft" format="2">
  <advance width="527"/>
  <unicode hex="005B"/>
  <outline>
    <contour>
      <point x="129" y="-136" type="curve"/>
      <point x="165" y="-131" type="line"/>
      <point x="165" y="-70"/>
      <point x="165" y="196"/>
      <point x="165" y="315" type="curve" smooth="yes"/>
      <point x="165" y="434"/>
      <point x="165" y="635"/>
      <point x="165" y="681" type="curve"/>
      <point x="130" y="691" type="line"/>
      <point x="131" y="637"/>
      <point x="134" y="465"/>
      <point x="134" y="304" type="curve" smooth="yes"/>
      <point x="134" y="136"/>
      <point x="131" y="-78"/>
    </contour>
    <contour>
      <point x="129" y="-136" type="line"/>
      <point x="175" y="-134"/>
      <point x="367" y="-132"/>
      <point x="397" y="-131" type="curve"/>
      <point x="398" y="-103" type="line"/>
      <point x="369" y="-102"/>
      <point x="184" y="-101"/>
      <point x="143" y="-100" type="curve"/>
    </contour>
    <contour>
      <point x="152" y="659" type="line"/>
      <point x="190" y="660"/>
      <point x="370" y="661"/>
      <point x="398" y="661" type="curve"/>
      <point x="395" y="693" type="line"/>
      <point x="367" y="692"/>
      <point x="173" y="691"/>
      <point x="130" y="691" type="curve"/>
    </contour>
  </outline>
</glyph>
<glyph name="backslash" format="2">
  <advance width="382"/>
  <unicode hex="005C"/>
  <outline>
    <contour>
      <point x="342" y="0" type="line"/>
      <point x="296" y="105"/>
      <point x="242" y="238"/>
      <point x="195" y="365" type="curve" smooth="yes"/>
      <point x="148" y="491"/>
      <point x="104" y="612"/>
      <point x="75" y="695" type="curve"/>
      <point x="39" y="694" type="line"/>
      <point x="77" y="603"/>
      <point x="123" y="486"/>
      <point x="169" y="361" type="curve" smooth="yes"/>
      <point x="213" y="241"/>
      <point x="263" y="116"/>
      <point x="306" y="1" type="curve"/>
    </contour>
  </outline>
</glyph>
<glyph name="bracketright" format="2">
  <advance width="527"/>
  <unicode hex="005D"/>
  <outline>
    <contour>
      <point x="397" y="-134" type="line"/>
      <point x="396" y="-80"/>
      <point x="393" y="92"/>
      <point x="393" y="253" type="curve" smooth="yes"/>
      <point x="393" y="421"/>
      <point x="396" y="635"/>
      <point x="398" y="693" type="curve"/>
      <point x="362" y="688" type="line"/>
      <point x="362" y="627"/>
      <point x="362" y="361"/>
      <point x="362" y="242" type="curve" smooth="yes"/>
      <point x="362" y="123"/>
      <point x="362" y="-78"/>
      <point x="362" y="-124" type="curve"/>
    </contour>
    <contour>
      <point x="132" y="-136" type="line"/>
      <point x="160" y="-135"/>
      <point x="354" y="-134"/>
      <point x="397" y="-134" type="curve"/>
      <point x="375" y="-102" type="line"/>
      <point x="337" y="-103"/>
      <point x="157" y="-104"/>
      <point x="129" y="-104" type="curve"/>
    </contour>
    <contour>
      <point x="129" y="660" type="line"/>
      <point x="158" y="659"/>
      <point x="343" y="658"/>
      <point x="384" y="657" type="curve"/>
      <point x="398" y="693" type="line"/>
      <point x="352" y="691"/>
      <point x="160" y="689"/>
      <point x="130" y="688" type="curve"/>
    </contour>
  </outline>
</glyph>
<glyph name="underscore" format="2">
  <advance width="504"/>
  <unicode hex="005F"/>
  <outline>
    <contour>
      <point x="32" y="-94" type="line"/>
      <point x="32" y="-94"/>
      <point x="186" y="-91"/>
      <point x="253" y="-90" type="curve" smooth="yes"/>
      <point x="325" y="-89"/>
      <point x="472" y="-91"/>
      <point x="472" y="-91" type="curve"/>
      <point x="474" y="-64" type="line"/>
      <point x="474" y="-64"/>
      <point x="322" y="-67"/>
      <point x="247" y="-68" type="curve" smooth="yes"/>
      <point x="173" y="-69"/>
      <point x="30" y="-66"/>
      <point x="30" y="-66" type="curve"/>
    </contour>
  </outline>
</glyph>
<glyph name="grave" format="2">
  <advance width="189"/>
  <unicode hex="0060"/>
  <anchor x="108" y="555" name="_top"/>
  <outline>
    <contour>
      <point x="168" y="625" type="curve"/>
      <point x="180" y="644" type="line"/>
      <point x="159" y="654"/>
      <point x="132" y="668"/>
      <point x="106" y="682" type="curve" smooth="yes"/>
      <point x="81" y="695"/>
      <point x="55" y="709"/>
      <point x="34" y="722" type="curve"/>
      <point x="15" y="693" type="line"/>
      <point x="40" y="682"/>
      <point x="67" y="671"/>
      <point x="94" y="659" type="curve" smooth="yes"/>
      <point x="118" y="647"/>
      <point x="145" y="635"/>
    </contour>
  </outline>
</glyph>
<glyph name="a" format="2">
  <advance width="466"/>
  <unicode hex="0061"/>
  <anchor x="233" y="0" name="bottom"/>
  <anchor x="405" y="5" name="ogonek"/>
  <anchor x="240" y="555" name="top"/>
  <outline>
    <contour>
      <point x="364" y="0" type="line"/>
      <point x="399" y="-1" type="line"/>
      <point x="396" y="238" type="line"/>
      <point x="399" y="383" type="line" smooth="yes"/>
      <point x="400" y="448"/>
      <point x="389" y="565"/>
      <point x="241" y="565" type="curve" smooth="yes"/>
      <point x="134" y="565"/>
      <point x="75" y="493"/>
      <point x="75" y="406" type="curve" smooth="yes"/>
      <point x="75" y="389"/>
      <point x="77" y="371"/>
      <point x="82" y="353" type="curve"/>
      <point x="113" y="356" type="line"/>
      <point x="109" y="372"/>
      <point x="107" y="389"/>
      <point x="107" y="404" type="curve" smooth="yes"/>
      <point x="107" y="475"/>
      <point x="147" y="535"/>
      <point x="241" y="535" type="curve" smooth="yes"/>
      <point x="330" y="535"/>
      <point x="364" y="490"/>
      <point x="364" y="396" type="curve" smooth="yes"/>
      <point x="364" y="149" type="line"/>
    </contour>
    <contour>
      <point x="193" y="-10" type="curve" smooth="yes"/>
      <point x="355" y="-10"/>
      <point x="391" y="140"/>
      <point x="394" y="277" type="curve"/>
      <point x="367" y="239" type="line"/>
      <point x="367" y="118"/>
      <point x="308" y="22"/>
      <point x="197" y="22" type="curve" smooth="yes"/>
      <point x="115" y="22"/>
      <point x="94" y="71"/>
      <point x="94" y="125" type="curve" smooth="yes"/>
      <point x="94" y="199"/>
      <point x="155" y="234"/>
      <point x="220" y="264" type="curve" smooth="yes"/>
      <point x="296" y="299"/>
      <point x="382" y="320"/>
      <point x="382" y="390" type="curve"/>
      <point x="365" y="403" type="line"/>
      <point x="365" y="349"/>
      <point x="286" y="326"/>
      <point x="209" y="292" type="curve" smooth="yes"/>
      <point x="133" y="258"/>
      <point x="58" y="213"/>
      <point x="58" y="119" type="curve" smooth="yes"/>
      <point x="58" y="42"/>
      <point x="109" y="-10"/>
    </contour>
  </outline>
</glyph>
<glyph name="b" format="2">
  <advance width="527"/>
  <unicode hex="0062"/>
  <outline>
    <contour>
      <point x="268" y="-8" type="curve" smooth="yes"/>
      <point x="361" y="-8"/>
      <point x="408" y="49"/>
      <point x="432" y="128" type="curve" smooth="yes"/>
      <point x="456" y="206"/>
      <point x="464" y="359"/>
      <point x="442" y="441" type="curve" smooth="yes"/>
      <point x="423" y="511"/>
      <point x="379" y="563"/>
      <point x="294" y="563" type="curve" smooth="yes"/>
      <point x="172" y="563"/>
      <point x="92" y="458"/>
      <point x="92" y="270" type="curve"/>
      <point x="119" y="313" type="line"/>
      <point x="119" y="449"/>
      <point x="199" y="533"/>
      <point x="291" y="533" type="curve" smooth="yes"/>
      <point x="356" y="533"/>
      <point x="391" y="492"/>
      <point x="408" y="435" type="curve" smooth="yes"/>
      <point x="430" y="363"/>
      <point x="425" y="221"/>
      <point x="404" y="143" type="curve" smooth="yes"/>
      <point x="385" y="74"/>
      <point x="347" y="21"/>
      <point x="273" y="21" type="curve" smooth="yes"/>
      <point x="167" y="21"/>
      <point x="119" y="119"/>
      <point x="119" y="235" type="curve"/>
      <point x="92" y="276" type="line"/>
      <point x="92" y="67"/>
      <point x="169" y="-8"/>
    </contour>
    <contour>
      <point x="119" y="-1" type="line"/>
      <point x="119" y="93" type="line"/>
      <point x="119" y="173"/>
      <point x="120" y="275"/>
      <point x="120" y="343" type="curve"/>
      <point x="120" y="489"/>
      <point x="121" y="690"/>
      <point x="121" y="690" type="curve"/>
      <point x="86" y="687" type="line"/>
      <point x="86" y="687"/>
      <point x="88" y="488"/>
      <point x="88" y="345" type="curve"/>
      <point x="88" y="201"/>
      <point x="88" y="0"/>
      <point x="88" y="0" type="curve"/>
    </contour>
  </outline>
</glyph>
<glyph name="c" format="2">
  <advance width="494"/>
  <unicode hex="0063"/>
  <anchor x="256" y="0" name="bottom"/>
  <anchor x="252" y="555" name="top"/>
  <outline>
    <contour>
      <point x="248" y="-10" type="curve" smooth="yes"/>
      <point x="372" y="-10"/>
      <point x="419" y="59"/>
      <point x="419" y="162" type="curve" smooth="yes"/>
      <point x="419" y="170"/>
      <point x="419" y="178"/>
      <point x="418" y="187" type="curve"/>
      <point x="386" y="187" type="line"/>
      <point x="387" y="177"/>
      <point x="387" y="166"/>
      <point x="387" y="157" type="curve" smooth="yes"/>
      <point x="387" y="78"/>
      <point x="359" y="20"/>
      <point x="253" y="20" type="curve" smooth="yes"/>
      <point x="191" y="20"/>
      <point x="152" y="53"/>
      <point x="129" y="102" type="curve" smooth="yes"/>
      <point x="105" y="153"/>
      <point x="99" y="222"/>
      <point x="99" y="290" type="curve" smooth="yes"/>
      <point x="99" y="346"/>
      <point x="105" y="400"/>
      <point x="123" y="444" type="curve" smooth="yes"/>
      <point x="146" y="500"/>
      <point x="189" y="537"/>
      <point x="258" y="537" type="curve" smooth="yes"/>
      <point x="353" y="537"/>
      <point x="388" y="468"/>
      <point x="388" y="380" type="curve" smooth="yes"/>
      <point x="388" y="356"/>
      <point x="386" y="331"/>
      <point x="381" y="305" type="curve"/>
      <point x="413" y="305" type="line"/>
      <point x="418" y="329"/>
      <point x="420" y="354"/>
      <point x="420" y="378" type="curve" smooth="yes"/>
      <point x="420" y="478"/>
      <point x="376" y="565"/>
      <point x="263" y="565" type="curve" smooth="yes"/>
      <point x="180" y="565"/>
      <point x="127" y="524"/>
      <point x="97" y="461" type="curve" smooth="yes"/>
      <point x="74" y="413"/>
      <point x="66" y="354"/>
      <point x="66" y="291" type="curve" smooth="yes"/>
      <point x="66" y="216"/>
      <point x="72" y="141"/>
      <point x="99" y="84" type="curve" smooth="yes"/>
      <point x="126" y="28"/>
      <point x="172" y="-10"/>
    </contour>
  </outline>
</glyph>
<glyph name="d" format="2">
  <advance width="525"/>
  <unicode hex="0064"/>
  <anchor x="383" y="625" name="center"/>
  <anchor x="473" y="491" name="topright"/>
  <outline>
    <contour>
      <point x="75" y="260" type="curve" smooth="yes"/>
      <point x="75" y="194"/>
      <point x="81" y="127"/>
      <point x="104" y="77" type="curve" smooth="yes"/>
      <point x="127" y="26"/>
      <point x="169" y="-8"/>
      <point x="240" y="-8" type="curve" smooth="yes"/>
      <point x="346" y="-8"/>
      <point x="393" y="73"/>
      <point x="414" y="127" type="curve"/>
      <point x="414" y="0" type="line"/>
      <point x="447" y="-1" type="line"/>
      <point x="447" y="76"/>
      <point x="444" y="335"/>
      <point x="444" y="357" type="curve" smooth="yes"/>
      <point x="444" y="469"/>
      <point x="445" y="580"/>
      <point x="446" y="692" type="curve"/>
      <point x="414" y="690" type="line"/>
      <point x="414" y="623"/>
      <point x="415" y="527"/>
      <point x="415" y="460" type="curve"/>
      <point x="390" y="522"/>
      <point x="342" y="565"/>
      <point x="262" y="565" type="curve" smooth="yes"/>
      <point x="170" y="565"/>
      <point x="122" y="513"/>
      <point x="97" y="436" type="curve" smooth="yes"/>
      <point x="81" y="386"/>
      <point x="75" y="325"/>
    </contour>
    <contour>
      <point x="108" y="276" type="curve" smooth="yes"/>
      <point x="108" y="324"/>
      <point x="112" y="377"/>
      <point x="125" y="422" type="curve" smooth="yes"/>
      <point x="144" y="486"/>
      <point x="183" y="536"/>
      <point x="256" y="536" type="curve" smooth="yes"/>
      <point x="340" y="536"/>
      <point x="385" y="494"/>
      <point x="404" y="397" type="curve" smooth="yes"/>
      <point x="410" y="366"/>
      <point x="412" y="330"/>
      <point x="412" y="288" type="curve" smooth="yes"/>
      <point x="412" y="229"/>
      <point x="404" y="178"/>
      <point x="390" y="138" type="curve" smooth="yes"/>
      <point x="363" y="62"/>
      <point x="311" y="22"/>
      <point x="243" y="22" type="curve" smooth="yes"/>
      <point x="184" y="22"/>
      <point x="151" y="52"/>
      <point x="132" y="96" type="curve" smooth="yes"/>
      <point x="111" y="145"/>
      <point x="108" y="211"/>
    </contour>
  </outline>
</glyph>
<glyph name="e" format="2">
  <advance width="494"/>
  <unicode hex="0065"/>
  <anchor x="255" y="0" name="bottom"/>
  <anchor x="293" y="-1" name="ogonek"/>
  <anchor x="259" y="555" name="top"/>
  <outline>
    <contour>
      <point x="255" y="-10" type="curve" smooth="yes"/>
      <point x="382" y="-10"/>
      <point x="437" y="59"/>
      <point x="437" y="159" type="curve" smooth="yes"/>
      <point x="437" y="168"/>
      <point x="437" y="177"/>
      <point x="437" y="187" type="curve"/>
      <point x="402" y="187" type="line"/>
      <point x="403" y="177"/>
      <point x="404" y="167"/>
      <point x="404" y="158" type="curve" smooth="yes"/>
      <point x="404" y="76"/>
      <point x="364" y="20"/>
      <point x="259" y="20" type="curve" smooth="yes"/>
      <point x="177" y="20"/>
      <point x="136" y="70"/>
      <point x="117" y="140" type="curve" smooth="yes"/>
      <point x="105" y="184"/>
      <point x="101" y="236"/>
      <point x="101" y="290" type="curve" smooth="yes"/>
      <point x="101" y="346"/>
      <point x="107" y="401"/>
      <point x="126" y="446" type="curve" smooth="yes"/>
      <point x="149" y="500"/>
      <point x="192" y="538"/>
      <point x="264" y="538" type="curve" smooth="yes"/>
      <point x="369" y="538"/>
      <point x="405" y="470"/>
      <point x="405" y="375" type="curve" smooth="yes"/>
      <point x="405" y="352"/>
      <point x="403" y="328"/>
      <point x="399" y="303" type="curve"/>
      <point x="429" y="276" type="line"/>
      <point x="434" y="306"/>
      <point x="436" y="336"/>
      <point x="436" y="365" type="curve" smooth="yes"/>
      <point x="436" y="477"/>
      <point x="395" y="565"/>
      <point x="270" y="565" type="curve" smooth="yes"/>
      <point x="184" y="565"/>
      <point x="131" y="524"/>
      <point x="101" y="462" type="curve" smooth="yes"/>
      <point x="78" y="414"/>
      <point x="68" y="355"/>
      <point x="68" y="291" type="curve" smooth="yes"/>
      <point x="68" y="228"/>
      <point x="74" y="165"/>
      <point x="91" y="113" type="curve" smooth="yes"/>
      <point x="115" y="41"/>
      <point x="165" y="-10"/>
    </contour>
    <contour>
      <point x="84" y="272" type="line"/>
      <point x="120" y="274"/>
      <point x="276" y="276"/>
      <point x="429" y="276" type="curve"/>
      <point x="431" y="306" type="line"/>
      <point x="84" y="304" type="line"/>
    </contour>
  </outline>
</glyph>
<glyph name="g" format="2">
  <advance width="522"/>
  <unicode hex="0067"/>
  <anchor x="258" y="555" name="top"/>
  <outline>
    <contour>
      <point x="251" y="-166" type="curve"/>
      <point x="399" y="-166"/>
      <point x="435" y="-58"/>
      <point x="435" y="41" type="curve"/>
      <point x="436" y="107"/>
      <point x="435" y="125"/>
      <point x="436" y="277" type="curve"/>
      <point x="436" y="423"/>
      <point x="449" y="555"/>
      <point x="449" y="555" type="curve"/>
      <point x="418" y="555" type="line"/>
      <point x="418" y="555"/>
      <point x="403" y="420"/>
      <point x="403" y="276" type="curve"/>
      <point x="403" y="133"/>
      <point x="402" y="83"/>
      <point x="402" y="33" type="curve"/>
      <point x="402" y="-52"/>
      <point x="374" y="-136"/>
      <point x="256" y="-136" type="curve"/>
      <point x="176" y="-136"/>
      <point x="139" y="-115"/>
      <point x="129" y="-72" type="curve" smooth="yes"/>
      <point x="127" y="-63"/>
      <point x="126" y="-53"/>
      <point x="126" y="-43" type="curve"/>
      <point x="96" y="-49" type="line"/>
      <point x="96" y="-61"/>
      <point x="97" y="-73"/>
      <point x="100" y="-83" type="curve" smooth="yes"/>
      <point x="114" y="-135"/>
      <point x="161" y="-166"/>
    </contour>
    <contour>
      <point x="244" y="-9" type="curve" smooth="yes"/>
      <point x="382" y="-9"/>
      <point x="432" y="128"/>
      <point x="432" y="275" type="curve"/>
      <point x="403" y="232" type="line"/>
      <point x="403" y="92"/>
      <point x="328" y="21"/>
      <point x="246" y="21" type="curve" smooth="yes"/>
      <point x="179" y="21"/>
      <point x="144" y="63"/>
      <point x="126" y="120" type="curve" smooth="yes"/>
      <point x="112" y="166"/>
      <point x="109" y="222"/>
      <point x="109" y="275" type="curve" smooth="yes"/>
      <point x="109" y="336"/>
      <point x="115" y="402"/>
      <point x="138" y="452" type="curve" smooth="yes"/>
      <point x="159" y="500"/>
      <point x="195" y="534"/>
      <point x="255" y="534" type="curve" smooth="yes"/>
      <point x="359" y="534"/>
      <point x="403" y="452"/>
      <point x="403" y="311" type="curve"/>
      <point x="432" y="269" type="line"/>
      <point x="432" y="481"/>
      <point x="372" y="563"/>
      <point x="262" y="563" type="curve" smooth="yes"/>
      <point x="184" y="563"/>
      <point x="136" y="525"/>
      <point x="109" y="467" type="curve" smooth="yes"/>
      <point x="85" y="416"/>
      <point x="76" y="350"/>
      <point x="76" y="281" type="curve" smooth="yes"/>
      <point x="76" y="221"/>
      <point x="81" y="157"/>
      <point x="98" y="105" type="curve" smooth="yes"/>
      <point x="121" y="39"/>
      <point x="164" y="-9"/>
    </contour>
  </outline>
</glyph>
<glyph name="h" format="2">
  <advance width="528"/>
  <unicode hex="0068"/>
  <anchor x="266" y="0" name="bottom"/>
  <anchor x="170" y="627" name="center"/>
  <anchor x="111" y="669" name="top"/>
  <outline>
    <contour>
      <point x="93" y="0" type="curve"/>
      <point x="128" y="0" type="line"/>
      <point x="128" y="0"/>
      <point x="128" y="143"/>
      <point x="128" y="286" type="curve"/>
      <point x="128" y="430"/>
      <point x="130" y="694"/>
      <point x="130" y="694" type="curve"/>
      <point x="93" y="694" type="line"/>
      <point x="93" y="694"/>
      <point x="96" y="431"/>
      <point x="96" y="285" type="curve"/>
      <point x="96" y="140"/>
      <point x="93" y="0"/>
    </contour>
    <contour>
      <point x="445" y="-1" type="line"/>
      <point x="445" y="50"/>
      <point x="442" y="64"/>
      <point x="442" y="197" type="curve" smooth="yes"/>
      <point x="442" y="290"/>
      <point x="442" y="326"/>
      <point x="442" y="374" type="curve" smooth="yes"/>
      <point x="442" y="478"/>
      <point x="406" y="560"/>
      <point x="296" y="560" type="curve" smooth="yes"/>
      <point x="194" y="560"/>
      <point x="104" y="462"/>
      <point x="104" y="273" type="curve"/>
      <point x="128" y="286" type="line"/>
      <point x="128" y="427"/>
      <point x="199" y="529"/>
      <point x="294" y="529" type="curve" smooth="yes"/>
      <point x="389" y="529"/>
      <point x="410" y="455"/>
      <point x="410" y="377" type="curve" smooth="yes"/>
      <point x="410" y="332"/>
      <point x="410" y="268"/>
      <point x="410" y="196" type="curve" smooth="yes"/>
      <point x="410" y="66"/>
      <point x="407" y="46"/>
      <point x="404" y="0" type="curve"/>
    </contour>
  </outline>
</glyph>
<glyph name="i" format="2">
  <advance width="245"/>
  <unicode hex="0069"/>
  <anchor x="116" y="0" name="bottom"/>
  <anchor x="145" y="7" name="ogonek"/>
  <outline>
    <contour>
      <point x="139" y="0" type="line"/>
      <point x="139" y="0"/>
      <point x="137" y="142"/>
      <point x="137" y="285" type="curve"/>
      <point x="137" y="429"/>
      <point x="141" y="556"/>
      <point x="141" y="556" type="curve"/>
      <point x="104" y="556" type="line"/>
      <point x="104" y="556"/>
      <point x="105" y="432"/>
      <point x="105" y="286" type="curve"/>
      <point x="105" y="141"/>
      <point x="101" y="2"/>
      <point x="101" y="2" type="curve"/>
    </contour>
    <contour>
      <point x="142" y="635" type="line"/>
      <point x="142" y="705" type="line"/>
      <point x="100" y="703" type="line"/>
      <point x="103" y="633" type="line"/>
    </contour>
  </outline>
</glyph>
<glyph name="k" format="2">
  <advance width="452"/>
  <unicode hex="006B"/>
  <anchor x="272" y="0" name="bottom"/>
  <outline>
    <contour>
      <point x="396" y="0" type="curve"/>
      <point x="440" y="3" type="line"/>
      <point x="338" y="103"/>
      <point x="240" y="200"/>
      <point x="156" y="291" type="curve"/>
      <point x="246" y="387"/>
      <point x="334" y="478"/>
      <point x="416" y="559" type="curve"/>
      <point x="375" y="561" type="line"/>
      <point x="305" y="485"/>
      <point x="226" y="403"/>
      <point x="113" y="289" type="curve"/>
      <point x="207" y="197"/>
      <point x="314" y="88"/>
    </contour>
    <contour>
      <point x="93" y="0" type="curve"/>
      <point x="128" y="0" type="line"/>
      <point x="128" y="0"/>
      <point x="128" y="141"/>
      <point x="128" y="284" type="curve"/>
      <point x="128" y="428"/>
      <point x="130" y="694"/>
      <point x="130" y="694" type="curve"/>
      <point x="93" y="694" type="line"/>
      <point x="93" y="694"/>
      <point x="96" y="431"/>
      <point x="96" y="285" type="curve"/>
      <point x="96" y="140"/>
      <point x="93" y="0"/>
    </contour>
  </outline>
</glyph>
<glyph name="l" format="2">
  <advance width="234"/>
  <unicode hex="006C"/>
  <anchor x="127" y="0" name="bottom"/>
  <anchor x="127" y="359" name="center"/>
  <anchor x="126" y="693" name="top"/>
  <anchor x="208" y="473" name="topright"/>
  <outline>
    <contour>
      <point x="106" y="0" type="curve"/>
      <point x="141" y="6" type="line"/>
      <point x="141" y="64"/>
      <point x="141" y="180"/>
      <point x="141" y="284" type="curve"/>
      <point x="141" y="389"/>
      <point x="142" y="580"/>
      <point x="143" y="694" type="curve"/>
      <point x="106" y="694" type="line"/>
      <point x="107" y="581"/>
      <point x="109" y="392"/>
      <point x="109" y="285" type="curve"/>
      <point x="109" y="179"/>
      <point x="107" y="60"/>
    </contour>
  </outline>
</glyph>
<glyph name="m" format="2">
  <advance width="810"/>
  <unicode hex="006D"/>
  <outline>
    <contour>
      <point x="392" y="0" type="curve"/>
      <point x="433" y="0" type="line"/>
      <point x="433" y="51"/>
      <point x="430" y="153"/>
      <point x="430" y="286" type="curve" smooth="yes"/>
      <point x="430" y="462"/>
      <point x="415" y="560"/>
      <point x="289" y="560" type="curve" smooth="yes"/>
      <point x="187" y="560"/>
      <point x="102" y="462"/>
      <point x="102" y="273" type="curve"/>
      <point x="126" y="286" type="line"/>
      <point x="126" y="427"/>
      <point x="192" y="529"/>
      <point x="287" y="529" type="curve" smooth="yes"/>
      <point x="377" y="529"/>
      <point x="398" y="455"/>
      <point x="398" y="377" type="curve" smooth="yes"/>
      <point x="398" y="332"/>
      <point x="398" y="268"/>
      <point x="398" y="196" type="curve" smooth="yes"/>
      <point x="398" y="66"/>
      <point x="395" y="46"/>
    </contour>
    <contour>
      <point x="88" y="0" type="curve"/>
      <point x="126" y="0" type="line"/>
      <point x="124" y="50"/>
      <point x="126" y="153"/>
      <point x="126" y="286" type="curve"/>
      <point x="124" y="415"/>
      <point x="126" y="523"/>
      <point x="128" y="559" type="curve"/>
      <point x="88" y="556" type="line"/>
      <point x="90" y="524"/>
      <point x="91" y="421"/>
      <point x="92" y="285" type="curve" smooth="yes"/>
      <point x="93" y="152"/>
      <point x="90" y="51"/>
    </contour>
    <contour>
      <point x="724" y="-1" type="line"/>
      <point x="727" y="69"/>
      <point x="729" y="125"/>
      <point x="731" y="171" type="curve" smooth="yes"/>
      <point x="734" y="266"/>
      <point x="734" y="321"/>
      <point x="734" y="374" type="curve" smooth="yes"/>
      <point x="734" y="478"/>
      <point x="698" y="560"/>
      <point x="593" y="560" type="curve" smooth="yes"/>
      <point x="491" y="560"/>
      <point x="406" y="462"/>
      <point x="406" y="273" type="curve"/>
      <point x="430" y="286" type="line"/>
      <point x="430" y="427"/>
      <point x="496" y="529"/>
      <point x="591" y="529" type="curve" smooth="yes"/>
      <point x="681" y="529"/>
      <point x="702" y="455"/>
      <point x="702" y="377" type="curve" smooth="yes"/>
      <point x="702" y="306"/>
      <point x="700" y="238"/>
      <point x="697" y="168" type="curve" smooth="yes"/>
      <point x="694" y="115"/>
      <point x="691" y="62"/>
      <point x="686" y="6" type="curve"/>
    </contour>
  </outline>
</glyph>
<glyph name="n" format="2">
  <advance width="532"/>
  <unicode hex="006E"/>
  <anchor x="268" y="0" name="bottom"/>
  <anchor x="283" y="555" name="top"/>
  <anchor x="163" y="555" name="topright"/>
  <outline>
    <contour>
      <point x="449" y="-1" type="line"/>
      <point x="449" y="50"/>
      <point x="446" y="64"/>
      <point x="446" y="197" type="curve" smooth="yes"/>
      <point x="446" y="290"/>
      <point x="446" y="326"/>
      <point x="446" y="374" type="curve" smooth="yes"/>
      <point x="446" y="478"/>
      <point x="410" y="560"/>
      <point x="300" y="560" type="curve" smooth="yes"/>
      <point x="198" y="560"/>
      <point x="108" y="462"/>
      <point x="108" y="273" type="curve"/>
      <point x="132" y="286" type="line"/>
      <point x="132" y="427"/>
      <point x="203" y="529"/>
      <point x="298" y="529" type="curve" smooth="yes"/>
      <point x="393" y="529"/>
      <point x="414" y="455"/>
      <point x="414" y="377" type="curve" smooth="yes"/>
      <point x="414" y="332"/>
      <point x="414" y="268"/>
      <point x="414" y="196" type="curve" smooth="yes"/>
      <point x="414" y="66"/>
      <point x="411" y="46"/>
      <point x="408" y="0" type="curve"/>
    </contour>
    <contour>
      <point x="94" y="0" type="curve"/>
      <point x="132" y="0" type="line"/>
      <point x="130" y="50"/>
      <point x="132" y="153"/>
      <point x="132" y="286" type="curve"/>
      <point x="130" y="415"/>
      <point x="132" y="523"/>
      <point x="134" y="559" type="curve"/>
      <point x="94" y="556" type="line"/>
      <point x="96" y="524"/>
      <point x="97" y="421"/>
      <point x="98" y="285" type="curve" smooth="yes"/>
      <point x="99" y="152"/>
      <point x="96" y="51"/>
    </contour>
  </outline>
</glyph>
<glyph name="p" format="2">
  <advance width="543"/>
  <unicode hex="0070"/>
  <outline>
    <contour>
      <point x="101" y="-149" type="curve"/>
      <point x="138" y="-147" type="line"/>
      <point x="136" y="75" type="line"/>
      <point x="152" y="37"/>
      <point x="195" y="-10"/>
      <point x="284" y="-10" type="curve" smooth="yes"/>
      <point x="371" y="-10"/>
      <point x="420" y="40"/>
      <point x="446" y="111" type="curve" smooth="yes"/>
      <point x="465" y="164"/>
      <point x="471" y="228"/>
      <point x="471" y="293" type="curve" smooth="yes"/>
      <point x="471" y="358"/>
      <point x="466" y="424"/>
      <point x="443" y="474" type="curve" smooth="yes"/>
      <point x="419" y="526"/>
      <point x="379" y="561"/>
      <point x="306" y="561" type="curve" smooth="yes"/>
      <point x="210" y="561"/>
      <point x="161" y="505"/>
      <point x="136" y="448" type="curve"/>
      <point x="136" y="559" type="line"/>
      <point x="101" y="555" type="line"/>
      <point x="102" y="512"/>
      <point x="103" y="343"/>
      <point x="103" y="208" type="curve" smooth="yes"/>
      <point x="103" y="64"/>
      <point x="101" y="-149"/>
    </contour>
    <contour>
      <point x="135" y="230" type="curve" smooth="yes"/>
      <point x="135" y="294" type="line" smooth="yes"/>
      <point x="135" y="476"/>
      <point x="214" y="531"/>
      <point x="303" y="531" type="curve" smooth="yes"/>
      <point x="365" y="531"/>
      <point x="399" y="498"/>
      <point x="417" y="450" type="curve" smooth="yes"/>
      <point x="435" y="402"/>
      <point x="438" y="339"/>
      <point x="438" y="277" type="curve" smooth="yes"/>
      <point x="438" y="229"/>
      <point x="433" y="172"/>
      <point x="416" y="124" type="curve" smooth="yes"/>
      <point x="395" y="65"/>
      <point x="358" y="19"/>
      <point x="290" y="19" type="curve" smooth="yes"/>
      <point x="168" y="19"/>
      <point x="135" y="97"/>
    </contour>
  </outline>
</glyph>
<glyph name="q" format="2">
  <advance width="526"/>
  <unicode hex="0071"/>
  <outline>
    <contour>
      <point x="72" y="297" type="curve" smooth="yes"/>
      <point x="72" y="216"/>
      <point x="79" y="135"/>
      <point x="108" y="77" type="curve" smooth="yes"/>
      <point x="134" y="25"/>
      <point x="176" y="-8"/>
      <point x="246" y="-8" type="curve" smooth="yes"/>
      <point x="343" y="-8"/>
      <point x="388" y="44"/>
      <point x="413" y="107" type="curve"/>
      <point x="408" y="-146" type="line"/>
      <point x="443" y="-147" type="line"/>
      <point x="441" y="-44"/>
      <point x="440" y="76"/>
      <point x="440" y="218" type="curve" smooth="yes"/>
      <point x="440" y="361"/>
      <point x="444" y="485"/>
      <point x="445" y="565" type="curve"/>
      <point x="409" y="563" type="line"/>
      <point x="412" y="442" type="line"/>
      <point x="396" y="497"/>
      <point x="352" y="565"/>
      <point x="256" y="565" type="curve" smooth="yes"/>
      <point x="170" y="565"/>
      <point x="121" y="520"/>
      <point x="95" y="452" type="curve" smooth="yes"/>
      <point x="78" y="408"/>
      <point x="72" y="354"/>
    </contour>
    <contour>
      <point x="105" y="281" type="curve" smooth="yes"/>
      <point x="105" y="338"/>
      <point x="109" y="396"/>
      <point x="125" y="442" type="curve" smooth="yes"/>
      <point x="144" y="497"/>
      <point x="182" y="535"/>
      <point x="251" y="535" type="curve" smooth="yes"/>
      <point x="338" y="535"/>
      <point x="380" y="478"/>
      <point x="397" y="400" type="curve" smooth="yes"/>
      <point x="405" y="364"/>
      <point x="408" y="323"/>
      <point x="408" y="281" type="curve" smooth="yes"/>
      <point x="408" y="225"/>
      <point x="405" y="170"/>
      <point x="391" y="125" type="curve" smooth="yes"/>
      <point x="372" y="63"/>
      <point x="330" y="21"/>
      <point x="247" y="21" type="curve" smooth="yes"/>
      <point x="191" y="21"/>
      <point x="157" y="51"/>
      <point x="135" y="95" type="curve" smooth="yes"/>
      <point x="110" y="145"/>
      <point x="105" y="215"/>
    </contour>
  </outline>
</glyph>
<glyph name="r" format="2">
  <advance width="442"/>
  <unicode hex="0072"/>
  <anchor x="118" y="0" name="bottom"/>
  <anchor x="269" y="555" name="top"/>
  <outline>
    <contour>
      <point x="383" y="270" type="curve"/>
      <point x="411" y="271" type="line"/>
      <point x="423" y="318"/>
      <point x="431" y="364"/>
      <point x="431" y="406" type="curve" smooth="yes"/>
      <point x="431" y="500"/>
      <point x="394" y="571"/>
      <point x="295" y="571" type="curve" smooth="yes"/>
      <point x="165" y="571"/>
      <point x="110" y="444"/>
      <point x="110" y="288" type="curve"/>
      <point x="135" y="323" type="line"/>
      <point x="135" y="436"/>
      <point x="189" y="542"/>
      <point x="292" y="542" type="curve" smooth="yes"/>
      <point x="375" y="542"/>
      <point x="402" y="486"/>
      <point x="402" y="409" type="curve" smooth="yes"/>
      <point x="402" y="367"/>
      <point x="394" y="319"/>
    </contour>
    <contour>
      <point x="99" y="0" type="curve"/>
      <point x="135" y="0" type="line"/>
      <point x="133" y="50"/>
      <point x="135" y="190"/>
      <point x="135" y="323" type="curve"/>
      <point x="133" y="452"/>
      <point x="133" y="523"/>
      <point x="134" y="559" type="curve"/>
      <point x="94" y="556" type="line"/>
      <point x="98" y="524"/>
      <point x="102" y="421"/>
      <point x="103" y="285" type="curve" smooth="yes"/>
      <point x="104" y="152"/>
      <point x="101" y="51"/>
    </contour>
  </outline>
</glyph>
<glyph name="s" format="2">
  <advance width="450"/>
  <unicode hex="0073"/>
  <anchor x="232" y="0" name="bottom"/>
  <anchor x="229" y="555" name="top"/>
  <outline>
    <contour>
      <point x="226" y="-10" type="curve" smooth="yes"/>
      <point x="362" y="-10"/>
      <point x="410" y="59"/>
      <point x="410" y="118" type="curve" smooth="yes"/>
      <point x="410" y="206"/>
      <point x="330" y="232"/>
      <point x="231" y="276" type="curve" smooth="yes"/>
      <point x="141" y="316"/>
      <point x="77" y="330"/>
      <point x="77" y="421" type="curve" smooth="yes"/>
      <point x="77" y="488"/>
      <point x="114" y="543"/>
      <point x="228" y="543" type="curve" smooth="yes"/>
      <point x="332" y="543"/>
      <point x="374" y="478"/>
      <point x="374" y="391" type="curve" smooth="yes"/>
      <point x="374" y="369"/>
      <point x="371" y="345"/>
      <point x="366" y="320" type="curve"/>
      <point x="400" y="320" type="line"/>
      <point x="405" y="345"/>
      <point x="407" y="368"/>
      <point x="407" y="390" type="curve" smooth="yes"/>
      <point x="407" y="502"/>
      <point x="345" y="572"/>
      <point x="230" y="572" type="curve" smooth="yes"/>
      <point x="109" y="572"/>
      <point x="44" y="511"/>
      <point x="44" y="419" type="curve" smooth="yes"/>
      <point x="44" y="318"/>
      <point x="123" y="289"/>
      <point x="219" y="247" type="curve" smooth="yes"/>
      <point x="301" y="211"/>
      <point x="378" y="192"/>
      <point x="378" y="113" type="curve" smooth="yes"/>
      <point x="378" y="73"/>
      <point x="346" y="20"/>
      <point x="224" y="20" type="curve" smooth="yes"/>
      <point x="111" y="20"/>
      <point x="76" y="67"/>
      <point x="76" y="134" type="curve" smooth="yes"/>
      <point x="76" y="147"/>
      <point x="77" y="162"/>
      <point x="80" y="177" type="curve"/>
      <point x="47" y="177" type="line"/>
      <point x="45" y="163"/>
      <point x="44" y="149"/>
      <point x="44" y="136" type="curve" smooth="yes"/>
      <point x="44" y="50"/>
      <point x="88" y="-10"/>
    </contour>
  </outline>
</glyph>
<glyph name="t" format="2">
  <advance width="463"/>
  <unicode hex="0074"/>
  <anchor x="258" y="-11" name="bottom"/>
  <anchor x="190" y="413" name="center"/>
  <anchor x="287" y="555" name="topright"/>
  <outline>
    <contour>
      <point x="242" y="-11" type="curve" smooth="yes"/>
      <point x="350" y="-12"/>
      <point x="423" y="56"/>
      <point x="423" y="209" type="curve" smooth="yes"/>
      <point x="423" y="236"/>
      <point x="421" y="265"/>
      <point x="416" y="298" type="curve"/>
      <point x="385" y="298" type="line"/>
      <point x="389" y="264"/>
      <point x="391" y="233"/>
      <point x="391" y="206" type="curve" smooth="yes"/>
      <point x="391" y="81"/>
      <point x="351" y="19"/>
      <point x="241" y="19" type="curve" smooth="yes"/>
      <point x="134" y="19"/>
      <point x="118" y="111"/>
      <point x="118" y="207" type="curve" smooth="yes"/>
      <point x="118" y="223"/>
      <point x="118" y="238"/>
      <point x="119" y="254" type="curve" smooth="yes"/>
      <point x="122" y="348"/>
      <point x="129" y="462"/>
      <point x="138" y="636" type="curve"/>
      <point x="99" y="635" type="line"/>
      <point x="98" y="475"/>
      <point x="94" y="344"/>
      <point x="88" y="250" type="curve" smooth="yes"/>
      <point x="87" y="233"/>
      <point x="86" y="216"/>
      <point x="86" y="200" type="curve" smooth="yes"/>
      <point x="86" y="79"/>
      <point x="120" y="-10"/>
    </contour>
    <contour>
      <point x="26" y="524" type="line"/>
      <point x="26" y="524"/>
      <point x="113" y="527"/>
      <point x="222" y="528" type="curve"/>
      <point x="234" y="528"/>
      <point x="416" y="528"/>
      <point x="419" y="528" type="curve"/>
      <point x="421" y="555" type="line"/>
      <point x="421" y="555"/>
      <point x="257" y="553"/>
      <point x="208" y="552" type="curve"/>
      <point x="101" y="552"/>
      <point x="28" y="553"/>
      <point x="28" y="553" type="curve"/>
    </contour>
  </outline>
</glyph>
<glyph name="u" format="2">
  <advance width="511"/>
  <unicode hex="0075"/>
  <anchor x="252" y="0" name="bottom"/>
  <anchor x="434" y="5" name="ogonek"/>
  <anchor x="262" y="555" name="top"/>
  <anchor x="345" y="555" name="topright"/>
  <outline>
    <contour>
      <point x="210" y="-10" type="curve" smooth="yes"/>
      <point x="345" y="-10"/>
      <point x="418" y="130"/>
      <point x="418" y="285" type="curve"/>
      <point x="392" y="268" type="line"/>
      <point x="392" y="127"/>
      <point x="309" y="20"/>
      <point x="214" y="20" type="curve" smooth="yes"/>
      <point x="132" y="20"/>
      <point x="109" y="89"/>
      <point x="109" y="214" type="curve" smooth="yes"/>
      <point x="109" y="255"/>
      <point x="109" y="301"/>
      <point x="112" y="353" type="curve" smooth="yes"/>
      <point x="115" y="415"/>
      <point x="119" y="486"/>
      <point x="125" y="564" type="curve"/>
      <point x="87" y="559" type="line"/>
      <point x="82" y="491"/>
      <point x="80" y="429"/>
      <point x="78" y="373" type="curve" smooth="yes"/>
      <point x="76" y="319"/>
      <point x="76" y="271"/>
      <point x="76" y="229" type="curve" smooth="yes"/>
      <point x="76" y="68"/>
      <point x="104" y="-10"/>
    </contour>
    <contour>
      <point x="397" y="0" type="line"/>
      <point x="429" y="0" type="line"/>
      <point x="429" y="90"/>
      <point x="423" y="171"/>
      <point x="423" y="260" type="curve" smooth="yes"/>
      <point x="423" y="384"/>
      <point x="426" y="445"/>
      <point x="427" y="563" type="curve"/>
      <point x="389" y="566" type="line"/>
      <point x="391" y="451"/>
      <point x="392" y="383"/>
      <point x="392" y="268" type="curve" smooth="yes"/>
      <point x="392" y="229"/>
      <point x="392" y="181"/>
      <point x="393" y="160" type="curve"/>
    </contour>
  </outline>
</glyph>
<glyph name="v" format="2">
  <advance width="464"/>
  <unicode hex="0076"/>
  <outline>
    <contour>
      <point x="18" y="561" type="line"/>
      <point x="53" y="463"/>
      <point x="87" y="367"/>
      <point x="120" y="273" type="curve" smooth="yes"/>
      <point x="153" y="180"/>
      <point x="183" y="90"/>
      <point x="214" y="-1" type="curve"/>
      <point x="258" y="-1" type="line"/>
      <point x="293" y="98"/>
      <point x="323" y="185"/>
      <point x="354" y="275" type="curve" smooth="yes"/>
      <point x="384" y="362"/>
      <point x="417" y="452"/>
      <point x="456" y="559" type="curve"/>
      <point x="418" y="555" type="line"/>
      <point x="387" y="461"/>
      <point x="357" y="373"/>
      <point x="327" y="286" type="curve" smooth="yes"/>
      <point x="298" y="201"/>
      <point x="267" y="117"/>
      <point x="236" y="30" type="curve"/>
      <point x="210" y="103"/>
      <point x="180" y="190"/>
      <point x="149" y="280" type="curve" smooth="yes"/>
      <point x="117" y="373"/>
      <point x="85" y="470"/>
      <point x="57" y="561" type="curve"/>
    </contour>
  </outline>
</glyph>
<glyph name="x" format="2">
  <advance width="416"/>
  <unicode hex="0078"/>
  <outline>
    <contour>
      <point x="42" y="-4" type="line"/>
      <point x="92" y="86"/>
      <point x="139" y="154"/>
      <point x="224" y="281" type="curve" smooth="yes"/>
      <point x="305" y="404"/>
      <point x="361" y="486"/>
      <point x="412" y="558" type="curve"/>
      <point x="370" y="558" type="line"/>
      <point x="328" y="488"/>
      <point x="282" y="424"/>
      <point x="200" y="299" type="curve" smooth="yes"/>
      <point x="113" y="166"/>
      <point x="62" y="86"/>
      <point x="0" y="-2" type="curve"/>
    </contour>
    <contour>
      <point x="374" y="2" type="curve"/>
      <point x="417" y="3" type="line"/>
      <point x="369" y="70"/>
      <point x="307" y="161"/>
      <point x="216" y="299" type="curve" smooth="yes"/>
      <point x="137" y="422"/>
      <point x="88" y="494"/>
      <point x="51" y="558" type="curve"/>
      <point x="10" y="555" type="line"/>
      <point x="74" y="465"/>
      <point x="114" y="403"/>
      <point x="193" y="281" type="curve" smooth="yes"/>
      <point x="281" y="145"/>
      <point x="335" y="64"/>
    </contour>
  </outline>
</glyph>
<glyph name="y" format="2">
  <advance width="464"/>
  <unicode hex="0079"/>
  <anchor x="333" y="0" name="bottom"/>
  <anchor x="229" y="555" name="top"/>
  <outline>
    <contour>
      <point x="221" y="-149" type="line"/>
      <point x="256" y="-34"/>
      <point x="304" y="118"/>
      <point x="350" y="261" type="curve" smooth="yes"/>
      <point x="386" y="373"/>
      <point x="421" y="479"/>
      <point x="448" y="559" type="curve"/>
      <point x="410" y="559" type="line"/>
      <point x="387" y="483"/>
      <point x="355" y="379"/>
      <point x="318" y="264" type="curve" smooth="yes"/>
      <point x="276" y="133"/>
      <point x="231" y="-12"/>
      <point x="186" y="-146" type="curve"/>
    </contour>
    <contour>
      <point x="232" y="-16" type="curve"/>
      <point x="260" y="0" type="line"/>
      <point x="228" y="83"/>
      <point x="195" y="169"/>
      <point x="162" y="255" type="curve" smooth="yes"/>
      <point x="123" y="357"/>
      <point x="86" y="459"/>
      <point x="51" y="554" type="curve"/>
      <point x="13" y="553" type="line"/>
      <point x="45" y="472"/>
      <point x="90" y="356"/>
      <point x="135" y="241" type="curve" smooth="yes"/>
      <point x="170" y="150"/>
      <point x="205" y="58"/>
    </contour>
  </outline>
</glyph>
<glyph name="z" format="2">
  <advance width="367"/>
  <unicode hex="007A"/>
  <anchor x="179" y="555" name="top"/>
  <outline>
    <contour>
      <point x="41" y="10" type="line"/>
      <point x="61" y="46"/>
      <point x="124" y="152"/>
      <point x="189" y="259" type="curve" smooth="yes"/>
      <point x="255" y="370"/>
      <point x="324" y="481"/>
      <point x="348" y="518" type="curve"/>
      <point x="319" y="537" type="line"/>
      <point x="295" y="495"/>
      <point x="225" y="378"/>
      <point x="158" y="266" type="curve" smooth="yes"/>
      <point x="94" y="159"/>
      <point x="33" y="57"/>
      <point x="15" y="30" type="curve"/>
    </contour>
    <contour>
      <point x="16" y="-4" type="line"/>
      <point x="16" y="-4"/>
      <point x="95" y="0"/>
      <point x="185" y="0" type="curve"/>
      <point x="235" y="-1"/>
      <point x="357" y="0"/>
      <point x="357" y="0" type="curve"/>
      <point x="357" y="32" type="line"/>
      <point x="357" y="32"/>
      <point x="248" y="29"/>
      <point x="200" y="29" type="curve" smooth="yes"/>
      <point x="151" y="29"/>
      <point x="15" y="30"/>
      <point x="15" y="30" type="curve"/>
    </contour>
    <contour>
      <point x="24" y="518" type="line"/>
      <point x="24" y="518"/>
      <point x="87" y="520"/>
      <point x="176" y="520" type="curve"/>
      <point x="224" y="520"/>
      <point x="348" y="518"/>
      <point x="348" y="518" type="curve"/>
      <point x="345" y="555" type="line"/>
      <point x="345" y="555"/>
      <point x="242" y="552"/>
      <point x="192" y="552" type="curve"/>
      <point x="142" y="551"/>
      <point x="25" y="552"/>
      <point x="25" y="552" type="curve"/>
    </contour>
  </outline>
</glyph>
<glyph name="braceleft" format="2">
  <advance width="654"/>
  <unicode hex="007B"/>
  <outline>
    <contour>
      <point x="398" y="-129" type="curve" smooth="yes"/>
      <point x="431" y="-129"/>
      <point x="469" y="-123"/>
      <point x="510" y="-113" type="curve"/>
      <point x="505" y="-92" type="line"/>
      <point x="465" y="-99"/>
      <point x="429" y="-104"/>
      <point x="397" y="-104" type="curve" smooth="yes"/>
      <point x="324" y="-104"/>
      <point x="281" y="-80"/>
      <point x="281" y="0" type="curve" smooth="yes"/>
      <point x="281" y="42"/>
      <point x="302" y="133"/>
      <point x="302" y="172" type="curve" smooth="yes"/>
      <point x="302" y="225"/>
      <point x="248" y="263"/>
      <point x="186" y="274" type="curve"/>
      <point x="250" y="288"/>
      <point x="300" y="325"/>
      <point x="300" y="379" type="curve" smooth="yes"/>
      <point x="300" y="420"/>
      <point x="269" y="525"/>
      <point x="269" y="574" type="curve" smooth="yes"/>
      <point x="269" y="651"/>
      <point x="311" y="676"/>
      <point x="385" y="676" type="curve" smooth="yes"/>
      <point x="415" y="676"/>
      <point x="450" y="671"/>
      <point x="488" y="664" type="curve"/>
      <point x="495" y="687" type="line"/>
      <point x="456" y="697"/>
      <point x="419" y="703"/>
      <point x="386" y="703" type="curve" smooth="yes"/>
      <point x="298" y="703"/>
      <point x="238" y="663"/>
      <point x="238" y="566" type="curve" smooth="yes"/>
      <point x="238" y="519"/>
      <point x="270" y="433"/>
      <point x="270" y="384" type="curve" smooth="yes"/>
      <point x="270" y="328"/>
      <point x="218" y="302"/>
      <point x="145" y="288" type="curve"/>
      <point x="148" y="257" type="line"/>
      <point x="220" y="246"/>
      <point x="270" y="225"/>
      <point x="270" y="167" type="curve" smooth="yes"/>
      <point x="270" y="119"/>
      <point x="248" y="54"/>
      <point x="248" y="7" type="curve" smooth="yes"/>
      <point x="248" y="-89"/>
      <point x="308" y="-129"/>
    </contour>
  </outline>
</glyph>
<glyph name="braceright" format="2">
  <advance width="654"/>
  <unicode hex="007D"/>
  <outline>
    <contour>
      <point x="269" y="-129" type="curve" smooth="yes"/>
      <point x="357" y="-129"/>
      <point x="417" y="-89"/>
      <point x="417" y="8" type="curve" smooth="yes"/>
      <point x="417" y="55"/>
      <point x="385" y="141"/>
      <point x="385" y="190" type="curve" smooth="yes"/>
      <point x="385" y="246"/>
      <point x="437" y="272"/>
      <point x="510" y="286" type="curve"/>
      <point x="507" y="317" type="line"/>
      <point x="435" y="328"/>
      <point x="385" y="349"/>
      <point x="385" y="407" type="curve" smooth="yes"/>
      <point x="385" y="455"/>
      <point x="407" y="520"/>
      <point x="407" y="567" type="curve" smooth="yes"/>
      <point x="407" y="663"/>
      <point x="347" y="703"/>
      <point x="257" y="703" type="curve" smooth="yes"/>
      <point x="224" y="703"/>
      <point x="186" y="697"/>
      <point x="145" y="687" type="curve"/>
      <point x="150" y="666" type="line"/>
      <point x="190" y="673"/>
      <point x="226" y="678"/>
      <point x="258" y="678" type="curve" smooth="yes"/>
      <point x="331" y="678"/>
      <point x="374" y="654"/>
      <point x="374" y="574" type="curve" smooth="yes"/>
      <point x="374" y="532"/>
      <point x="353" y="441"/>
      <point x="353" y="402" type="curve" smooth="yes"/>
      <point x="353" y="349"/>
      <point x="407" y="311"/>
      <point x="469" y="300" type="curve"/>
      <point x="405" y="286"/>
      <point x="355" y="249"/>
      <point x="355" y="195" type="curve" smooth="yes"/>
      <point x="355" y="154"/>
      <point x="386" y="49"/>
      <point x="386" y="0" type="curve" smooth="yes"/>
      <point x="386" y="-77"/>
      <point x="344" y="-102"/>
      <point x="270" y="-102" type="curve" smooth="yes"/>
      <point x="240" y="-102"/>
      <point x="205" y="-97"/>
      <point x="167" y="-90" type="curve"/>
      <point x="160" y="-113" type="line"/>
      <point x="199" y="-123"/>
      <point x="236" y="-129"/>
    </contour>
  </outline>
</glyph>
<glyph name="exclamdown" format="2">
  <advance width="307"/>
  <unicode hex="00A1"/>
  <outline>
    <contour>
      <point x="127" y="-151" type="curve"/>
      <point x="179" y="-148" type="line"/>
      <point x="178" y="-102"/>
      <point x="173" y="44"/>
      <point x="171" y="134" type="curve" smooth="yes"/>
      <point x="169" y="211"/>
      <point x="168" y="313"/>
      <point x="167" y="341" type="curve"/>
      <point x="139" y="341" type="line"/>
      <point x="138" y="307"/>
      <point x="137" y="190"/>
      <point x="136" y="132" type="curve" smooth="yes"/>
      <point x="135" y="70"/>
      <point x="129" y="-98"/>
    </contour>
    <contour>
      <point x="134" y="456" type="line"/>
      <point x="171" y="458" type="line"/>
      <point x="174" y="555" type="line"/>
      <point x="129" y="551" type="line"/>
    </contour>
  </outline>
</glyph>
<glyph name="cent" format="2">
  <advance width="640"/>
  <unicode hex="00A2"/>
  <outline>
    <contour>
      <point x="315" y="30" type="curve" smooth="yes"/>
      <point x="442" y="30"/>
      <point x="502" y="93"/>
      <point x="502" y="196" type="curve" smooth="yes"/>
      <point x="502" y="206"/>
      <point x="501" y="216"/>
      <point x="500" y="227" type="curve"/>
      <point x="468" y="227" type="line"/>
      <point x="469" y="216"/>
      <point x="470" y="205"/>
      <point x="470" y="195" type="curve" smooth="yes"/>
      <point x="470" y="106"/>
      <point x="425" y="60"/>
      <point x="320" y="60" type="curve" smooth="yes"/>
      <point x="260" y="60"/>
      <point x="220" y="84"/>
      <point x="194" y="119" type="curve" smooth="yes"/>
      <point x="138" y="195"/>
      <point x="132" y="366"/>
      <point x="197" y="443" type="curve" smooth="yes"/>
      <point x="224" y="475"/>
      <point x="265" y="497"/>
      <point x="325" y="497" type="curve" smooth="yes"/>
      <point x="429" y="497"/>
      <point x="470" y="429"/>
      <point x="470" y="358" type="curve" smooth="yes"/>
      <point x="470" y="340"/>
      <point x="468" y="322"/>
      <point x="463" y="305" type="curve"/>
      <point x="495" y="305" type="line"/>
      <point x="500" y="322"/>
      <point x="503" y="340"/>
      <point x="503" y="359" type="curve" smooth="yes"/>
      <point x="503" y="441"/>
      <point x="450" y="525"/>
      <point x="330" y="525" type="curve" smooth="yes"/>
      <point x="255" y="525"/>
      <point x="203" y="498"/>
      <point x="169" y="457" type="curve" smooth="yes"/>
      <point x="96" y="369"/>
      <point x="102" y="174"/>
      <point x="173" y="89" type="curve" smooth="yes"/>
      <point x="203" y="53"/>
      <point x="248" y="30"/>
    </contour>
    <contour>
      <point x="335" y="-30" type="line"/>
      <point x="333" y="20"/>
      <point x="331" y="186"/>
      <point x="331" y="311" type="curve" smooth="yes"/>
      <point x="331" y="433"/>
      <point x="336" y="551"/>
      <point x="339" y="591" type="curve"/>
      <point x="307" y="592" type="line"/>
      <point x="307" y="562"/>
      <point x="307" y="483"/>
      <point x="307" y="322" type="curve" smooth="yes"/>
      <point x="307" y="142"/>
      <point x="304" y="12"/>
      <point x="303" y="-29" type="curve"/>
    </contour>
  </outline>
</glyph>
<glyph name="sterling" format="2">
  <advance width="640"/>
  <unicode hex="00A3"/>
  <outline>
    <contour>
      <point x="172" y="14" type="line"/>
      <point x="241" y="36"/>
      <point x="273" y="87"/>
      <point x="273" y="155" type="curve" smooth="yes"/>
      <point x="273" y="300"/>
      <point x="167" y="373"/>
      <point x="167" y="501" type="curve" smooth="yes"/>
      <point x="167" y="619"/>
      <point x="236" y="672"/>
      <point x="340" y="672" type="curve" smooth="yes"/>
      <point x="456" y="672"/>
      <point x="498" y="616"/>
      <point x="498" y="528" type="curve" smooth="yes"/>
      <point x="498" y="505"/>
      <point x="495" y="479"/>
      <point x="490" y="452" type="curve"/>
      <point x="526" y="453" type="line"/>
      <point x="532" y="480"/>
      <point x="536" y="506"/>
      <point x="536" y="531" type="curve" smooth="yes"/>
      <point x="536" y="631"/>
      <point x="481" y="706"/>
      <point x="336" y="706" type="curve" smooth="yes"/>
      <point x="227" y="706"/>
      <point x="130" y="631"/>
      <point x="130" y="505" type="curve" smooth="yes"/>
      <point x="130" y="365"/>
      <point x="238" y="290"/>
      <point x="238" y="153" type="curve" smooth="yes"/>
      <point x="238" y="67"/>
      <point x="165" y="33"/>
      <point x="119" y="33" type="curve"/>
    </contour>
    <contour>
      <point x="126" y="-3" type="line"/>
      <point x="149" y="-2"/>
      <point x="290" y="0"/>
      <point x="335" y="0" type="curve" smooth="yes"/>
      <point x="377" y="0"/>
      <point x="518" y="0"/>
      <point x="541" y="-1" type="curve"/>
      <point x="545" y="35" type="line"/>
      <point x="523" y="33"/>
      <point x="402" y="31"/>
      <point x="354" y="31" type="curve" smooth="yes"/>
      <point x="329" y="31"/>
      <point x="151" y="32"/>
      <point x="119" y="33" type="curve"/>
    </contour>
    <contour>
      <point x="105" y="276" type="line"/>
      <point x="167" y="277"/>
      <point x="221" y="283"/>
      <point x="291" y="283" type="curve" smooth="yes"/>
      <point x="350" y="283"/>
      <point x="465" y="280"/>
      <point x="465" y="280" type="curve"/>
      <point x="471" y="318" type="line"/>
      <point x="471" y="318"/>
      <point x="363" y="317"/>
      <point x="298" y="312" type="curve" smooth="yes"/>
      <point x="286" y="311"/>
      <point x="146" y="312"/>
      <point x="110" y="312" type="curve"/>
    </contour>
  </outline>
</glyph>
<glyph name="dieresis" format="2">
  <advance width="246"/>
  <unicode hex="00A8"/>
  <anchor x="123" y="555" name="_top"/>
  <outline>
    <contour>
      <point x="215" y="637" type="line"/>
      <point x="215" y="702" type="line"/>
      <point x="177" y="700" type="line"/>
      <point x="180" y="638" type="line"/>
    </contour>
    <contour>
      <point x="67" y="637" type="line"/>
      <point x="67" y="702" type="line"/>
      <point x="29" y="700" type="line"/>
      <point x="32" y="638" type="line"/>
    </contour>
  </outline>
</glyph>
<glyph name="ordfeminine" format="2">
  <advance width="410"/>
  <unicode hex="00AA"/>
  <outline>
    <contour>
      <point x="90" y="521" type="curve" smooth="yes"/>
      <point x="90" y="488"/>
      <point x="111" y="462"/>
      <point x="167" y="462" type="curve" smooth="yes"/>
      <point x="217" y="462"/>
      <point x="257" y="481"/>
      <point x="277" y="505" type="curve"/>
      <point x="278" y="491"/>
      <point x="284" y="473"/>
      <point x="293" y="464" type="curve"/>
      <point x="323" y="476" type="line"/>
      <point x="312" y="488"/>
      <point x="308" y="503"/>
      <point x="308" y="516" type="curve" smooth="yes"/>
      <point x="309" y="618" type="line" smooth="yes"/>
      <point x="310" y="674"/>
      <point x="286" y="703"/>
      <point x="210" y="703" type="curve" smooth="yes"/>
      <point x="133" y="703"/>
      <point x="100" y="666"/>
      <point x="99" y="626" type="curve"/>
      <point x="127" y="622" type="line"/>
      <point x="128" y="656"/>
      <point x="152" y="678"/>
      <point x="207" y="678" type="curve" smooth="yes"/>
      <point x="269" y="678"/>
      <point x="278" y="654"/>
      <point x="278" y="634" type="curve"/>
      <point x="278" y="608"/>
      <point x="231" y="602"/>
      <point x="182" y="591" type="curve" smooth="yes"/>
      <point x="135" y="580"/>
      <point x="90" y="568"/>
    </contour>
    <contour>
      <point x="120" y="521" type="curve" smooth="yes"/>
      <point x="120" y="557"/>
      <point x="153" y="559"/>
      <point x="192" y="568" type="curve" smooth="yes"/>
      <point x="224" y="575"/>
      <point x="256" y="581"/>
      <point x="277" y="596" type="curve"/>
      <point x="277" y="564" type="line" smooth="yes"/>
      <point x="277" y="517"/>
      <point x="235" y="487"/>
      <point x="165" y="487" type="curve" smooth="yes"/>
      <point x="132" y="487"/>
      <point x="120" y="501"/>
    </contour>
  </outline>
</glyph>
<glyph name="guillemetleft" format="2">
  <advance width="923"/>
  <unicode hex="00AB"/>
  <outline>
    <contour>
      <point x="124" y="266" type="line"/>
      <point x="170" y="289"/>
      <point x="235" y="320"/>
      <point x="299" y="350" type="curve" smooth="yes"/>
      <point x="357" y="378"/>
      <point x="413" y="404"/>
      <point x="452" y="423" type="curve"/>
      <point x="426" y="460" type="line"/>
      <point x="394" y="442"/>
      <point x="339" y="414"/>
      <point x="282" y="386" type="curve" smooth="yes"/>
      <point x="223" y="356"/>
      <point x="163" y="327"/>
      <point x="124" y="309" type="curve"/>
    </contour>
    <contour>
      <point x="427" y="114" type="curve"/>
      <point x="451" y="151" type="line"/>
      <point x="414" y="168"/>
      <point x="362" y="193"/>
      <point x="308" y="219" type="curve" smooth="yes"/>
      <point x="241" y="251"/>
      <point x="172" y="285"/>
      <point x="124" y="309" type="curve"/>
      <point x="124" y="266" type="line"/>
      <point x="163" y="248"/>
      <point x="224" y="218"/>
      <point x="283" y="188" type="curve" smooth="yes"/>
      <point x="342" y="158"/>
      <point x="398" y="129"/>
    </contour>
    <contour>
      <point x="451" y="266" type="line"/>
      <point x="497" y="289"/>
      <point x="562" y="320"/>
      <point x="626" y="350" type="curve" smooth="yes"/>
      <point x="684" y="378"/>
      <point x="740" y="404"/>
      <point x="779" y="423" type="curve"/>
      <point x="753" y="460" type="line"/>
      <point x="721" y="442"/>
      <point x="666" y="414"/>
      <point x="609" y="386" type="curve" smooth="yes"/>
      <point x="550" y="356"/>
      <point x="490" y="327"/>
      <point x="451" y="309" type="curve"/>
    </contour>
    <contour>
      <point x="754" y="114" type="curve"/>
      <point x="778" y="151" type="line"/>
      <point x="741" y="168"/>
      <point x="689" y="193"/>
      <point x="635" y="219" type="curve" smooth="yes"/>
      <point x="568" y="251"/>
      <point x="499" y="285"/>
      <point x="451" y="309" type="curve"/>
      <point x="451" y="266" type="line"/>
      <point x="490" y="248"/>
      <point x="551" y="218"/>
      <point x="610" y="188" type="curve" smooth="yes"/>
      <point x="669" y="158"/>
      <point x="725" y="129"/>
    </contour>
  </outline>
</glyph>
<glyph name="logicalnot" format="2">
  <advance width="630"/>
  <unicode hex="00AC"/>
  <outline>
    <contour>
      <point x="36" y="327" type="line"/>
      <point x="74" y="329"/>
      <point x="272" y="331"/>
      <point x="315" y="331" type="curve" smooth="yes"/>
      <point x="360" y="331"/>
      <point x="550" y="331"/>
      <point x="586" y="330" type="curve"/>
      <point x="588" y="365" type="line"/>
      <point x="549" y="362"/>
      <point x="354" y="360"/>
      <point x="307" y="360" type="curve" smooth="yes"/>
      <point x="262" y="360"/>
      <point x="72" y="360"/>
      <point x="34" y="362" type="curve"/>
    </contour>
    <contour>
      <point x="558" y="154" type="curve"/>
      <point x="591" y="156" type="line"/>
      <point x="590" y="177"/>
      <point x="588" y="238"/>
      <point x="587" y="275" type="curve" smooth="yes"/>
      <point x="586" y="308"/>
      <point x="587" y="336"/>
      <point x="588" y="365" type="curve"/>
      <point x="555" y="354" type="line"/>
      <point x="556" y="346"/>
      <point x="559" y="289"/>
      <point x="559" y="267" type="curve" smooth="yes"/>
      <point x="559" y="229"/>
      <point x="559" y="174"/>
    </contour>
  </outline>
</glyph>
<glyph name="registered" format="2">
  <advance width="550"/>
  <unicode hex="00AE"/>
  <outline>
    <contour>
      <point x="267" y="238" type="curve" smooth="yes"/>
      <point x="440" y="238"/>
      <point x="506" y="343"/>
      <point x="506" y="462" type="curve" smooth="yes"/>
      <point x="506" y="587"/>
      <point x="444" y="693"/>
      <point x="276" y="693" type="curve" smooth="yes"/>
      <point x="109" y="693"/>
      <point x="43" y="584"/>
      <point x="43" y="464" type="curve" smooth="yes"/>
      <point x="43" y="340"/>
      <point x="101" y="238"/>
    </contour>
    <contour>
      <point x="271" y="267" type="curve" smooth="yes"/>
      <point x="122" y="267"/>
      <point x="71" y="359"/>
      <point x="71" y="464" type="curve" smooth="yes"/>
      <point x="71" y="570"/>
      <point x="124" y="664"/>
      <point x="273" y="664" type="curve" smooth="yes"/>
      <point x="425" y="664"/>
      <point x="478" y="570"/>
      <point x="478" y="463" type="curve" smooth="yes"/>
      <point x="478" y="359"/>
      <point x="423" y="267"/>
    </contour>
    <contour>
      <point x="344" y="331" type="curve"/>
      <point x="371" y="332" type="line"/>
      <point x="350" y="367"/>
      <point x="330" y="408"/>
      <point x="315" y="442" type="curve"/>
      <point x="341" y="457"/>
      <point x="357" y="482"/>
      <point x="357" y="517" type="curve" smooth="yes"/>
      <point x="357" y="591"/>
      <point x="322" y="610"/>
      <point x="260" y="610" type="curve" smooth="yes"/>
      <point x="229" y="610"/>
      <point x="216" y="609"/>
      <point x="202" y="608" type="curve"/>
      <point x="203" y="577"/>
      <point x="205" y="518"/>
      <point x="205" y="470" type="curve" smooth="yes"/>
      <point x="205" y="421"/>
      <point x="204" y="363"/>
      <point x="204" y="332" type="curve"/>
      <point x="229" y="333" type="line"/>
      <point x="229" y="362"/>
      <point x="228" y="390"/>
      <point x="228" y="419" type="curve"/>
      <point x="252" y="420"/>
      <point x="275" y="424"/>
      <point x="294" y="432" type="curve"/>
      <point x="312" y="399"/>
      <point x="330" y="361"/>
    </contour>
    <contour>
      <point x="228" y="442" type="curve"/>
      <point x="227" y="460"/>
      <point x="227" y="480"/>
      <point x="227" y="499" type="curve" smooth="yes"/>
      <point x="227" y="531"/>
      <point x="228" y="562"/>
      <point x="229" y="586" type="curve"/>
      <point x="238" y="587"/>
      <point x="248" y="587"/>
      <point x="264" y="587" type="curve" smooth="yes"/>
      <point x="315" y="587"/>
      <point x="334" y="566"/>
      <point x="334" y="515" type="curve" smooth="yes"/>
      <point x="334" y="472"/>
      <point x="293" y="443"/>
    </contour>
  </outline>
</glyph>
<glyph name="degree" format="2">
  <advance width="439"/>
  <unicode hex="00B0"/>
  <outline>
    <contour>
      <point x="221" y="501" type="curve" smooth="yes"/>
      <point x="304" y="501"/>
      <point x="348" y="551"/>
      <point x="348" y="609" type="curve" smooth="yes"/>
      <point x="348" y="659"/>
      <point x="304" y="703"/>
      <point x="218" y="703" type="curve"/>
      <point x="131" y="703"/>
      <point x="91" y="654"/>
      <point x="91" y="599" type="curve" smooth="yes"/>
      <point x="91" y="550"/>
      <point x="132" y="501"/>
    </contour>
    <contour>
      <point x="222" y="524" type="curve" smooth="yes"/>
      <point x="136" y="524"/>
      <point x="119" y="571"/>
      <point x="119" y="603" type="curve" smooth="yes"/>
      <point x="119" y="637"/>
      <point x="147" y="680"/>
      <point x="218" y="680" type="curve" smooth="yes"/>
      <point x="279" y="680"/>
      <point x="319" y="652"/>
      <point x="319" y="602" type="curve" smooth="yes"/>
      <point x="319" y="567"/>
      <point x="295" y="524"/>
    </contour>
  </outline>
</glyph>
<glyph name="plusminus" format="2">
  <advance width="580"/>
  <unicode hex="00B1"/>
  <outline>
    <contour>
      <point x="320" y="189" type="line"/>
      <point x="317" y="221"/>
      <point x="312" y="326"/>
      <point x="312" y="382" type="curve" smooth="yes"/>
      <point x="312" y="436"/>
      <point x="316" y="535"/>
      <point x="318" y="557" type="curve"/>
      <point x="274" y="554" type="line"/>
      <point x="275" y="529"/>
      <point x="278" y="432"/>
      <point x="278" y="381" type="curve" smooth="yes"/>
      <point x="278" y="328"/>
      <point x="277" y="216"/>
      <point x="275" y="187" type="curve"/>
    </contour>
    <contour>
      <point x="83" y="99" type="line"/>
      <point x="112" y="100"/>
      <point x="255" y="103"/>
      <point x="300" y="103" type="curve" smooth="yes"/>
      <point x="347" y="103"/>
      <point x="482" y="103"/>
      <point x="509" y="102" type="curve"/>
      <point x="511" y="141" type="line"/>
      <point x="482" y="140"/>
      <point x="341" y="138"/>
      <point x="292" y="136" type="curve" smooth="yes"/>
      <point x="244" y="134"/>
      <point x="108" y="137"/>
      <point x="80" y="138" type="curve"/>
    </contour>
    <contour>
      <point x="80" y="349" type="line"/>
      <point x="113" y="351"/>
      <point x="261" y="354"/>
      <point x="311" y="354" type="curve" smooth="yes"/>
      <point x="361" y="354"/>
      <point x="489" y="352"/>
      <point x="510" y="350" type="curve"/>
      <point x="514" y="391" type="line"/>
      <point x="485" y="389"/>
      <point x="355" y="388"/>
      <point x="310" y="387" type="curve" smooth="yes"/>
      <point x="261" y="386"/>
      <point x="114" y="387"/>
      <point x="84" y="388" type="curve"/>
    </contour>
  </outline>
</glyph>
<glyph name="twosuperior" format="2">
  <advance width="352"/>
  <unicode hex="00B2"/>
  <outline>
    <contour>
      <point x="105" y="573" type="line"/>
      <point x="186" y="607"/>
      <point x="261" y="652"/>
      <point x="261" y="727" type="curve" smooth="yes"/>
      <point x="261" y="764"/>
      <point x="241" y="805"/>
      <point x="177" y="805" type="curve" smooth="yes"/>
      <point x="116" y="805"/>
      <point x="89" y="769"/>
      <point x="89" y="724" type="curve" smooth="yes"/>
      <point x="89" y="716"/>
      <point x="90" y="709"/>
      <point x="91" y="701" type="curve"/>
      <point x="114" y="702" type="line"/>
      <point x="113" y="709"/>
      <point x="113" y="715"/>
      <point x="113" y="722" type="curve" smooth="yes"/>
      <point x="113" y="757"/>
      <point x="126" y="785"/>
      <point x="175" y="785" type="curve" smooth="yes"/>
      <point x="225" y="785"/>
      <point x="235" y="754"/>
      <point x="235" y="721" type="curve" smooth="yes"/>
      <point x="235" y="655"/>
      <point x="159" y="620"/>
      <point x="83" y="584" type="curve"/>
    </contour>
    <contour>
      <point x="82" y="563" type="line"/>
      <point x="98" y="564"/>
      <point x="149" y="565"/>
      <point x="174" y="565" type="curve" smooth="yes"/>
      <point x="189" y="565"/>
      <point x="249" y="565"/>
      <point x="265" y="565" type="curve"/>
      <point x="264" y="587" type="line"/>
      <point x="250" y="586"/>
      <point x="193" y="585"/>
      <point x="179" y="585" type="curve" smooth="yes"/>
      <point x="153" y="585"/>
      <point x="119" y="584"/>
      <point x="83" y="584" type="curve"/>
    </contour>
  </outline>
</glyph>
<glyph name="threesuperior" format="2">
  <advance width="352"/>
  <unicode hex="00B3"/>
  <outline>
    <contour>
      <point x="178" y="559" type="curve" smooth="yes"/>
      <point x="244" y="559"/>
      <point x="267" y="589"/>
      <point x="267" y="623" type="curve" smooth="yes"/>
      <point x="267" y="642"/>
      <point x="255" y="664"/>
      <point x="226" y="669" type="curve"/>
      <point x="252" y="678"/>
      <point x="271" y="704"/>
      <point x="271" y="738" type="curve" smooth="yes"/>
      <point x="271" y="771"/>
      <point x="249" y="806"/>
      <point x="185" y="806" type="curve" smooth="yes"/>
      <point x="120" y="806"/>
      <point x="97" y="770"/>
      <point x="97" y="734" type="curve" smooth="yes"/>
      <point x="97" y="728"/>
      <point x="98" y="721"/>
      <point x="99" y="715" type="curve"/>
      <point x="121" y="716" type="line"/>
      <point x="120" y="723"/>
      <point x="119" y="730"/>
      <point x="119" y="736" type="curve" smooth="yes"/>
      <point x="119" y="764"/>
      <point x="135" y="785"/>
      <point x="182" y="785" type="curve" smooth="yes"/>
      <point x="227" y="785"/>
      <point x="248" y="769"/>
      <point x="248" y="735" type="curve" smooth="yes"/>
      <point x="248" y="686"/>
      <point x="216" y="678"/>
      <point x="168" y="678" type="curve" smooth="yes"/>
      <point x="162" y="678"/>
      <point x="137" y="678"/>
      <point x="133" y="678" type="curve"/>
      <point x="133" y="657" type="line"/>
      <point x="139" y="657"/>
      <point x="167" y="657"/>
      <point x="170" y="657" type="curve" smooth="yes"/>
      <point x="217" y="657"/>
      <point x="243" y="651"/>
      <point x="243" y="622" type="curve" smooth="yes"/>
      <point x="243" y="594"/>
      <point x="232" y="578"/>
      <point x="179" y="578" type="curve" smooth="yes"/>
      <point x="127" y="578"/>
      <point x="118" y="597"/>
      <point x="116" y="616" type="curve"/>
      <point x="93" y="615" type="line"/>
      <point x="97" y="587"/>
      <point x="115" y="559"/>
    </contour>
  </outline>
</glyph>
<glyph name="paragraph" format="2">
  <advance width="680"/>
  <unicode hex="00B6"/>
  <outline>
    <contour>
      <point x="376" y="224" type="curve"/>
      <point x="418" y="710" type="line"/>
      <point x="386" y="711"/>
      <point x="282" y="712"/>
      <point x="251" y="712" type="curve" smooth="yes"/>
      <point x="136" y="712"/>
      <point x="98" y="645"/>
      <point x="98" y="457" type="curve" smooth="yes"/>
      <point x="98" y="291"/>
      <point x="173" y="228"/>
    </contour>
    <contour>
      <point x="372" y="-102" type="curve"/>
      <point x="419" y="-101" type="line"/>
      <point x="418" y="-44"/>
      <point x="415" y="207"/>
      <point x="415" y="357" type="curve" smooth="yes"/>
      <point x="415" y="499"/>
      <point x="417" y="664"/>
      <point x="418" y="710" type="curve"/>
      <point x="370" y="706" type="line"/>
      <point x="372" y="658"/>
      <point x="376" y="459"/>
      <point x="376" y="359" type="curve" smooth="yes"/>
      <point x="376" y="257"/>
      <point x="373" y="-37"/>
    </contour>
    <contour>
      <point x="499" y="-102" type="curve"/>
      <point x="546" y="-101" type="line"/>
      <point x="545" y="-44"/>
      <point x="542" y="207"/>
      <point x="542" y="357" type="curve" smooth="yes"/>
      <point x="542" y="499"/>
      <point x="544" y="661"/>
      <point x="545" y="707" type="curve"/>
      <point x="497" y="703" type="line"/>
      <point x="499" y="655"/>
      <point x="503" y="459"/>
      <point x="503" y="359" type="curve" smooth="yes"/>
      <point x="503" y="257"/>
      <point x="500" y="-37"/>
    </contour>
  </outline>
</glyph>
<glyph name="periodcentered" format="2">
  <advance width="300"/>
  <unicode hex="00B7"/>
  <outline>
    <contour>
      <point x="172" y="254" type="line"/>
      <point x="170" y="354" type="line"/>
      <point x="127" y="351" type="line"/>
      <point x="129" y="256" type="line"/>
    </contour>
  </outline>
</glyph>
<glyph name="onesuperior" format="2">
  <advance width="352"/>
  <unicode hex="00B9"/>
  <outline>
    <contour>
      <point x="208" y="567" type="curve"/>
      <point x="239" y="567" type="line"/>
      <point x="236" y="638"/>
      <point x="236" y="728"/>
      <point x="240" y="801" type="curve"/>
      <point x="224" y="801" type="line"/>
      <point x="210" y="773" type="line"/>
      <point x="210" y="717"/>
      <point x="210" y="619"/>
    </contour>
    <contour>
      <point x="94" y="742" type="line"/>
      <point x="138" y="743"/>
      <point x="196" y="748"/>
      <point x="214" y="754" type="curve"/>
      <point x="224" y="801" type="line"/>
      <point x="201" y="776"/>
      <point x="142" y="770"/>
      <point x="93" y="764" type="curve"/>
    </contour>
  </outline>
</glyph>
<glyph name="ordmasculine" format="2">
  <advance width="410"/>
  <unicode hex="00BA"/>
  <outline>
    <contour>
      <point x="201" y="469" type="curve" smooth="yes"/>
      <point x="277" y="469"/>
      <point x="317" y="514"/>
      <point x="317" y="590" type="curve" smooth="yes"/>
      <point x="317" y="662"/>
      <point x="283" y="703"/>
      <point x="208" y="703" type="curve" smooth="yes"/>
      <point x="132" y="703"/>
      <point x="93" y="656"/>
      <point x="93" y="588" type="curve" smooth="yes"/>
      <point x="93" y="515"/>
      <point x="129" y="469"/>
    </contour>
    <contour>
      <point x="203" y="499" type="curve" smooth="yes"/>
      <point x="146" y="499"/>
      <point x="125" y="530"/>
      <point x="125" y="589" type="curve" smooth="yes"/>
      <point x="125" y="647"/>
      <point x="149" y="676"/>
      <point x="207" y="676" type="curve" smooth="yes"/>
      <point x="263" y="676"/>
      <point x="285" y="648"/>
      <point x="285" y="593" type="curve" smooth="yes"/>
      <point x="285" y="546"/>
      <point x="273" y="499"/>
    </contour>
  </outline>
</glyph>
<glyph name="guillemetright" format="2">
  <advance width="923"/>
  <unicode hex="00BB"/>
  <outline>
    <contour>
      <point x="779" y="265" type="curve"/>
      <point x="779" y="308" type="line"/>
      <point x="740" y="326"/>
      <point x="679" y="356"/>
      <point x="620" y="386" type="curve" smooth="yes"/>
      <point x="561" y="416"/>
      <point x="505" y="445"/>
      <point x="476" y="460" type="curve"/>
      <point x="452" y="423" type="line"/>
      <point x="489" y="406"/>
      <point x="541" y="381"/>
      <point x="595" y="355" type="curve" smooth="yes"/>
      <point x="662" y="323"/>
      <point x="731" y="289"/>
    </contour>
    <contour>
      <point x="452" y="265" type="curve"/>
      <point x="452" y="308" type="line"/>
      <point x="413" y="326"/>
      <point x="352" y="356"/>
      <point x="293" y="386" type="curve" smooth="yes"/>
      <point x="234" y="416"/>
      <point x="178" y="445"/>
      <point x="149" y="460" type="curve"/>
      <point x="125" y="423" type="line"/>
      <point x="162" y="406"/>
      <point x="214" y="381"/>
      <point x="268" y="355" type="curve" smooth="yes"/>
      <point x="335" y="323"/>
      <point x="404" y="289"/>
    </contour>
    <contour>
      <point x="477" y="114" type="line"/>
      <point x="509" y="132"/>
      <point x="564" y="160"/>
      <point x="621" y="188" type="curve" smooth="yes"/>
      <point x="680" y="218"/>
      <point x="740" y="247"/>
      <point x="779" y="265" type="curve"/>
      <point x="779" y="308" type="line"/>
      <point x="733" y="285"/>
      <point x="668" y="254"/>
      <point x="604" y="224" type="curve" smooth="yes"/>
      <point x="546" y="196"/>
      <point x="490" y="170"/>
      <point x="451" y="151" type="curve"/>
    </contour>
    <contour>
      <point x="150" y="114" type="line"/>
      <point x="182" y="132"/>
      <point x="237" y="160"/>
      <point x="294" y="188" type="curve" smooth="yes"/>
      <point x="353" y="218"/>
      <point x="413" y="247"/>
      <point x="452" y="265" type="curve"/>
      <point x="452" y="308" type="line"/>
      <point x="406" y="285"/>
      <point x="341" y="254"/>
      <point x="277" y="224" type="curve" smooth="yes"/>
      <point x="219" y="196"/>
      <point x="163" y="170"/>
      <point x="124" y="151" type="curve"/>
    </contour>
  </outline>
</glyph>
<glyph name="onequarter" format="2">
  <advance width="860"/>
  <unicode hex="00BC"/>
  <outline>
    <contour>
      <point x="152" y="0" type="curve"/>
      <point x="189" y="1" type="line"/>
      <point x="275" y="116"/>
      <point x="359" y="231"/>
      <point x="446" y="345" type="curve" smooth="yes"/>
      <point x="535" y="462"/>
      <point x="624" y="578"/>
      <point x="713" y="695" type="curve"/>
      <point x="674" y="696" type="line"/>
      <point x="586" y="575"/>
      <point x="503" y="455"/>
      <point x="410" y="334" type="curve" smooth="yes"/>
      <point x="325" y="223"/>
      <point x="238" y="111"/>
    </contour>
    <contour>
      <point x="190" y="462" type="curve"/>
      <point x="221" y="462" type="line"/>
      <point x="218" y="533"/>
      <point x="218" y="623"/>
      <point x="222" y="696" type="curve"/>
      <point x="206" y="696" type="line"/>
      <point x="183" y="671"/>
      <point x="124" y="665"/>
      <point x="75" y="659" type="curve"/>
      <point x="76" y="637" type="line"/>
      <point x="117" y="638"/>
      <point x="171" y="642"/>
      <point x="192" y="648" type="curve"/>
      <point x="192" y="591"/>
      <point x="192" y="508"/>
    </contour>
    <contour>
      <point x="681" y="-1" type="line"/>
      <point x="706" y="0" type="line"/>
      <point x="705" y="59" type="line"/>
      <point x="759" y="59" type="line"/>
      <point x="759" y="81" type="line"/>
      <point x="705" y="80" type="line"/>
      <point x="705" y="127" type="line" smooth="yes"/>
      <point x="705" y="169"/>
      <point x="706" y="214"/>
      <point x="706" y="235" type="curve"/>
      <point x="680" y="236" type="line"/>
      <point x="656" y="209"/>
      <point x="633" y="181"/>
      <point x="609" y="154" type="curve" smooth="yes"/>
      <point x="544" y="79" type="line"/>
      <point x="549" y="58" type="line"/>
      <point x="682" y="59" type="line"/>
    </contour>
    <contour>
      <point x="570" y="79" type="line"/>
      <point x="681" y="205" type="line"/>
      <point x="682" y="79" type="line"/>
    </contour>
  </outline>
</glyph>
<glyph name="onehalf" format="2">
  <advance width="860"/>
  <unicode hex="00BD"/>
  <outline>
    <contour>
      <point x="152" y="0" type="curve"/>
      <point x="189" y="1" type="line"/>
      <point x="275" y="116"/>
      <point x="359" y="231"/>
      <point x="446" y="345" type="curve" smooth="yes"/>
      <point x="535" y="462"/>
      <point x="624" y="578"/>
      <point x="713" y="695" type="curve"/>
      <point x="674" y="696" type="line"/>
      <point x="586" y="575"/>
      <point x="503" y="455"/>
      <point x="410" y="334" type="curve" smooth="yes"/>
      <point x="325" y="223"/>
      <point x="238" y="111"/>
    </contour>
    <contour>
      <point x="571" y="-2" type="line"/>
      <point x="587" y="-1"/>
      <point x="638" y="0"/>
      <point x="663" y="0" type="curve" smooth="yes"/>
      <point x="754" y="0" type="line"/>
      <point x="753" y="22" type="line"/>
      <point x="744" y="21"/>
      <point x="701" y="20"/>
      <point x="620" y="19" type="curve"/>
      <point x="690" y="52"/>
      <point x="750" y="95"/>
      <point x="750" y="162" type="curve" smooth="yes"/>
      <point x="750" y="199"/>
      <point x="730" y="240"/>
      <point x="666" y="240" type="curve" smooth="yes"/>
      <point x="605" y="240"/>
      <point x="578" y="204"/>
      <point x="578" y="159" type="curve" smooth="yes"/>
      <point x="578" y="151"/>
      <point x="579" y="144"/>
      <point x="580" y="136" type="curve"/>
      <point x="603" y="137" type="line"/>
      <point x="602" y="144"/>
      <point x="602" y="150"/>
      <point x="602" y="157" type="curve" smooth="yes"/>
      <point x="602" y="192"/>
      <point x="615" y="220"/>
      <point x="664" y="220" type="curve" smooth="yes"/>
      <point x="714" y="220"/>
      <point x="724" y="189"/>
      <point x="724" y="156" type="curve" smooth="yes"/>
      <point x="724" y="90"/>
      <point x="648" y="55"/>
      <point x="572" y="19" type="curve"/>
    </contour>
    <contour>
      <point x="190" y="462" type="curve"/>
      <point x="221" y="462" type="line"/>
      <point x="218" y="533"/>
      <point x="218" y="623"/>
      <point x="222" y="696" type="curve"/>
      <point x="206" y="696" type="line"/>
      <point x="187" y="676"/>
      <point x="158" y="668"/>
      <point x="75" y="659" type="curve"/>
      <point x="76" y="637" type="line"/>
      <point x="117" y="638"/>
      <point x="171" y="642"/>
      <point x="192" y="648" type="curve"/>
      <point x="192" y="591"/>
      <point x="192" y="508"/>
    </contour>
  </outline>
</glyph>
<glyph name="threequarters" format="2">
  <advance width="860"/>
  <unicode hex="00BE"/>
  <outline>
    <contour>
      <point x="152" y="0" type="curve"/>
      <point x="189" y="1" type="line"/>
      <point x="275" y="116"/>
      <point x="359" y="231"/>
      <point x="446" y="345" type="curve" smooth="yes"/>
      <point x="535" y="462"/>
      <point x="624" y="578"/>
      <point x="713" y="695" type="curve"/>
      <point x="674" y="696" type="line"/>
      <point x="586" y="575"/>
      <point x="503" y="455"/>
      <point x="410" y="334" type="curve" smooth="yes"/>
      <point x="325" y="223"/>
      <point x="238" y="111"/>
    </contour>
    <contour>
      <point x="188" y="450" type="curve" smooth="yes"/>
      <point x="254" y="450"/>
      <point x="277" y="480"/>
      <point x="277" y="514" type="curve" smooth="yes"/>
      <point x="277" y="533"/>
      <point x="265" y="555"/>
      <point x="236" y="560" type="curve"/>
      <point x="262" y="569"/>
      <point x="281" y="595"/>
      <point x="281" y="629" type="curve" smooth="yes"/>
      <point x="281" y="662"/>
      <point x="259" y="697"/>
      <point x="195" y="697" type="curve" smooth="yes"/>
      <point x="130" y="697"/>
      <point x="107" y="661"/>
      <point x="107" y="625" type="curve" smooth="yes"/>
      <point x="107" y="619"/>
      <point x="108" y="612"/>
      <point x="109" y="606" type="curve"/>
      <point x="131" y="607" type="line"/>
      <point x="130" y="614"/>
      <point x="129" y="621"/>
      <point x="129" y="627" type="curve" smooth="yes"/>
      <point x="129" y="655"/>
      <point x="145" y="676"/>
      <point x="192" y="676" type="curve" smooth="yes"/>
      <point x="237" y="676"/>
      <point x="258" y="660"/>
      <point x="258" y="626" type="curve" smooth="yes"/>
      <point x="258" y="577"/>
      <point x="226" y="569"/>
      <point x="178" y="569" type="curve" smooth="yes"/>
      <point x="172" y="569"/>
      <point x="147" y="569"/>
      <point x="143" y="569" type="curve"/>
      <point x="143" y="548" type="line"/>
      <point x="149" y="548"/>
      <point x="177" y="548"/>
      <point x="180" y="548" type="curve" smooth="yes"/>
      <point x="227" y="548"/>
      <point x="253" y="542"/>
      <point x="253" y="513" type="curve" smooth="yes"/>
      <point x="253" y="485"/>
      <point x="242" y="469"/>
      <point x="189" y="469" type="curve" smooth="yes"/>
      <point x="137" y="469"/>
      <point x="128" y="488"/>
      <point x="126" y="507" type="curve"/>
      <point x="103" y="506" type="line"/>
      <point x="107" y="478"/>
      <point x="125" y="450"/>
    </contour>
    <contour>
      <point x="681" y="-1" type="line"/>
      <point x="706" y="0" type="line"/>
      <point x="705" y="59" type="line"/>
      <point x="759" y="59" type="line"/>
      <point x="759" y="81" type="line"/>
      <point x="705" y="80" type="line"/>
      <point x="705" y="127" type="line" smooth="yes"/>
      <point x="705" y="169"/>
      <point x="706" y="214"/>
      <point x="706" y="235" type="curve"/>
      <point x="680" y="236" type="line"/>
      <point x="656" y="209"/>
      <point x="633" y="181"/>
      <point x="609" y="154" type="curve" smooth="yes"/>
      <point x="544" y="79" type="line"/>
      <point x="549" y="58" type="line"/>
      <point x="682" y="59" type="line"/>
    </contour>
    <contour>
      <point x="570" y="79" type="line"/>
      <point x="681" y="205" type="line"/>
      <point x="682" y="79" type="line"/>
    </contour>
  </outline>
</glyph>
<glyph name="questiondown" format="2">
  <advance width="666"/>
  <unicode hex="00BF"/>
  <outline>
    <contour>
      <point x="321" y="338" type="line"/>
      <point x="323" y="323"/>
      <point x="325" y="309"/>
      <point x="325" y="295" type="curve" smooth="yes"/>
      <point x="325" y="247"/>
      <point x="289" y="218"/>
      <point x="248" y="186" type="curve" smooth="yes"/>
      <point x="199" y="145"/>
      <point x="143" y="99"/>
      <point x="143" y="3" type="curve" smooth="yes"/>
      <point x="143" y="-73"/>
      <point x="183" y="-161"/>
      <point x="329" y="-161" type="curve" smooth="yes"/>
      <point x="463" y="-161"/>
      <point x="523" y="-78"/>
      <point x="523" y="21" type="curve" smooth="yes"/>
      <point x="523" y="44"/>
      <point x="520" y="67"/>
      <point x="514" y="91" type="curve"/>
      <point x="481" y="92" type="line"/>
      <point x="487" y="69"/>
      <point x="490" y="47"/>
      <point x="490" y="24" type="curve" smooth="yes"/>
      <point x="490" y="-58"/>
      <point x="445" y="-130"/>
      <point x="331" y="-130" type="curve" smooth="yes"/>
      <point x="206" y="-130"/>
      <point x="179" y="-62"/>
      <point x="179" y="6" type="curve" smooth="yes"/>
      <point x="179" y="86"/>
      <point x="222" y="127"/>
      <point x="266" y="162" type="curve" smooth="yes"/>
      <point x="312" y="199"/>
      <point x="359" y="229"/>
      <point x="359" y="290" type="curve" smooth="yes"/>
      <point x="359" y="304"/>
      <point x="358" y="320"/>
      <point x="356" y="337" type="curve"/>
    </contour>
    <contour>
      <point x="357" y="558" type="line"/>
      <point x="312" y="554" type="line"/>
      <point x="316" y="464" type="line"/>
      <point x="353" y="462" type="line"/>
    </contour>
  </outline>
</glyph>
<glyph name="AE" format="2">
  <advance width="776"/>
  <unicode hex="00C6"/>
  <anchor x="439" y="693" name="top"/>
  <outline>
    <contour>
      <point x="35" y="7" type="curve"/>
      <point x="71" y="6" type="line"/>
      <point x="96" y="64"/>
      <point x="122" y="122"/>
      <point x="147" y="180" type="curve"/>
      <point x="359" y="184" type="line"/>
      <point x="356" y="-5" type="line"/>
      <point x="695" y="0" type="line"/>
      <point x="695" y="26" type="line"/>
      <point x="398" y="31" type="line"/>
      <point x="395" y="216" type="line"/>
      <point x="688" y="220" type="line"/>
      <point x="690" y="249" type="line"/>
      <point x="395" y="252" type="line"/>
      <point x="394" y="350" type="line" smooth="yes"/>
      <point x="394" y="442"/>
      <point x="396" y="599"/>
      <point x="397" y="661" type="curve"/>
      <point x="685" y="662" type="line"/>
      <point x="685" y="693" type="line"/>
      <point x="343" y="700" type="line"/>
      <point x="311" y="628"/>
      <point x="251" y="490"/>
      <point x="187" y="347" type="curve" smooth="yes"/>
      <point x="129" y="218"/>
      <point x="72" y="88"/>
    </contour>
    <contour>
      <point x="359" y="213" type="line"/>
      <point x="163" y="217" type="line"/>
      <point x="182" y="261"/>
      <point x="202" y="304"/>
      <point x="221" y="348" type="curve" smooth="yes"/>
      <point x="271" y="462"/>
      <point x="324" y="581"/>
      <point x="355" y="650" type="curve"/>
      <point x="357" y="586"/>
      <point x="360" y="468"/>
      <point x="360" y="352" type="curve" smooth="yes"/>
    </contour>
  </outline>
</glyph>
<glyph name="Thorn" format="2">
  <advance width="509"/>
  <unicode hex="00DE"/>
  <outline>
    <contour>
      <point x="123" y="140" type="line"/>
      <point x="338" y="140"/>
      <point x="461" y="189"/>
      <point x="461" y="367" type="curve" smooth="yes"/>
      <point x="461" y="530"/>
      <point x="383" y="583"/>
      <point x="213" y="583" type="curve" smooth="yes"/>
      <point x="179" y="583"/>
      <point x="141" y="581"/>
      <point x="99" y="578" type="curve"/>
      <point x="113" y="540" type="line"/>
      <point x="158" y="546"/>
      <point x="198" y="549"/>
      <point x="233" y="549" type="curve" smooth="yes"/>
      <point x="361" y="549"/>
      <point x="425" y="491"/>
      <point x="425" y="364" type="curve" smooth="yes"/>
      <point x="425" y="218"/>
      <point x="325" y="166"/>
      <point x="119" y="174" type="curve"/>
    </contour>
    <contour>
      <point x="92" y="-2" type="curve"/>
      <point x="134" y="1" type="line"/>
      <point x="132" y="101"/>
      <point x="130" y="265"/>
      <point x="130" y="350" type="curve"/>
      <point x="130" y="385"/>
      <point x="132" y="662"/>
      <point x="133" y="698" type="curve"/>
      <point x="89" y="708" type="line"/>
      <point x="92" y="628"/>
      <point x="96" y="477"/>
      <point x="96" y="352" type="curve"/>
      <point x="96" y="227"/>
      <point x="94" y="77"/>
    </contour>
  </outline>
</glyph>
<glyph name="germandbls" format="2">
  <advance width="577"/>
  <unicode hex="00DF"/>
  <outline>
    <contour>
      <point x="82" y="-1" type="curve"/>
      <point x="122" y="0" type="line"/>
      <point x="120" y="40"/>
      <point x="119" y="159"/>
      <point x="119" y="271" type="curve" smooth="yes"/>
      <point x="119" y="388"/>
      <point x="121" y="419"/>
      <point x="123" y="490" type="curve" smooth="yes"/>
      <point x="126" y="607"/>
      <point x="165" y="669"/>
      <point x="302" y="669" type="curve" smooth="yes"/>
      <point x="381" y="669"/>
      <point x="453" y="639"/>
      <point x="453" y="551" type="curve" smooth="yes"/>
      <point x="453" y="430"/>
      <point x="276" y="418"/>
      <point x="276" y="335" type="curve" smooth="yes"/>
      <point x="276" y="292"/>
      <point x="324" y="271"/>
      <point x="375" y="248" type="curve" smooth="yes"/>
      <point x="433" y="222"/>
      <point x="497" y="193"/>
      <point x="497" y="127" type="curve" smooth="yes"/>
      <point x="497" y="40"/>
      <point x="404" y="8"/>
      <point x="292" y="29" type="curve"/>
      <point x="290" y="0" type="line"/>
      <point x="423" y="-25"/>
      <point x="532" y="27"/>
      <point x="532" y="129" type="curve" smooth="yes"/>
      <point x="532" y="210"/>
      <point x="454" y="247"/>
      <point x="390" y="276" type="curve" smooth="yes"/>
      <point x="347" y="296"/>
      <point x="310" y="313"/>
      <point x="310" y="339" type="curve" smooth="yes"/>
      <point x="310" y="389"/>
      <point x="485" y="417"/>
      <point x="485" y="555" type="curve" smooth="yes"/>
      <point x="485" y="653"/>
      <point x="404" y="700"/>
      <point x="301" y="700" type="curve" smooth="yes"/>
      <point x="139" y="700"/>
      <point x="91" y="609"/>
      <point x="89" y="492" type="curve" smooth="yes"/>
      <point x="88" y="452"/>
      <point x="87" y="348"/>
      <point x="87" y="270" type="curve" smooth="yes"/>
      <point x="87" y="157"/>
      <point x="83" y="39"/>
    </contour>
  </outline>
</glyph>
<glyph name="ae" format="2">
  <advance width="773"/>
  <unicode hex="00E6"/>
  <anchor x="384" y="555" name="top"/>
  <outline>
    <contour>
      <point x="184" y="-10" type="curve" smooth="yes"/>
      <point x="294" y="-10"/>
      <point x="345" y="56"/>
      <point x="372" y="137" type="curve"/>
      <point x="390" y="52"/>
      <point x="447" y="-10"/>
      <point x="543" y="-10" type="curve" smooth="yes"/>
      <point x="670" y="-10"/>
      <point x="725" y="59"/>
      <point x="725" y="159" type="curve" smooth="yes"/>
      <point x="725" y="168"/>
      <point x="725" y="178"/>
      <point x="725" y="187" type="curve"/>
      <point x="690" y="187" type="line"/>
      <point x="691" y="177"/>
      <point x="692" y="167"/>
      <point x="692" y="158" type="curve" smooth="yes"/>
      <point x="692" y="76"/>
      <point x="652" y="20"/>
      <point x="547" y="20" type="curve" smooth="yes"/>
      <point x="465" y="20"/>
      <point x="424" y="70"/>
      <point x="405" y="140" type="curve" smooth="yes"/>
      <point x="394" y="179"/>
      <point x="390" y="225"/>
      <point x="389" y="273" type="curve"/>
      <point x="444" y="274"/>
      <point x="582" y="276"/>
      <point x="717" y="276" type="curve"/>
      <point x="722" y="306"/>
      <point x="724" y="336"/>
      <point x="724" y="365" type="curve" smooth="yes"/>
      <point x="724" y="477"/>
      <point x="683" y="565"/>
      <point x="558" y="565" type="curve" smooth="yes"/>
      <point x="472" y="565"/>
      <point x="421" y="529"/>
      <point x="384" y="451" type="curve"/>
      <point x="372" y="508"/>
      <point x="335" y="565"/>
      <point x="232" y="565" type="curve" smooth="yes"/>
      <point x="125" y="565"/>
      <point x="66" y="493"/>
      <point x="66" y="406" type="curve" smooth="yes"/>
      <point x="66" y="389"/>
      <point x="68" y="371"/>
      <point x="73" y="353" type="curve"/>
      <point x="104" y="356" type="line"/>
      <point x="100" y="372"/>
      <point x="98" y="389"/>
      <point x="98" y="404" type="curve" smooth="yes"/>
      <point x="98" y="475"/>
      <point x="138" y="535"/>
      <point x="232" y="535" type="curve" smooth="yes"/>
      <point x="321" y="535"/>
      <point x="355" y="490"/>
      <point x="355" y="396" type="curve" smooth="yes"/>
      <point x="348" y="357"/>
      <point x="335" y="352"/>
      <point x="200" y="292" type="curve" smooth="yes"/>
      <point x="124" y="258"/>
      <point x="49" y="213"/>
      <point x="49" y="119" type="curve" smooth="yes"/>
      <point x="49" y="42"/>
      <point x="100" y="-10"/>
    </contour>
    <contour>
      <point x="188" y="22" type="curve" smooth="yes"/>
      <point x="106" y="22"/>
      <point x="85" y="71"/>
      <point x="85" y="125" type="curve" smooth="yes"/>
      <point x="85" y="199"/>
      <point x="146" y="234"/>
      <point x="211" y="264" type="curve" smooth="yes"/>
      <point x="266" y="289"/>
      <point x="326" y="307"/>
      <point x="355" y="341" type="curve"/>
      <point x="355" y="298"/>
      <point x="355" y="254"/>
      <point x="355" y="211" type="curve" smooth="yes"/>
      <point x="355" y="110"/>
      <point x="285" y="22"/>
    </contour>
    <contour>
      <point x="389" y="304" type="line"/>
      <point x="390" y="355"/>
      <point x="397" y="405"/>
      <point x="414" y="446" type="curve" smooth="yes"/>
      <point x="437" y="500"/>
      <point x="480" y="538"/>
      <point x="552" y="538" type="curve" smooth="yes"/>
      <point x="657" y="538"/>
      <point x="693" y="470"/>
      <point x="693" y="375" type="curve" smooth="yes"/>
      <point x="693" y="353"/>
      <point x="691" y="330"/>
      <point x="687" y="306" type="curve"/>
    </contour>
  </outline>
</glyph>
<glyph name="eth" format="2">
  <advance width="483"/>
  <unicode hex="00F0"/>
  <outline>
    <contour>
      <point x="233" y="-10" type="curve" smooth="yes"/>
      <point x="361" y="-10"/>
      <point x="425" y="64"/>
      <point x="425" y="292" type="curve" smooth="yes"/>
      <point x="425" y="577"/>
      <point x="320" y="671"/>
      <point x="179" y="714" type="curve"/>
      <point x="165" y="688" type="line"/>
      <point x="314" y="649"/>
      <point x="389" y="527"/>
      <point x="389" y="363" type="curve" smooth="yes"/>
      <point x="389" y="314"/>
      <point x="389" y="280"/>
      <point x="389" y="226" type="curve" smooth="yes"/>
      <point x="389" y="95"/>
      <point x="345" y="19"/>
      <point x="234" y="19" type="curve" smooth="yes"/>
      <point x="146" y="19"/>
      <point x="88" y="71"/>
      <point x="88" y="204" type="curve" smooth="yes"/>
      <point x="88" y="349"/>
      <point x="152" y="405"/>
      <point x="244" y="405" type="curve" smooth="yes"/>
      <point x="330" y="405"/>
      <point x="399" y="344"/>
      <point x="389" y="226" type="curve"/>
      <point x="405" y="291" type="line"/>
      <point x="387" y="390"/>
      <point x="329" y="434"/>
      <point x="243" y="434" type="curve" smooth="yes"/>
      <point x="135" y="434"/>
      <point x="55" y="368"/>
      <point x="55" y="204" type="curve" smooth="yes"/>
      <point x="55" y="85"/>
      <point x="95" y="-10"/>
    </contour>
    <contour>
      <point x="220" y="514" type="line"/>
      <point x="235" y="525"/>
      <point x="294" y="564"/>
      <point x="327" y="587" type="curve" smooth="yes"/>
      <point x="351" y="604"/>
      <point x="422" y="647"/>
      <point x="443" y="661" type="curve"/>
      <point x="427" y="682" type="line"/>
      <point x="408" y="668"/>
      <point x="345" y="627"/>
      <point x="319" y="608" type="curve" smooth="yes"/>
      <point x="283" y="582"/>
      <point x="222" y="548"/>
      <point x="205" y="537" type="curve"/>
    </contour>
  </outline>
</glyph>
<glyph name="divide" format="2">
  <advance width="580"/>
  <unicode hex="00F7"/>
  <outline>
    <contour>
      <point x="84" y="273" type="line"/>
      <point x="104" y="274"/>
      <point x="255" y="275"/>
      <point x="286" y="275" type="curve" smooth="yes"/>
      <point x="317" y="275"/>
      <point x="473" y="274"/>
      <point x="496" y="273" type="curve"/>
      <point x="494" y="306" type="line"/>
      <point x="475" y="305"/>
      <point x="323" y="303"/>
      <point x="291" y="304" type="curve" smooth="yes"/>
      <point x="257" y="305"/>
      <point x="105" y="306"/>
      <point x="86" y="307" type="curve"/>
    </contour>
    <contour>
      <point x="289" y="115" type="curve" smooth="yes"/>
      <point x="310" y="115"/>
      <point x="327" y="131"/>
      <point x="327" y="152" type="curve" smooth="yes"/>
      <point x="327" y="173"/>
      <point x="310" y="189"/>
      <point x="286" y="189" type="curve" smooth="yes"/>
      <point x="264" y="189"/>
      <point x="249" y="175"/>
      <point x="249" y="154" type="curve" smooth="yes"/>
      <point x="249" y="132"/>
      <point x="266" y="115"/>
    </contour>
    <contour>
      <point x="290" y="400" type="curve" smooth="yes"/>
      <point x="311" y="400"/>
      <point x="327" y="416"/>
      <point x="327" y="437" type="curve" smooth="yes"/>
      <point x="327" y="458"/>
      <point x="309" y="474"/>
      <point x="285" y="474" type="curve" smooth="yes"/>
      <point x="263" y="474"/>
      <point x="249" y="460"/>
      <point x="249" y="439" type="curve" smooth="yes"/>
      <point x="249" y="417"/>
      <point x="267" y="400"/>
    </contour>
  </outline>
</glyph>
<glyph name="Hbar" format="2">
  <advance width="613"/>
  <unicode hex="0126"/>
  <anchor x="306" y="459" name="_center"/>
  <outline>
    <contour>
      <point x="48" y="445" type="line"/>
      <point x="48" y="445"/>
      <point x="212" y="446"/>
      <point x="303" y="446" type="curve"/>
      <point x="363" y="446"/>
      <point x="567" y="445"/>
      <point x="567" y="445" type="curve"/>
      <point x="568" y="472" type="line"/>
      <point x="568" y="472"/>
      <point x="376" y="469"/>
      <point x="310" y="470" type="curve"/>
      <point x="215" y="471"/>
      <point x="48" y="472"/>
      <point x="48" y="472" type="curve"/>
    </contour>
    <component base="H"/>
  </outline>
</glyph>
<glyph name="kgreenlandic" format="2">
  <advance width="502"/>
  <unicode hex="0138"/>
  <outline>
    <contour>
      <point x="436" y="0" type="curve"/>
      <point x="480" y="3" type="line"/>
      <point x="364" y="103"/>
      <point x="256" y="200"/>
      <point x="156" y="291" type="curve"/>
      <point x="264" y="387"/>
      <point x="364" y="478"/>
      <point x="456" y="559" type="curve"/>
      <point x="415" y="561" type="line"/>
      <point x="334" y="485"/>
      <point x="242" y="403"/>
      <point x="113" y="289" type="curve"/>
      <point x="218" y="197"/>
      <point x="341" y="88"/>
    </contour>
    <contour>
      <point x="93" y="0" type="curve"/>
      <point x="128" y="0" type="line"/>
      <point x="128" y="61"/>
      <point x="128" y="180"/>
      <point x="128" y="284" type="curve"/>
      <point x="128" y="389"/>
      <point x="129" y="503"/>
      <point x="130" y="560" type="curve"/>
      <point x="93" y="555" type="line"/>
      <point x="94" y="502"/>
      <point x="96" y="392"/>
      <point x="96" y="285" type="curve"/>
      <point x="96" y="179"/>
      <point x="94" y="60"/>
    </contour>
  </outline>
</glyph>
<glyph name="lcaron" format="2">
  <advance width="267"/>
  <unicode hex="013E"/>
  <outline>
    <contour>
      <point x="106" y="0" type="curve"/>
      <point x="141" y="6" type="line"/>
      <point x="141" y="64"/>
      <point x="141" y="180"/>
      <point x="141" y="284" type="curve"/>
      <point x="141" y="389"/>
      <point x="142" y="580"/>
      <point x="143" y="694" type="curve"/>
      <point x="106" y="694" type="line"/>
      <point x="107" y="581"/>
      <point x="109" y="392"/>
      <point x="109" y="285" type="curve"/>
      <point x="109" y="179"/>
      <point x="107" y="60"/>
    </contour>
    <contour>
      <point x="247" y="538" type="line"/>
      <point x="266" y="561"/>
      <point x="275" y="594"/>
      <point x="275" y="629" type="curve" smooth="yes"/>
      <point x="275" y="652"/>
      <point x="275" y="676"/>
      <point x="275" y="699" type="curve"/>
      <point x="231" y="695" type="line"/>
      <point x="234" y="630" type="line"/>
      <point x="255" y="628" type="line"/>
      <point x="257" y="602"/>
      <point x="249" y="573"/>
      <point x="232" y="548" type="curve"/>
    </contour>
  </outline>
</glyph>
<glyph name="ldot" format="2">
  <advance width="253"/>
  <unicode hex="0140"/>
  <outline>
    <contour>
      <point x="106" y="0" type="curve"/>
      <point x="141" y="6" type="line"/>
      <point x="141" y="6"/>
      <point x="141" y="141"/>
      <point x="141" y="284" type="curve"/>
      <point x="141" y="428"/>
      <point x="143" y="694"/>
      <point x="143" y="694" type="curve"/>
      <point x="106" y="694" type="line"/>
      <point x="106" y="694"/>
      <point x="109" y="431"/>
      <point x="109" y="285" type="curve"/>
      <point x="109" y="140"/>
      <point x="106" y="0"/>
    </contour>
    <contour>
      <point x="273" y="319" type="line"/>
      <point x="271" y="390" type="line"/>
      <point x="229" y="387" type="line"/>
      <point x="234" y="321" type="line"/>
    </contour>
  </outline>
</glyph>
<glyph name="Eng" format="2">
  <advance width="615"/>
  <unicode hex="014A"/>
  <outline>
    <contour>
      <point x="359" y="-156" type="line"/>
      <point x="451" y="-155"/>
      <point x="514" y="-116"/>
      <point x="518" y="-10" type="curve" smooth="yes"/>
      <point x="520" y="45"/>
      <point x="518" y="248"/>
      <point x="519" y="391" type="curve" smooth="yes"/>
      <point x="520" y="500"/>
      <point x="520" y="607"/>
      <point x="523" y="715" type="curve"/>
      <point x="480" y="715" type="line"/>
      <point x="483" y="607"/>
      <point x="483" y="501"/>
      <point x="484" y="392" type="curve" smooth="yes"/>
      <point x="485" y="296"/>
      <point x="485" y="166"/>
      <point x="485" y="79" type="curve"/>
      <point x="434" y="167"/>
      <point x="387" y="258"/>
      <point x="336" y="348" type="curve" smooth="yes"/>
      <point x="267" y="470"/>
      <point x="205" y="591"/>
      <point x="143" y="704" type="curve"/>
      <point x="92" y="704" type="line"/>
      <point x="95" y="636"/>
      <point x="96" y="494"/>
      <point x="97" y="351" type="curve" smooth="yes"/>
      <point x="97" y="213"/>
      <point x="96" y="75"/>
      <point x="95" y="1" type="curve"/>
      <point x="135" y="0" type="line"/>
      <point x="134" y="53"/>
      <point x="132" y="210"/>
      <point x="131" y="360" type="curve" smooth="yes"/>
      <point x="130" y="475"/>
      <point x="131" y="585"/>
      <point x="131" y="641" type="curve"/>
      <point x="183" y="551"/>
      <point x="240" y="444"/>
      <point x="302" y="336" type="curve" smooth="yes"/>
      <point x="368" y="221"/>
      <point x="429" y="104"/>
      <point x="484" y="2" type="curve"/>
      <point x="484" y="-88"/>
      <point x="453" y="-128"/>
      <point x="358" y="-127" type="curve"/>
    </contour>
  </outline>
</glyph>
<glyph name="eng" format="2">
  <advance width="532"/>
  <unicode hex="014B"/>
  <outline>
    <contour>
      <point x="286" y="-156" type="line"/>
      <point x="378" y="-155"/>
      <point x="444" y="-113"/>
      <point x="446" y="-8" type="curve" smooth="yes"/>
      <point x="447" y="34"/>
      <point x="446" y="68"/>
      <point x="446" y="252" type="curve" smooth="yes"/>
      <point x="446" y="374" type="line" smooth="yes"/>
      <point x="446" y="478"/>
      <point x="410" y="560"/>
      <point x="300" y="560" type="curve" smooth="yes"/>
      <point x="229" y="560"/>
      <point x="164" y="513"/>
      <point x="131" y="421" type="curve"/>
      <point x="132" y="487"/>
      <point x="133" y="537"/>
      <point x="134" y="559" type="curve"/>
      <point x="94" y="556" type="line"/>
      <point x="96" y="524"/>
      <point x="97" y="421"/>
      <point x="98" y="285" type="curve" smooth="yes"/>
      <point x="99" y="152"/>
      <point x="96" y="51"/>
      <point x="94" y="0" type="curve"/>
      <point x="132" y="0" type="line"/>
      <point x="130" y="50"/>
      <point x="132" y="153"/>
      <point x="132" y="286" type="curve" smooth="yes"/>
      <point x="132" y="427"/>
      <point x="203" y="529"/>
      <point x="298" y="529" type="curve" smooth="yes"/>
      <point x="393" y="529"/>
      <point x="414" y="455"/>
      <point x="414" y="377" type="curve" smooth="yes"/>
      <point x="414" y="252" type="line" smooth="yes"/>
      <point x="414" y="88"/>
      <point x="413" y="31"/>
      <point x="411" y="-12" type="curve" smooth="yes"/>
      <point x="407" y="-98"/>
      <point x="363" y="-128"/>
      <point x="285" y="-127" type="curve"/>
    </contour>
  </outline>
</glyph>
<glyph name="OE" format="2">
  <advance width="808"/>
  <unicode hex="0152"/>
  <outline>
    <contour>
      <point x="273" y="-2" type="curve" smooth="yes"/>
      <point x="340" y="-2"/>
      <point x="378" y="0"/>
      <point x="426" y="0" type="curve" smooth="yes"/>
      <point x="729" y="0" type="line"/>
      <point x="729" y="26" type="line"/>
      <point x="432" y="31" type="line"/>
      <point x="429" y="216" type="line"/>
      <point x="722" y="220" type="line"/>
      <point x="724" y="249" type="line"/>
      <point x="429" y="252" type="line"/>
      <point x="428" y="350" type="line" smooth="yes"/>
      <point x="428" y="442"/>
      <point x="430" y="599"/>
      <point x="431" y="661" type="curve"/>
      <point x="719" y="662" type="line"/>
      <point x="719" y="693" type="line"/>
      <point x="440" y="693" type="line" smooth="yes"/>
      <point x="378" y="693"/>
      <point x="349" y="707"/>
      <point x="287" y="707" type="curve" smooth="yes"/>
      <point x="119" y="707"/>
      <point x="53" y="553"/>
      <point x="53" y="360" type="curve" smooth="yes"/>
      <point x="53" y="151"/>
      <point x="95" y="-2"/>
    </contour>
    <contour>
      <point x="289" y="26" type="curve" smooth="yes"/>
      <point x="120" y="26"/>
      <point x="90" y="153"/>
      <point x="90" y="348" type="curve" smooth="yes"/>
      <point x="90" y="528"/>
      <point x="137" y="676"/>
      <point x="294" y="676" type="curve" smooth="yes"/>
      <point x="324" y="676"/>
      <point x="355" y="670"/>
      <point x="388" y="660" type="curve"/>
      <point x="390" y="602"/>
      <point x="394" y="477"/>
      <point x="394" y="352" type="curve" smooth="yes"/>
      <point x="394" y="227"/>
      <point x="392" y="97"/>
      <point x="391" y="36" type="curve"/>
      <point x="354" y="29"/>
      <point x="320" y="26"/>
    </contour>
  </outline>
</glyph>
<glyph name="oe" format="2">
  <advance width="816"/>
  <unicode hex="0153"/>
  <outline>
    <contour>
      <point x="242" y="-10" type="curve" smooth="yes"/>
      <point x="321" y="-10"/>
      <point x="370" y="29"/>
      <point x="399" y="88" type="curve" smooth="yes"/>
      <point x="425" y="140"/>
      <point x="434" y="209"/>
      <point x="434" y="282" type="curve" smooth="yes"/>
      <point x="434" y="337"/>
      <point x="429" y="392"/>
      <point x="415" y="439" type="curve" smooth="yes"/>
      <point x="393" y="513"/>
      <point x="346" y="566"/>
      <point x="258" y="566" type="curve" smooth="yes"/>
      <point x="166" y="566"/>
      <point x="114" y="517"/>
      <point x="87" y="446" type="curve" smooth="yes"/>
      <point x="69" y="398"/>
      <point x="62" y="341"/>
      <point x="62" y="283" type="curve" smooth="yes"/>
      <point x="62" y="223"/>
      <point x="68" y="163"/>
      <point x="85" y="114" type="curve" smooth="yes"/>
      <point x="110" y="41"/>
      <point x="157" y="-10"/>
    </contour>
    <contour>
      <point x="245" y="20" type="curve" smooth="yes"/>
      <point x="174" y="20"/>
      <point x="133" y="66"/>
      <point x="113" y="131" type="curve" smooth="yes"/>
      <point x="101" y="170"/>
      <point x="96" y="216"/>
      <point x="96" y="263" type="curve" smooth="yes"/>
      <point x="96" y="324"/>
      <point x="101" y="385"/>
      <point x="118" y="435" type="curve" smooth="yes"/>
      <point x="140" y="495"/>
      <point x="180" y="537"/>
      <point x="256" y="537" type="curve" smooth="yes"/>
      <point x="324" y="537"/>
      <point x="363" y="492"/>
      <point x="382" y="432" type="curve" smooth="yes"/>
      <point x="397" y="387"/>
      <point x="401" y="335"/>
      <point x="400" y="286" type="curve" smooth="yes"/>
      <point x="398" y="221"/>
      <point x="391" y="158"/>
      <point x="371" y="109" type="curve" smooth="yes"/>
      <point x="349" y="56"/>
      <point x="310" y="20"/>
    </contour>
    <contour>
      <point x="587" y="-10" type="curve" smooth="yes"/>
      <point x="714" y="-10"/>
      <point x="769" y="59"/>
      <point x="769" y="159" type="curve" smooth="yes"/>
      <point x="769" y="168"/>
      <point x="769" y="177"/>
      <point x="769" y="187" type="curve"/>
      <point x="734" y="187" type="line"/>
      <point x="735" y="177"/>
      <point x="736" y="167"/>
      <point x="736" y="158" type="curve" smooth="yes"/>
      <point x="736" y="76"/>
      <point x="696" y="20"/>
      <point x="591" y="20" type="curve" smooth="yes"/>
      <point x="509" y="20"/>
      <point x="468" y="70"/>
      <point x="449" y="140" type="curve" smooth="yes"/>
      <point x="437" y="184"/>
      <point x="433" y="236"/>
      <point x="433" y="290" type="curve" smooth="yes"/>
      <point x="433" y="346"/>
      <point x="439" y="401"/>
      <point x="458" y="446" type="curve" smooth="yes"/>
      <point x="481" y="500"/>
      <point x="524" y="538"/>
      <point x="596" y="538" type="curve" smooth="yes"/>
      <point x="701" y="538"/>
      <point x="737" y="470"/>
      <point x="737" y="375" type="curve" smooth="yes"/>
      <point x="737" y="352"/>
      <point x="735" y="328"/>
      <point x="731" y="303" type="curve"/>
      <point x="761" y="276" type="line"/>
      <point x="766" y="306"/>
      <point x="768" y="336"/>
      <point x="768" y="365" type="curve" smooth="yes"/>
      <point x="768" y="477"/>
      <point x="727" y="565"/>
      <point x="602" y="565" type="curve" smooth="yes"/>
      <point x="516" y="565"/>
      <point x="463" y="524"/>
      <point x="433" y="462" type="curve" smooth="yes"/>
      <point x="410" y="414"/>
      <point x="400" y="355"/>
      <point x="400" y="291" type="curve" smooth="yes"/>
      <point x="400" y="228"/>
      <point x="406" y="165"/>
      <point x="423" y="113" type="curve" smooth="yes"/>
      <point x="447" y="41"/>
      <point x="497" y="-10"/>
    </contour>
    <contour>
      <point x="416" y="272" type="line"/>
      <point x="452" y="274"/>
      <point x="608" y="276"/>
      <point x="761" y="276" type="curve"/>
      <point x="763" y="306" type="line"/>
      <point x="416" y="304" type="line"/>
    </contour>
  </outline>
</glyph>
<glyph name="longs" format="2">
  <advance width="339"/>
  <unicode hex="017F"/>
  <outline>
    <contour>
      <point x="11" y="524" type="line"/>
      <point x="11" y="524"/>
      <point x="60" y="525"/>
      <point x="130" y="525" type="curve"/>
      <point x="132" y="551" type="line"/>
      <point x="63" y="551"/>
      <point x="15" y="553"/>
      <point x="15" y="553" type="curve"/>
    </contour>
    <contour>
      <point x="263" y="716" type="curve" smooth="yes"/>
      <point x="146" y="716"/>
      <point x="111" y="622"/>
      <point x="111" y="541" type="curve" smooth="yes"/>
      <point x="111" y="446"/>
      <point x="110" y="401"/>
      <point x="110" y="270" type="curve" smooth="yes"/>
      <point x="110" y="124"/>
      <point x="106" y="-3"/>
      <point x="106" y="-3" type="curve"/>
      <point x="143" y="0" type="line"/>
      <point x="143" y="0"/>
      <point x="142" y="128"/>
      <point x="142" y="271" type="curve" smooth="yes"/>
      <point x="142" y="397"/>
      <point x="142" y="474"/>
      <point x="143" y="543" type="curve" smooth="yes"/>
      <point x="145" y="647"/>
      <point x="188" y="689"/>
      <point x="260" y="689" type="curve" smooth="yes"/>
      <point x="334" y="689"/>
      <point x="371" y="658"/>
      <point x="370" y="606" type="curve"/>
      <point x="400" y="604" type="line"/>
      <point x="401" y="663"/>
      <point x="361" y="716"/>
    </contour>
  </outline>
</glyph>
<glyph name="Schwa" format="2">
  <advance width="534"/>
  <unicode hex="018F"/>
  <outline>
    <contour>
      <point x="250" y="-8" type="curve" smooth="yes"/>
      <point x="357" y="-8"/>
      <point x="419" y="52"/>
      <point x="451" y="139" type="curve" smooth="yes"/>
      <point x="473" y="197"/>
      <point x="481" y="268"/>
      <point x="481" y="341" type="curve" smooth="yes"/>
      <point x="481" y="426"/>
      <point x="474" y="508"/>
      <point x="449" y="573" type="curve" smooth="yes"/>
      <point x="419" y="651"/>
      <point x="363" y="703"/>
      <point x="262" y="703" type="curve" smooth="yes"/>
      <point x="121" y="703"/>
      <point x="65" y="627"/>
      <point x="65" y="532" type="curve" smooth="yes"/>
      <point x="65" y="520"/>
      <point x="66" y="507"/>
      <point x="68" y="494" type="curve"/>
      <point x="102" y="494" type="line"/>
      <point x="100" y="507"/>
      <point x="99" y="519"/>
      <point x="99" y="532" type="curve" smooth="yes"/>
      <point x="99" y="610"/>
      <point x="139" y="670"/>
      <point x="263" y="670" type="curve" smooth="yes"/>
      <point x="343" y="670"/>
      <point x="389" y="628"/>
      <point x="415" y="563" type="curve" smooth="yes"/>
      <point x="437" y="507"/>
      <point x="444" y="433"/>
      <point x="444" y="356" type="curve" smooth="yes"/>
      <point x="444" y="287"/>
      <point x="437" y="219"/>
      <point x="419" y="161" type="curve" smooth="yes"/>
      <point x="393" y="80"/>
      <point x="343" y="23"/>
      <point x="255" y="23" type="curve" smooth="yes"/>
      <point x="135" y="23"/>
      <point x="91" y="104"/>
      <point x="91" y="230" type="curve" smooth="yes"/>
      <point x="91" y="265"/>
      <point x="94" y="303"/>
      <point x="100" y="343" type="curve"/>
      <point x="65" y="343" type="line"/>
      <point x="58" y="301"/>
      <point x="54" y="261"/>
      <point x="54" y="225" type="curve" smooth="yes"/>
      <point x="54" y="86"/>
      <point x="109" y="-8"/>
    </contour>
    <contour>
      <point x="71" y="316" type="line"/>
      <point x="466" y="318" type="line"/>
      <point x="465" y="350" type="line"/>
      <point x="383" y="345"/>
      <point x="65" y="343"/>
      <point x="65" y="343" type="curve"/>
    </contour>
  </outline>
</glyph>
<glyph name="Nhookleft" format="2">
  <advance width="615"/>
  <unicode hex="019D"/>
  <outline>
    <contour>
      <point x="-30" y="-127" type="curve"/>
      <point x="-29" y="-156" type="line"/>
      <point x="63" y="-155"/>
      <point x="125" y="-116"/>
      <point x="129" y="-10" type="curve" smooth="yes"/>
      <point x="131" y="45"/>
      <point x="131" y="217"/>
      <point x="131" y="360" type="curve" smooth="yes"/>
      <point x="130" y="475"/>
      <point x="131" y="585"/>
      <point x="131" y="641" type="curve"/>
      <point x="163" y="586"/>
      <point x="225" y="470"/>
      <point x="293" y="345" type="curve" smooth="yes"/>
      <point x="360" y="222"/>
      <point x="425" y="91"/>
      <point x="474" y="-1" type="curve"/>
      <point x="521" y="3" type="line"/>
      <point x="519" y="87"/>
      <point x="519" y="243"/>
      <point x="519" y="391" type="curve" smooth="yes"/>
      <point x="519" y="526"/>
      <point x="521" y="655"/>
      <point x="523" y="715" type="curve"/>
      <point x="480" y="715" type="line"/>
      <point x="481" y="669"/>
      <point x="483" y="533"/>
      <point x="484" y="392" type="curve" smooth="yes"/>
      <point x="485" y="265"/>
      <point x="484" y="134"/>
      <point x="484" y="59" type="curve"/>
      <point x="459" y="105"/>
      <point x="391" y="235"/>
      <point x="318" y="369" type="curve" smooth="yes"/>
      <point x="243" y="507"/>
      <point x="172" y="648"/>
      <point x="143" y="704" type="curve"/>
      <point x="92" y="704" type="line"/>
      <point x="95" y="636"/>
      <point x="96" y="494"/>
      <point x="97" y="351" type="curve" smooth="yes"/>
      <point x="97" y="207"/>
      <point x="94" y="29"/>
      <point x="93" y="-12" type="curve" smooth="yes"/>
      <point x="90" y="-98"/>
      <point x="48" y="-128"/>
    </contour>
  </outline>
</glyph>
<glyph name="uhorn" format="2">
  <advance width="511"/>
  <unicode hex="01B0"/>
  <anchor x="252" y="0" name="bottom"/>
  <anchor x="434" y="5" name="ogonek"/>
  <anchor x="262" y="555" name="top"/>
  <anchor x="345" y="555" name="topright"/>
  <outline>
    <contour>
      <point x="210" y="-10" type="curve" smooth="yes"/>
      <point x="345" y="-10"/>
      <point x="418" y="130"/>
      <point x="418" y="285" type="curve"/>
      <point x="392" y="268" type="line"/>
      <point x="392" y="127"/>
      <point x="309" y="20"/>
      <point x="214" y="20" type="curve" smooth="yes"/>
      <point x="132" y="20"/>
      <point x="109" y="89"/>
      <point x="109" y="214" type="curve" smooth="yes"/>
      <point x="109" y="255"/>
      <point x="109" y="301"/>
      <point x="112" y="353" type="curve" smooth="yes"/>
      <point x="115" y="415"/>
      <point x="119" y="486"/>
      <point x="125" y="564" type="curve"/>
      <point x="87" y="559" type="line"/>
      <point x="82" y="491"/>
      <point x="80" y="429"/>
      <point x="78" y="373" type="curve" smooth="yes"/>
      <point x="76" y="319"/>
      <point x="76" y="271"/>
      <point x="76" y="229" type="curve" smooth="yes"/>
      <point x="76" y="68"/>
      <point x="104" y="-10"/>
    </contour>
    <contour>
      <point x="397" y="0" type="line"/>
      <point x="429" y="0" type="line"/>
      <point x="429" y="90"/>
      <point x="423" y="171"/>
      <point x="423" y="260" type="curve" smooth="yes"/>
      <point x="423" y="384"/>
      <point x="426" y="445"/>
      <point x="427" y="563" type="curve"/>
      <point x="389" y="566" type="line"/>
      <point x="391" y="451"/>
      <point x="392" y="383"/>
      <point x="392" y="268" type="curve" smooth="yes"/>
      <point x="392" y="229"/>
      <point x="392" y="181"/>
      <point x="393" y="160" type="curve"/>
    </contour>
    <contour>
      <point x="408" y="473" type="line"/>
      <point x="480" y="486"/>
      <point x="519" y="522"/>
      <point x="524" y="580" type="curve"/>
      <point x="524" y="599"/>
      <point x="523" y="635"/>
      <point x="523" y="656" type="curve"/>
      <point x="476" y="659" type="line"/>
      <point x="479" y="585" type="line"/>
      <point x="504" y="584" type="line"/>
      <point x="504" y="529"/>
      <point x="453" y="499"/>
      <point x="404" y="492" type="curve"/>
    </contour>
  </outline>
</glyph>
<glyph name="jdotless" format="2">
  <advance width="233"/>
  <unicode hex="0237"/>
  <anchor x="121" y="555" name="top"/>
  <outline>
    <contour>
      <point x="-25" y="-156" type="line"/>
      <point x="67" y="-155"/>
      <point x="129" y="-116"/>
      <point x="133" y="-10" type="curve" smooth="yes"/>
      <point x="135" y="45"/>
      <point x="135" y="142"/>
      <point x="135" y="285" type="curve"/>
      <point x="135" y="429"/>
      <point x="139" y="556"/>
      <point x="139" y="556" type="curve"/>
      <point x="102" y="556" type="line"/>
      <point x="102" y="556"/>
      <point x="103" y="432"/>
      <point x="103" y="286" type="curve"/>
      <point x="103" y="142"/>
      <point x="100" y="29"/>
      <point x="99" y="-12" type="curve" smooth="yes"/>
      <point x="96" y="-98"/>
      <point x="52" y="-128"/>
      <point x="-26" y="-127" type="curve"/>
    </contour>
  </outline>
</glyph>
<glyph name="nhookleft" format="2">
  <advance width="532"/>
  <unicode hex="0272"/>
  <outline>
    <contour>
      <point x="449" y="-1" type="line"/>
      <point x="449" y="50"/>
      <point x="446" y="64"/>
      <point x="446" y="197" type="curve" smooth="yes"/>
      <point x="446" y="290"/>
      <point x="446" y="326"/>
      <point x="446" y="374" type="curve" smooth="yes"/>
      <point x="446" y="478"/>
      <point x="410" y="560"/>
      <point x="300" y="560" type="curve" smooth="yes"/>
      <point x="198" y="560"/>
      <point x="108" y="462"/>
      <point x="108" y="273" type="curve"/>
      <point x="132" y="286" type="line"/>
      <point x="132" y="427"/>
      <point x="203" y="529"/>
      <point x="298" y="529" type="curve" smooth="yes"/>
      <point x="393" y="529"/>
      <point x="414" y="455"/>
      <point x="414" y="377" type="curve" smooth="yes"/>
      <point x="414" y="332"/>
      <point x="414" y="268"/>
      <point x="414" y="196" type="curve" smooth="yes"/>
      <point x="414" y="66"/>
      <point x="411" y="46"/>
      <point x="408" y="0" type="curve"/>
    </contour>
    <contour>
      <point x="-28" y="-156" type="line"/>
      <point x="64" y="-155"/>
      <point x="126" y="-116"/>
      <point x="130" y="-10" type="curve" smooth="yes"/>
      <point x="132" y="45"/>
      <point x="132" y="143"/>
      <point x="132" y="286" type="curve"/>
      <point x="132" y="427"/>
      <point x="132" y="523"/>
      <point x="134" y="559" type="curve"/>
      <point x="94" y="556" type="line"/>
      <point x="96" y="524"/>
      <point x="98" y="421"/>
      <point x="98" y="285" type="curve"/>
      <point x="98" y="141"/>
      <point x="95" y="29"/>
      <point x="94" y="-12" type="curve" smooth="yes"/>
      <point x="91" y="-98"/>
      <point x="49" y="-128"/>
      <point x="-29" y="-127" type="curve"/>
    </contour>
  </outline>
</glyph>
